<svg width="65" height="64" viewBox="0 0 65 64" fill="none" xmlns="http://www.w3.org/2000/svg">
<path d="M38.979 42.2118C38.1456 41.9145 37.2988 41.6507 36.4587 41.3684C31.0763 39.5614 27.0425 36.1627 24.4138 31.1106C23.472 29.3019 22.9603 27.3295 22.2752 25.4323C21.9585 24.5504 21.3217 24.0962 20.4532 24.1095C19.6281 24.1095 18.9747 24.5889 18.6763 25.4222C18.4474 26.0647 18.2341 26.7127 18.0363 27.3662C16.5361 32.2997 13.7024 36.2378 9.38345 39.0787C7.2265 40.4949 4.81951 41.3116 2.38252 42.0682C1.56742 42.322 0.940681 42.7362 0.563965 43.5028V44.6285C0.752371 44.993 1.02001 45.3105 1.34715 45.5576C1.67429 45.8048 2.0526 45.9752 2.45421 46.0564C3.05429 46.2017 3.63103 46.4422 4.21944 46.6326C9.86518 48.4697 14.0541 51.9953 16.7078 57.3313C17.5295 58.988 18.0029 60.7734 18.618 62.5086C18.9697 63.5006 19.5665 63.9933 20.4516 64C21.3667 64 21.9968 63.514 22.3452 62.4969C22.5802 61.8105 22.8019 61.1207 23.0219 60.431C24.8338 54.7526 28.356 50.5139 33.7 47.8384C35.3886 46.9933 37.2155 46.5223 38.979 45.881C39.9158 45.547 40.3826 44.9257 40.3809 44.0439C40.3792 43.1621 39.9292 42.5508 38.979 42.2118ZM20.4783 56.4394C17.8812 50.7611 13.789 46.656 8.11495 44.0523C13.7824 41.4502 17.8679 37.3618 20.4766 31.6634C23.0803 37.3418 27.1725 41.4436 32.8482 44.0506C27.1625 46.656 23.0703 50.7611 20.4783 56.4394Z" fill="url(#paint0_linear_1_1609)"/>
<path d="M63.0225 14.099C62.8875 14.0456 62.7558 13.9838 62.6208 13.932C56.765 11.6924 52.7378 7.61733 50.5142 1.76194C50.2208 0.99035 49.8375 0.370741 49.094 0.00164795H47.9722C47.1521 0.397463 46.777 1.11728 46.487 1.93897C45.5849 4.4453 44.1764 6.73825 42.3498 8.6745C40.0529 11.1509 37.1815 13.021 33.9904 14.119C33.0952 14.4347 32.6335 15.0827 32.6318 15.9228C32.6302 16.7628 33.1036 17.4075 33.977 17.7448C34.112 17.7966 34.2504 17.8384 34.3854 17.8885C38.0741 19.2295 41.296 21.6125 43.6616 24.7493C44.987 26.5076 46.0236 28.4669 46.732 30.5529C47.0254 31.3879 47.6955 31.8689 48.5006 31.8773C49.3474 31.8873 49.9925 31.423 50.3342 30.5529C50.3792 30.4376 50.4175 30.3191 50.4609 30.2022C52.2022 25.4791 55.2482 21.8566 59.5987 19.3348C60.6981 18.7188 61.8467 18.1954 63.0325 17.7699C63.981 17.4125 64.4327 16.8096 64.4311 15.9328C64.4294 15.056 63.9843 14.4731 63.0225 14.099ZM48.5373 25.3121C46.3484 21.3766 43.1086 18.1299 39.181 15.9361C43.109 13.739 46.3483 10.4888 48.5356 6.55013C50.7252 10.4896 53.9683 13.739 57.9002 15.9328C53.9687 18.1251 50.7261 21.3734 48.5373 25.3121V25.3121Z" fill="url(#paint1_linear_1_1609)"/>
<path d="M18.8216 8.01651C15.7995 6.88585 13.6725 4.81325 12.4674 1.83712C12.154 1.06219 11.8006 0.409176 11.0505 0H9.92871C9.04859 0.145299 8.67856 0.804992 8.40352 1.54151C7.48007 4.01493 5.82318 5.85205 3.56955 7.18313C3.03115 7.50212 2.43772 7.68416 1.86931 7.94135C1.22589 8.2236 0.66748 8.58935 0.570801 9.3743V10.4983C0.904178 10.9893 1.21589 11.482 1.82097 11.6941C5.20308 12.8882 7.47173 15.2013 8.69022 18.5716C8.81712 18.9386 9.05393 19.2574 9.36835 19.4845C9.68278 19.7117 10.0595 19.8361 10.4471 19.8409C10.834 19.8347 11.2103 19.7128 11.5275 19.4908C11.8447 19.2688 12.0884 18.9568 12.2274 18.595C12.404 18.1758 12.5507 17.7415 12.7491 17.334C13.3571 16.0425 14.2156 14.885 15.2744 13.929C16.3332 12.9731 17.5713 12.2378 18.9166 11.7659C19.5833 11.5221 20.0834 11.1446 20.2901 10.4482C20.5951 9.3743 20.0617 8.47913 18.8216 8.01651ZM10.6538 13.4727C10.4571 13.755 10.3788 13.6398 10.2354 13.4327C9.25003 12.0649 8.03585 10.8783 6.64662 9.92544C8.12503 8.87314 9.41508 7.57778 10.4621 6.09422C11.4915 7.58601 12.7813 8.87937 14.2693 9.91208C12.8689 10.8803 11.6472 12.0852 10.6588 13.4727H10.6538Z" fill="url(#paint2_linear_1_1609)"/>
<path d="M63.0672 52.2541C59.7968 51.0466 57.5798 48.797 56.363 45.5336C56.0296 44.6534 55.3628 44.1557 54.5661 44.1507C53.7693 44.1457 53.0542 44.6518 52.7458 45.5102C51.5373 48.8371 49.272 51.0884 45.9499 52.2892C45.5736 52.4165 45.246 52.6574 45.012 52.9789C44.7779 53.3004 44.6491 53.6867 44.6431 54.0845C44.6431 54.8678 45.1431 55.5492 45.9582 55.8732C46.5782 56.1006 47.1814 56.3712 47.7635 56.6832C50.0883 57.9783 51.8563 60.0851 52.7308 62.6021C53.0642 63.5407 53.6993 63.9949 54.5744 63.9899C55.4228 63.9899 56.0112 63.534 56.373 62.6271C56.5396 62.2046 56.7063 61.777 56.9064 61.3712C58.1519 58.8275 60.3454 56.8763 63.0139 55.9383C63.9707 55.586 64.429 54.978 64.4357 54.1163C64.4424 53.2545 63.994 52.5981 63.0672 52.2541ZM54.5661 57.9041C53.5844 56.4771 52.3607 55.2336 50.9506 54.2298C50.6922 54.0495 50.8972 53.971 51.0156 53.8858C52.3896 52.8855 53.5849 51.6596 54.5511 50.26C55.5816 51.7526 56.8738 53.0456 58.3649 54.0762C56.8804 55.1199 55.5892 56.4153 54.5494 57.9041H54.5661Z" fill="url(#paint3_linear_1_1609)"/>
<defs>
<linearGradient id="paint0_linear_1_1609" x1="7.54063" y1="28.6682" x2="35.4625" y2="55.691" gradientUnits="userSpaceOnUse">
<stop stop-color="#FCA9C7"/>
<stop offset="1" stop-color="#8279E3"/>
</linearGradient>
<linearGradient id="paint1_linear_1_1609" x1="38.2037" y1="3.6446" x2="60.515" y2="25.2256" gradientUnits="userSpaceOnUse">
<stop stop-color="#FCA9C7"/>
<stop offset="1" stop-color="#8279E3"/>
</linearGradient>
<linearGradient id="paint2_linear_1_1609" x1="4.04071" y1="2.26753" x2="17.9285" y2="15.7076" gradientUnits="userSpaceOnUse">
<stop stop-color="#FCA9C7"/>
<stop offset="1" stop-color="#8279E3"/>
</linearGradient>
<linearGradient id="paint3_linear_1_1609" x1="48.1111" y1="46.418" x2="61.9976" y2="59.8507" gradientUnits="userSpaceOnUse">
<stop stop-color="#FCA9C7"/>
<stop offset="1" stop-color="#8279E3"/>
</linearGradient>
</defs>
</svg>
