<svg width="65" height="64" viewBox="0 0 65 64" fill="none" xmlns="http://www.w3.org/2000/svg">
<path d="M0.593262 61.3261C0.968509 60.6919 1.50761 60.1881 2.02545 59.6705C6.67851 55.0101 11.3308 50.3489 15.9822 45.6869C17.0816 44.5865 18.6602 44.757 19.3169 46.0403C19.7046 46.7922 19.6208 47.5241 19.1205 48.1996C18.9626 48.3925 18.7913 48.5738 18.6076 48.7423C13.897 53.4636 9.18559 58.1842 4.47332 62.9039C2.9198 64.4604 1.82658 64.3664 0.595766 62.5755L0.593262 61.3261Z" fill="url(#paint0_linear_1_1650)"/>
<path d="M0.593262 45.3384C0.913472 44.8784 1.18866 44.3859 1.75278 44.1503C2.7847 43.7205 3.97298 44.1503 4.42328 45.1416C4.63338 45.6306 4.64466 46.1824 4.45472 46.6796C4.26478 47.1768 3.88863 47.58 3.40636 47.8035C2.91933 48.0205 2.36623 48.035 1.86854 47.8437C1.37086 47.6525 0.969313 47.2711 0.752119 46.7834C0.702086 46.6756 0.723347 46.5327 0.593262 46.4625V45.3384Z" fill="url(#paint1_linear_1_1650)"/>
<path d="M30.3253 47.9539C31.3598 47.9627 31.9839 48.3725 32.3267 49.1295C32.6806 49.9115 32.5768 50.696 31.9689 51.3201C29.9609 53.3646 27.9371 55.3948 25.8974 57.4109C25.5579 57.7536 25.0973 57.9486 24.6153 57.9535C23.731 57.9798 23.1018 57.5775 22.7091 56.8118C22.5261 56.4461 22.4639 56.0317 22.5314 55.6282C22.5988 55.2248 22.7924 54.8533 23.0843 54.5673C23.9799 53.6411 24.9005 52.74 25.8099 51.8277C26.8806 50.7532 27.9517 49.6792 29.0232 48.6056C29.4285 48.192 29.9026 47.9326 30.3253 47.9539Z" fill="url(#paint2_linear_1_1650)"/>
<path d="M16.5464 33.9942C16.5562 34.2543 16.51 34.5136 16.4109 34.7542C16.3118 34.9949 16.1622 35.2114 15.9723 35.389C13.9797 37.3942 11.9922 39.3994 9.98208 41.3858C9.60252 41.7248 9.10837 41.9064 8.60003 41.8936C8.09169 41.8808 7.60727 41.6747 7.24516 41.317C6.88306 40.9593 6.67043 40.4769 6.65047 39.9678C6.63051 39.4587 6.80472 38.9611 7.1377 38.576C9.12985 36.5441 11.1387 34.5285 13.1642 32.5291C13.7896 31.9113 14.5488 31.8123 15.3469 32.1269C16.0999 32.4239 16.5502 33.162 16.5464 33.9942Z" fill="url(#paint3_linear_1_1650)"/>
<path d="M24.5225 41.9961C24.5218 42.2603 24.4681 42.5218 24.3644 42.7648C24.2608 43.0078 24.1094 43.2274 23.9193 43.4105C23.7291 43.5936 23.5041 43.7366 23.2577 43.8307C23.0113 43.9249 22.7484 43.9684 22.4849 43.9586C21.3691 43.9449 20.5211 43.0551 20.5348 41.9109C20.5461 41.3811 20.767 40.8774 21.1489 40.5108C21.5308 40.1442 22.0424 39.9445 22.5712 39.9558C23.1 39.9671 23.6026 40.1884 23.9686 40.5711C24.3345 40.9537 24.5337 41.4663 24.5225 41.9961V41.9961Z" fill="url(#paint4_linear_1_1650)"/>
<path d="M16.5465 61.9325C16.55 61.5378 16.6701 61.153 16.8917 60.8266C17.1132 60.5002 17.4263 60.2469 17.7915 60.0986C18.1566 59.9504 18.5573 59.9138 18.9432 59.9936C19.329 60.0734 19.6826 60.2659 19.9593 60.5468C20.2361 60.8278 20.4236 61.1845 20.4981 61.5721C20.5726 61.9597 20.5309 62.3608 20.3781 62.7246C20.2254 63.0885 19.9685 63.3988 19.6398 63.6165C19.3112 63.8342 18.9256 63.9495 18.5316 63.9477C18.2678 63.951 18.006 63.901 17.762 63.8005C17.5179 63.7001 17.2966 63.5513 17.1113 63.3632C16.9259 63.175 16.7804 62.9513 16.6833 62.7055C16.5863 62.4597 16.5398 62.1968 16.5465 61.9325Z" fill="url(#paint5_linear_1_1650)"/>
<path d="M62.9091 0H61.9085C59.8809 0.690535 57.8558 1.3911 55.8232 2.07035C41.9282 6.71402 28.0307 11.3548 14.1307 15.9926C12.4196 16.5641 12.0043 18.2685 13.2876 19.5568C23.8171 30.1116 34.3469 40.6643 44.8772 51.2149C46.1643 52.5032 47.8629 52.1022 48.4371 50.379C53.6755 34.6316 58.9123 18.8826 64.1475 3.13185C64.6953 1.4876 64.4139 0.792048 62.9091 0ZM30.1375 30.7758C26.2749 26.8757 22.4007 22.9874 18.5148 19.1107C18.4573 19.053 18.4047 18.9853 18.2859 18.86L54.6599 6.71988C54.6512 7.03945 54.461 7.12718 54.336 7.2525C46.5241 15.0844 38.7127 22.9155 30.9018 30.7457C30.6178 31.029 30.4715 31.1129 30.1375 30.7758ZM45.5814 46.2182C45.4063 46.0503 45.285 45.9388 45.1687 45.8222C41.3653 42.0107 37.5599 38.2004 33.7524 34.3914C33.4572 34.0969 33.3496 33.9453 33.7161 33.5806C41.5413 25.7629 49.3573 17.9355 57.1641 10.0986C57.2892 9.97328 57.3855 9.79282 57.7144 9.73643C53.663 21.9217 49.6304 34.0455 45.5814 46.2182Z" fill="url(#paint6_linear_1_1650)"/>
<defs>
<linearGradient id="paint0_linear_1_1650" x1="3.91658" y1="47.135" x2="17.2436" y2="60.0064" gradientUnits="userSpaceOnUse">
<stop stop-color="#FCA9C7"/>
<stop offset="1" stop-color="#8279E3"/>
</linearGradient>
<linearGradient id="paint1_linear_1_1650" x1="1.29347" y1="44.4405" x2="4.08884" y2="47.1528" gradientUnits="userSpaceOnUse">
<stop stop-color="#FCA9C7"/>
<stop offset="1" stop-color="#8279E3"/>
</linearGradient>
<linearGradient id="paint2_linear_1_1650" x1="24.2614" y1="49.0958" x2="31.2632" y2="55.9" gradientUnits="userSpaceOnUse">
<stop stop-color="#FCA9C7"/>
<stop offset="1" stop-color="#8279E3"/>
</linearGradient>
<linearGradient id="paint3_linear_1_1650" x1="8.38338" y1="33.089" x2="15.3414" y2="39.8065" gradientUnits="userSpaceOnUse">
<stop stop-color="#FCA9C7"/>
<stop offset="1" stop-color="#8279E3"/>
</linearGradient>
<linearGradient id="paint4_linear_1_1650" x1="21.2335" y1="40.4131" x2="24.0363" y2="43.1196" gradientUnits="userSpaceOnUse">
<stop stop-color="#FCA9C7"/>
<stop offset="1" stop-color="#8279E3"/>
</linearGradient>
<linearGradient id="paint5_linear_1_1650" x1="17.2447" y1="60.409" x2="20.0414" y2="63.1157" gradientUnits="userSpaceOnUse">
<stop stop-color="#FCA9C7"/>
<stop offset="1" stop-color="#8279E3"/>
</linearGradient>
<linearGradient id="paint6_linear_1_1650" x1="21.6255" y1="5.93983" x2="58.0047" y2="41.142" gradientUnits="userSpaceOnUse">
<stop stop-color="#FCA9C7"/>
<stop offset="1" stop-color="#8279E3"/>
</linearGradient>
</defs>
</svg>
