<svg width="57" height="64" viewBox="0 0 57 64" fill="none" xmlns="http://www.w3.org/2000/svg">
<path d="M53.9533 40.7285C53.6243 40.5501 53.2876 40.4822 53.2915 39.9374C53.3186 34.6323 53.3089 29.3272 53.3031 24.0202C53.2809 23.8821 53.3093 23.7405 53.3829 23.6216C53.4564 23.5026 53.5703 23.4142 53.7037 23.3726C54.3623 23.0755 54.952 22.6446 55.4356 22.1071C55.9193 21.5697 56.2863 20.9375 56.5133 20.2506C56.7403 19.5636 56.8225 18.8369 56.7546 18.1165C56.6867 17.3961 56.4701 16.6976 56.1187 16.0654C55.7674 15.4332 55.2887 14.881 54.7132 14.4438C54.1377 14.0066 53.4778 13.694 52.7754 13.5257C52.073 13.3573 51.3433 13.337 50.6326 13.466C49.922 13.595 49.2458 13.8704 48.6469 14.2749C48.2463 14.5464 47.9831 14.5444 47.5709 14.3021C43.4198 11.8725 39.2745 9.43133 35.0789 7.08128C34.0629 6.51122 33.5926 5.90626 33.5113 4.69245C33.2907 1.36709 29.8885 -0.787115 26.738 0.27157C24.4834 1.02971 23.1519 2.98615 23.1094 5.5553C23.1094 5.87329 23.1926 6.18353 22.7901 6.41815C18.2345 9.0668 13.6873 11.7316 9.14849 14.4126C9.04722 14.4926 8.92074 14.5336 8.79189 14.5283C8.66304 14.523 8.54032 14.4716 8.44599 14.3835C7.48729 13.6772 6.31329 13.3269 5.12512 13.3927C2.84927 13.4586 0.730168 15.2366 0.254097 17.5246C-0.221974 19.8126 0.946919 22.3333 3.03892 23.2737C3.53628 23.4987 3.6195 23.774 3.6195 24.2432C3.60788 29.3777 3.60788 34.5134 3.6195 39.6504C3.6195 40.2069 3.47048 40.4803 2.95764 40.7401C2.33021 41.0677 1.77572 41.5197 1.3278 42.0684C0.879889 42.6172 0.547876 43.2514 0.351899 43.9326C0.155922 44.6137 0.10006 45.3277 0.187703 46.0311C0.275346 46.7346 0.504673 47.4129 0.861768 48.0249C2.13129 50.1713 5.63408 51.6469 8.2815 49.6711C8.66855 49.3763 8.90465 49.5062 9.22784 49.6924C13.5551 52.2131 17.8745 54.7337 22.2308 57.1982C23.0049 57.6345 23.2719 58.094 23.2758 58.9704C23.2758 62.1678 26.4438 64.5935 29.5537 63.8722C32.1257 63.273 33.6178 61.3224 33.6874 58.4993C33.6874 58.1599 33.6119 57.8303 34.0396 57.586C38.6507 54.9412 43.2521 52.279 47.8438 49.5993C47.9552 49.5136 48.0939 49.4713 48.2341 49.4802C48.3743 49.4891 48.5065 49.5486 48.6062 49.6478C49.4969 50.3171 50.5901 50.6593 51.7026 50.6173C52.5046 50.6346 53.2973 50.4436 54.0037 50.0627C55.817 49.1437 56.8001 47.6623 56.8504 45.6166C56.9007 43.3907 55.8731 41.7833 53.9533 40.7285ZM51.693 16.879C51.9097 16.8774 52.1246 16.9193 52.3249 17.0023C52.5252 17.0853 52.7068 17.2077 52.8591 17.3623C53.0113 17.5168 53.1311 17.7004 53.2114 17.9021C53.2916 18.1039 53.3307 18.3197 53.3263 18.5368C53.3167 18.9879 53.1314 19.4174 52.8099 19.7333C52.4884 20.0493 52.0562 20.2267 51.6059 20.2276C51.156 20.2197 50.7266 20.0376 50.4076 19.7195C50.0887 19.4014 49.9051 18.972 49.8951 18.5213C49.8855 17.544 50.6073 16.879 51.693 16.879V16.879ZM28.47 3.51355C28.8133 3.51359 29.149 3.61529 29.4348 3.80587C29.7206 3.99645 29.9438 4.26741 30.0764 4.5847C30.209 4.90199 30.245 5.25147 30.18 5.58923C30.1149 5.92698 29.9517 6.23794 29.7108 6.48304C29.47 6.72814 29.1622 6.89645 28.8261 6.96682C28.4901 7.03719 28.1407 7.00648 27.822 6.87855C27.5033 6.75062 27.2295 6.53118 27.0349 6.24779C26.8403 5.96441 26.7336 5.62972 26.7283 5.28578C26.7411 4.82483 26.9281 4.38593 27.2513 4.05771C27.5746 3.72949 28.0102 3.5364 28.47 3.51743V3.51355ZM5.34187 16.8925C6.2166 16.8712 7.04682 17.7244 7.03327 18.6376C7.01608 19.0885 6.82756 19.5157 6.50629 19.8318C6.18502 20.1479 5.7553 20.329 5.3051 20.3381C5.0879 20.3377 4.87299 20.2936 4.6731 20.2085C4.4732 20.1234 4.29238 19.9989 4.14134 19.8426C3.99031 19.6862 3.87213 19.501 3.79379 19.298C3.71546 19.0951 3.67857 18.8784 3.6853 18.6609C3.67773 18.2078 3.84635 17.7695 4.15552 17.4388C4.46468 17.108 4.89013 16.9108 5.34187 16.8887V16.8925ZM5.34187 47.1058C5.11975 47.1065 4.89965 47.0635 4.69415 46.979C4.48864 46.8945 4.30176 46.7704 4.14416 46.6135C3.98656 46.4567 3.86133 46.2703 3.77562 46.065C3.68992 45.8597 3.64542 45.6395 3.64465 45.4169C3.64389 45.1944 3.68689 44.9739 3.77118 44.768C3.85548 44.5621 3.97943 44.3748 4.13595 44.2169C4.29248 44.059 4.4785 43.9335 4.68342 43.8477C4.88834 43.7618 5.10814 43.7172 5.33026 43.7164C5.55337 43.7154 5.77449 43.7585 5.98094 43.8433C6.18738 43.9281 6.3751 44.0529 6.53332 44.2105C6.69153 44.3681 6.81714 44.5555 6.90293 44.7618C6.98872 44.9682 7.03302 45.1895 7.03327 45.4131C7.03886 45.6365 6.99901 45.8588 6.91616 46.0664C6.83331 46.2739 6.70917 46.4624 6.55132 46.6204C6.39346 46.7784 6.20518 46.9025 5.99792 46.9853C5.79067 47.0681 5.56877 47.1078 5.34573 47.1019L5.34187 47.1058ZM28.4739 60.4848C27.5682 60.508 26.7128 59.6491 26.7322 58.728C26.7345 58.3834 26.8385 58.0472 27.0313 57.7617C27.2241 57.4763 27.4969 57.2544 27.8154 57.1241C28.1338 56.9938 28.4836 56.9609 28.8207 57.0296C29.1578 57.0982 29.4671 57.2653 29.7095 57.5098C29.9519 57.7543 30.1167 58.0653 30.1829 58.4035C30.2492 58.7417 30.214 59.092 30.0819 59.4102C29.9497 59.7284 29.7265 60.0002 29.4403 60.1915C29.1541 60.3827 28.8179 60.4848 28.4739 60.4848ZM49.3533 40.7071C47.1819 41.7348 46.075 43.6893 46.342 46.0413C46.3715 46.1528 46.358 46.2714 46.3042 46.3734C46.2504 46.4754 46.1603 46.5534 46.0517 46.5919C41.4407 49.2406 36.8316 51.8951 32.2244 54.5554C31.9225 54.7318 31.7367 54.6891 31.4619 54.5049C29.4609 53.1593 27.4289 53.1477 25.4743 54.5049C25.361 54.6043 25.217 54.6617 25.0666 54.6673C24.9161 54.673 24.7683 54.6266 24.6479 54.536C20.073 51.8757 15.4929 49.2219 10.9076 46.5745C10.6386 46.4194 10.4877 46.2992 10.5419 45.9191C10.6897 44.8583 10.4902 43.7782 9.97349 42.8405C9.45675 41.9029 8.65053 41.1585 7.67577 40.7188C7.24614 40.5249 7.14164 40.2864 7.14357 39.8482C7.15776 34.6155 7.15776 29.3802 7.14357 24.1424C7.14357 23.6906 7.27324 23.4754 7.68351 23.2795C8.65281 22.8227 9.45248 22.0695 9.96749 21.1284C10.4825 20.1874 10.6863 19.1068 10.5496 18.0424C10.4993 17.672 10.6232 17.5324 10.9038 17.3715C15.4955 14.7422 20.0839 12.1058 24.6692 9.46235C24.9866 9.28009 25.1898 9.30723 25.4936 9.51858C27.4018 10.8352 29.4976 10.839 31.4232 9.51858C31.5451 9.41117 31.7002 9.34922 31.8624 9.34321C32.0246 9.33721 32.184 9.38751 32.3134 9.48562C36.8677 12.1394 41.4252 14.7862 45.9859 17.4258C46.2008 17.5499 46.5239 17.608 46.3846 17.9745C46.1717 20.5107 47.1452 22.3023 49.3707 23.4036C49.4991 23.4537 49.6071 23.5455 49.6772 23.6643C49.7474 23.7831 49.7758 23.9221 49.7577 24.059C49.7487 29.3899 49.7487 34.7202 49.7577 40.0498C49.7785 40.1886 49.7497 40.3302 49.6764 40.4498C49.6032 40.5693 49.4901 40.6591 49.3571 40.7033L49.3533 40.7071ZM51.513 47.1058C51.2904 47.1047 51.0702 47.0586 50.8657 46.9705C50.6612 46.8823 50.4766 46.7537 50.3227 46.5925C50.1688 46.4313 50.0489 46.2407 49.9702 46.0321C49.8914 45.8234 49.8553 45.601 49.8642 45.3782C49.8626 45.1486 49.9066 44.9209 49.9936 44.7085C50.0806 44.4961 50.2088 44.3031 50.3709 44.1407C50.5329 43.9784 50.7255 43.8499 50.9375 43.7627C51.1496 43.6756 51.3767 43.6315 51.6059 43.6331C51.8285 43.6331 52.0488 43.6783 52.2535 43.7659C52.4583 43.8534 52.6432 43.9816 52.7972 44.1426C52.9512 44.3036 53.0712 44.4942 53.1498 44.7029C53.2284 44.9115 53.2641 45.134 53.2547 45.3568C53.2552 45.8193 53.0725 46.2631 52.7466 46.5907C52.4208 46.9182 51.9785 47.1028 51.5169 47.1038L51.513 47.1058Z" fill="url(#paint0_linear_1_1583)"/>
<path d="M40.639 26.2171C40.6627 25.8201 40.5698 25.4249 40.3716 25.0802C40.1735 24.7356 39.8789 24.4567 39.5243 24.2781C36.1956 22.3391 32.8748 20.3917 29.5616 18.436C29.2406 18.2206 28.8636 18.1043 28.4773 18.1016C28.091 18.0988 27.7123 18.2097 27.3883 18.4205C24.0236 20.3853 20.6524 22.3424 17.2747 24.2917C16.9628 24.4522 16.704 24.6999 16.5298 25.0049C16.3556 25.3098 16.2736 25.6588 16.2935 26.0096C16.311 27.9719 16.2935 29.9361 16.2935 31.8983C16.2935 33.8606 16.3071 35.8713 16.2935 37.8588C16.2718 38.2087 16.3516 38.5575 16.5233 38.863C16.695 39.1685 16.9513 39.4177 17.2612 39.5806C20.653 41.548 24.0442 43.5193 27.4348 45.4945C27.7407 45.6905 28.0963 45.7946 28.4595 45.7946C28.8226 45.7946 29.1782 45.6905 29.4842 45.4945C32.8515 43.5322 36.2221 41.5758 39.5959 39.6252C40.3119 39.2102 40.6332 38.6247 40.6293 37.7831C40.6138 33.9297 40.617 30.0744 40.639 26.2171ZM26.7265 40.9534C26.4323 40.9728 26.2427 40.7692 26.0298 40.647C24.0945 39.5321 22.1593 38.4055 20.224 37.2868C19.9744 37.1413 19.7615 37.0424 19.7654 36.6585C19.7886 34.1185 19.777 31.5803 19.777 28.9375C22.0528 30.2502 24.2145 31.5066 26.3878 32.7398C26.7032 32.9182 26.7323 33.1431 26.7323 33.4456C26.7226 35.9372 26.7265 38.4308 26.7265 40.9495V40.9534ZM28.7604 29.8003C28.675 29.8591 28.5738 29.8906 28.4701 29.8906C28.3665 29.8906 28.2653 29.8591 28.1798 29.8003C26.0046 28.5284 23.8236 27.27 21.5632 25.9592C22.9043 25.1836 24.1894 24.4468 25.4705 23.7042C26.3433 23.2 27.2122 22.6843 28.087 22.184C28.2573 22.0871 28.4005 21.9106 28.6675 22.0657C30.8815 23.3629 33.105 24.6407 35.3867 25.9612C33.1205 27.2642 30.9376 28.5264 28.7604 29.7965V29.8003ZM35.4854 38.0216C33.8753 38.7565 32.3793 39.7434 30.8311 40.6179C30.6531 40.7188 30.4983 40.8933 30.2022 40.8603C30.2022 38.3487 30.2022 35.8409 30.2022 33.337C30.1939 33.2427 30.2144 33.148 30.2611 33.0656C30.3077 32.9831 30.3783 32.9169 30.4634 32.8756C32.6638 31.6114 34.8584 30.3394 37.1555 29.0112C37.1555 31.1208 37.0355 33.1276 37.1942 35.1093C37.3103 36.5984 36.8304 37.4031 35.4854 38.0139V38.0216Z" fill="url(#paint1_linear_1_1583)"/>
<defs>
<linearGradient id="paint0_linear_1_1583" x1="10.0832" y1="7.31429" x2="54.3924" y2="45.3791" gradientUnits="userSpaceOnUse">
<stop stop-color="#FCA9C7"/>
<stop offset="1" stop-color="#8279E3"/>
</linearGradient>
<linearGradient id="paint1_linear_1_1583" x1="20.5571" y1="21.2664" x2="39.7076" y2="37.5949" gradientUnits="userSpaceOnUse">
<stop stop-color="#FCA9C7"/>
<stop offset="1" stop-color="#8279E3"/>
</linearGradient>
</defs>
</svg>
