<svg width="57" height="64" viewBox="0 0 57 64" fill="none" xmlns="http://www.w3.org/2000/svg">
<path d="M33.8077 48.3147C32.3077 48.7956 30.7498 49.0714 29.1762 49.1349C27.1431 49.2111 25.1123 48.9331 23.1742 48.313C22.0722 47.9605 21.0335 48.465 20.6951 49.4673C20.3433 50.5079 20.8951 51.5169 22.0288 51.8994C24.1295 52.611 26.2935 52.9184 27.5856 52.9267C30.6516 52.9267 32.754 52.611 34.8064 51.9763C35.2104 51.8761 35.5801 51.669 35.8767 51.3766C36.1506 51.0762 36.3234 50.6973 36.3706 50.2932C36.4179 49.8892 36.3373 49.4805 36.1401 49.1248C35.6666 48.3364 34.7747 48.0107 33.8077 48.3147Z" fill="url(#paint0_linear_1_1527)"/>
<path d="M56.4317 20.0543C56.4317 16.4195 54.221 13.4394 50.7515 12.3787C50.6054 12.3444 50.4738 12.2647 50.3756 12.151C50.2774 12.0373 50.2176 11.8954 50.2047 11.7456C49.296 7.29226 46.6735 4.28883 42.4688 2.66183C40.6732 1.96526 38.7776 1.94689 36.8836 2.00869C36.5502 2.01872 36.3835 1.97194 36.3368 1.56436C36.2885 1.13614 36.0845 0.740743 35.7637 0.453598C35.443 0.166452 35.028 0.00765995 34.5979 0.00751693C30.5232 -0.00250564 26.4491 -0.00250564 22.3755 0.00751693C21.9565 0.0094281 21.5523 0.162407 21.2366 0.43847C20.921 0.714533 20.7151 1.09522 20.6567 1.5109C20.6083 1.99032 20.4016 2.01203 20.0281 2.01203C18.596 1.98698 17.1505 1.91849 15.755 2.30436C10.8751 3.65239 7.85747 6.7928 6.78211 11.769C6.71709 12.0697 6.62373 12.2701 6.28195 12.3754C2.80081 13.411 0.563394 16.3961 0.558392 20.0126C0.550056 25.3663 0.558392 30.7184 0.558392 36.0721C0.555552 36.675 0.624389 37.2762 0.763456 37.8628C1.47202 40.8211 3.43098 42.5968 6.20522 43.5857C6.527 43.7009 6.67207 43.8045 6.68874 44.167C6.74719 44.9539 6.86254 45.7354 7.03386 46.5056C8.63772 54.8143 15.5683 61.8318 23.8093 63.5072C24.6246 63.6743 25.4765 63.701 26.2568 64H27.2571C27.3755 63.9496 27.5028 63.9236 27.6314 63.9236C27.7601 63.9236 27.8873 63.9496 28.0057 64H29.006C29.1244 63.9496 29.2517 63.9236 29.3803 63.9236C29.509 63.9236 29.6362 63.9496 29.7546 64H30.3781C30.4248 63.8697 30.5365 63.8964 30.6349 63.8897C32.1227 63.774 33.5913 63.4807 35.0097 63.0161C43.5125 60.3251 49.4911 52.9401 50.3247 44.0885C50.3547 43.7728 50.4914 43.6909 50.7615 43.6074C54.2626 42.5266 56.4434 39.5516 56.445 35.865C56.4417 30.5942 56.4373 25.324 56.4317 20.0543ZM36.6586 5.75881C38.4208 5.75881 40.188 5.68698 41.8469 6.45704C44.131 7.51944 45.5365 9.33519 46.3317 11.6788C46.3565 11.7886 46.371 11.9004 46.3751 12.0129H40.6199C39.3945 12.0129 38.1691 11.9979 36.952 12.0129C36.5469 12.0129 36.3702 11.9561 36.3785 11.485C36.4085 9.7361 36.3785 7.98716 36.3951 6.23822C36.3885 6.05781 36.2584 5.76215 36.6586 5.75881ZM24.3645 4.12513C24.3645 3.81944 24.4562 3.74427 24.7513 3.74594C27.2438 3.75763 29.738 3.76097 32.2304 3.74594C32.5989 3.74594 32.6223 3.89628 32.6206 4.18359C32.6106 5.43307 32.6206 6.68923 32.6206 7.93203C32.6206 9.17483 32.6089 10.3892 32.6206 11.617C32.6206 11.9511 32.5272 12.0313 32.2021 12.0296C29.7302 12.0162 27.2577 12.0162 24.7847 12.0296C24.4712 12.0296 24.3579 11.9645 24.3612 11.6237C24.379 9.12249 24.3801 6.62297 24.3645 4.12513V4.12513ZM10.7234 11.4533C11.6887 8.47826 13.7611 6.75271 16.7254 6.00102C17.8924 5.70535 19.0711 5.76883 20.2532 5.75881C20.5199 5.75881 20.6133 5.84066 20.6116 6.11461C20.6033 7.96544 20.5983 9.81795 20.6116 11.6688C20.6116 12.0747 20.3765 12.0229 20.1281 12.0229H15.6433C14.1428 12.0229 12.654 12.0079 11.1602 12.0229C10.6867 12.0363 10.555 11.9661 10.7234 11.4533ZM46.4818 44.4944C45.9099 48.5402 44.1977 52.0213 41.3134 54.8911C37.6272 58.5661 33.1441 60.3601 27.9541 60.2215C23.8471 60.0983 19.9029 58.5851 16.7642 55.9284C13.6255 53.2717 11.4774 49.6283 10.67 45.5919C10.3449 43.9398 10.3449 43.9398 12.0438 43.9398H15.7851V43.8864C17.3006 43.8864 18.8194 43.9398 20.3332 43.873C22.3555 43.7845 24.0995 42.9543 25.5816 41.5912C27.5256 39.8094 29.4707 39.8094 31.4169 41.5912C33.1574 43.2015 35.2414 43.9298 37.5989 43.9298C40.3848 43.9298 43.169 43.9298 45.955 43.9198C46.3901 43.9265 46.5551 43.9766 46.4818 44.4944ZM48.2557 40.1613C44.7046 40.0778 41.15 40.1229 37.5955 40.1463C36.8907 40.164 36.1894 40.0401 35.5331 39.7819C34.8768 39.5237 34.2788 39.1364 33.7743 38.6429C30.7016 35.7413 26.2535 35.7631 23.1708 38.6796C22.6901 39.1541 22.12 39.5281 21.4938 39.7798C20.8676 40.0316 20.1976 40.1562 19.5229 40.1463C15.8651 40.1346 12.2072 40.1463 8.54933 40.1463C6.14521 40.1463 4.34465 38.4341 4.32631 36.0136C4.28519 30.6616 4.28519 25.3095 4.32631 19.9575C4.34132 17.5671 6.27192 15.8014 8.75941 15.8231C15.3482 15.8783 21.9304 15.8415 28.5242 15.8415C35.1181 15.8415 41.6585 15.8415 48.2257 15.8415C50.4114 15.8415 51.9419 16.9256 52.4988 18.8483C52.6226 19.289 52.6832 19.7452 52.6788 20.203C52.6788 25.3813 52.6671 30.5747 52.6788 35.7597C52.6905 38.6963 50.3747 40.2114 48.2557 40.1613V40.1613Z" fill="url(#paint1_linear_1_1527)"/>
<defs>
<linearGradient id="paint0_linear_1_1527" x1="23.3572" y1="48.741" x2="25.2223" y2="54.7847" gradientUnits="userSpaceOnUse">
<stop stop-color="#FCA9C7"/>
<stop offset="1" stop-color="#8279E3"/>
</linearGradient>
<linearGradient id="paint1_linear_1_1527" x1="10.3477" y1="7.31429" x2="54.5559" y2="44.7469" gradientUnits="userSpaceOnUse">
<stop stop-color="#FCA9C7"/>
<stop offset="1" stop-color="#8279E3"/>
</linearGradient>
</defs>
</svg>
