<svg width="197" height="293" viewBox="0 0 197 293" fill="none" xmlns="http://www.w3.org/2000/svg">
<circle r="12.3488" transform="matrix(1 0 0 -1 98.3488 280.253)" fill="#7598EC" fill-opacity="0.27"/>
<circle r="6.17442" transform="matrix(1 0 0 -1 98.3487 279.481)" fill="#8279E3"/>
<line y1="-0.5" x2="164.394" y2="-0.5" transform="matrix(0 1 1 0 98.3491 112)" stroke="#8279E3" stroke-dasharray="2 2"/>
<rect x="1" y="1" width="195" height="178" rx="9" fill="#F1F1F1"/>
<g opacity="0.2">
<g clip-path="url(#clip0_1_129)">
<g filter="url(#filter0_f_1_129)">
<path d="M101.695 234.589C101.695 260.263 76.1216 234.589 11.7146 234.589C-52.6925 234.589 -37.4194 168.47 -37.4194 142.797C-37.4194 117.123 -13.0301 155.817 51.377 155.817C115.784 155.817 101.695 208.916 101.695 234.589Z" fill="url(#paint0_linear_1_129)"/>
</g>
<g filter="url(#filter1_f_1_129)">
<path d="M204.674 157.186C180.48 165.798 182.419 114.051 164.176 62.8016C145.932 11.552 114.413 -19.7931 138.607 -28.4056C162.801 -37.0182 197.204 -2.45392 215.448 48.7958C233.692 100.045 228.868 148.573 204.674 157.186Z" fill="url(#paint1_linear_1_129)"/>
</g>
</g>
</g>
<path d="M66.5879 54.4468C66.686 54.6178 66.7377 54.8116 66.7377 55.0088C66.7377 55.2061 66.686 55.3999 66.5879 55.5708V54.4468Z" fill="url(#paint2_linear_1_129)"/>
<path d="M100.095 24C99.9697 24.095 99.8166 24.1464 99.6592 24.1464C99.5019 24.1464 99.3488 24.095 99.2231 24H100.095Z" fill="url(#paint3_linear_1_129)"/>
<path d="M66.5879 56.6931C66.6829 56.8188 66.7344 56.9722 66.7344 57.13C66.7344 57.2877 66.6829 57.4412 66.5879 57.5669V56.6931Z" fill="url(#paint4_linear_1_129)"/>
<path d="M96.7331 24C96.6498 24.1334 96.5666 24.1568 96.4834 24H96.7331Z" fill="url(#paint5_linear_1_129)"/>
<path d="M129.951 49.7222C129.124 45.4617 127.424 41.4196 124.957 37.8517C124.714 37.5015 124.654 37.2046 124.879 36.8277C125.119 36.4373 125.293 36.0095 125.393 35.562C125.861 33.349 125.292 31.4545 123.524 30.0336C121.72 28.5828 119.711 28.406 117.639 29.4516C117.181 29.6818 116.863 29.6384 116.452 29.3566C112.766 26.8088 108.574 25.0881 104.163 24.3119C103.06 24.1184 101.943 24.1451 100.834 24H100.087C99.8053 24.1034 99.4962 24.1034 99.2147 24H96.718C96.7024 24.0177 96.6832 24.032 96.6616 24.0417C96.6401 24.0514 96.6168 24.0565 96.5932 24.0565C96.5695 24.0565 96.5462 24.0514 96.5247 24.0417C96.5031 24.032 96.4839 24.0177 96.4683 24H95.8458C95.1567 24.1351 94.451 24.075 93.7569 24.1668C90.1527 24.6748 86.6655 25.8128 83.4539 27.5288C82.2614 28.1617 81.115 28.8784 80.0234 29.6734C79.3577 30.1537 79.2162 30.9008 79.6107 31.5412C80.0235 32.2083 80.7092 32.4217 81.4416 32.1049C81.6489 32.0083 81.8462 31.8916 82.0308 31.7563C84.2924 30.2007 86.7656 28.9791 89.3744 28.1292C90.5495 27.7059 91.7648 27.4047 93.0012 27.2303C92.1819 28.416 91.4906 29.6855 90.939 31.0176C89.7389 33.7742 88.9416 36.6543 88.3574 39.5977C88.2725 40.0297 88.1094 40.3065 87.6434 40.4082C85.8124 40.8085 84.5142 41.8958 83.7668 43.6068C83.5388 44.1288 83.2325 44.3039 82.6783 44.3006C79.2761 44.2806 75.8723 44.3006 72.4701 44.2906C71.6629 44.2906 71.6545 44.2722 72.0091 43.5468C72.5999 42.2859 73.2767 41.0672 74.0347 39.8996C74.4009 39.3576 74.5956 38.7772 74.2012 38.1519C73.5837 37.1513 72.3586 37.213 71.6595 38.2803C69.0734 42.1726 67.3915 46.5966 66.7377 51.2264C66.6412 51.9202 66.7011 52.629 66.5713 53.3194V54.4417C66.6712 54.8097 66.6712 55.1977 66.5713 55.5657V56.6881C66.6745 56.9702 66.6745 57.2798 66.5713 57.5619V58.5625C66.6118 58.6086 66.6343 58.6679 66.6345 58.7293C66.6345 61.2975 67.2521 63.7523 68.0377 66.1688C68.9536 68.9593 70.2732 71.6001 71.9541 74.0068C72.2121 74.3804 72.2604 74.7006 72.029 75.0942C71.7939 75.4867 71.6251 75.9155 71.5297 76.3633C71.077 78.5813 71.6629 80.4674 73.4355 81.8799C75.2082 83.2924 77.2205 83.4709 79.2711 82.4469C79.7505 82.2084 80.0884 82.2568 80.5161 82.5537C82.8034 84.1195 85.2828 85.383 87.893 86.3126C92.4769 87.9803 97.2256 88.2104 102.011 87.8585C105.673 87.5884 109.135 86.5061 112.432 84.8951C116.137 83.0934 119.46 80.5923 122.219 77.529C124.089 75.4908 125.681 73.2129 126.953 70.7549C128.94 66.8609 130.222 62.7634 130.368 58.3557C130.463 55.4606 130.52 52.5789 129.951 49.7222ZM120.15 31.4895C120.692 31.4899 121.221 31.6512 121.671 31.953C122.122 32.2549 122.472 32.6837 122.679 33.1853C122.886 33.6869 122.94 34.2387 122.833 34.7709C122.727 35.3031 122.466 35.7917 122.082 36.175C121.699 36.5583 121.211 36.819 120.679 36.9242C120.148 37.0293 119.597 36.9742 119.097 36.7657C118.597 36.5573 118.17 36.2049 117.869 35.7531C117.569 35.3014 117.41 34.7706 117.411 34.2279C117.425 33.5051 117.719 32.8163 118.23 32.3058C118.741 31.7953 119.429 31.5027 120.15 31.4895ZM107.895 28.0491C110.402 28.9007 112.782 30.0889 114.97 31.5813C115.303 31.8031 115.422 31.9465 115.26 32.3967C114.513 34.4797 114.901 36.3858 116.467 37.9467C118.033 39.5077 119.902 39.8662 121.96 39.1391C122.387 38.989 122.549 39.0474 122.783 39.3993C123.854 40.992 124.774 42.6808 125.533 44.444C125.378 44.444 125.283 44.464 125.189 44.464C120.044 44.464 114.899 44.464 109.752 44.464C109.353 44.464 109.216 44.3973 109.152 43.9487C108.516 39.5177 107.599 35.1534 105.823 31.0142C105.215 29.5758 104.444 28.2121 103.526 26.9501C105.012 27.1862 106.474 27.554 107.895 28.0491ZM108.153 63.4338C108.695 63.4375 109.225 63.6027 109.674 63.9084C110.122 64.214 110.47 64.6464 110.673 65.1506C110.876 65.6548 110.925 66.2081 110.814 66.7402C110.702 67.2723 110.436 67.7593 110.048 68.1393C109.66 68.5192 109.167 68.7751 108.634 68.8743C108.1 68.9735 107.549 68.9117 107.051 68.6966C106.553 68.4815 106.129 68.1229 105.835 67.6663C105.54 67.2097 105.388 66.6757 105.396 66.1321C105.406 65.4085 105.702 64.7182 106.218 64.2124C106.735 63.7067 107.431 63.4267 108.153 63.4338ZM103.138 64.5261C103.025 64.848 102.901 64.9364 102.585 64.9347C98.5373 64.9347 94.4909 64.918 90.4446 64.9447C89.9786 64.9447 89.9453 64.7212 89.917 64.3994C89.6124 60.6888 89.4177 56.9766 89.5725 53.2527C89.5991 52.6289 89.6241 52.0052 89.6291 51.3815C89.6291 51.0613 89.679 50.8946 90.0668 50.7895C91.8661 50.3009 93.1045 49.1535 93.7286 47.3841C93.8468 47.0506 93.9899 46.9488 94.3361 46.9522C96.3685 46.9689 98.4024 46.9522 100.436 46.9522C102.434 46.9522 104.421 46.9705 106.413 46.9388C106.875 46.9388 107.018 47.0706 107.051 47.5042C107.337 51.2148 107.55 54.927 107.384 58.6526C107.356 59.2746 107.332 59.8983 107.332 60.522C107.332 60.8356 107.252 60.984 106.908 61.069C105.037 61.541 103.774 62.715 103.138 64.5261ZM90.9007 40.5984C91.5948 37.2964 92.4187 34.0327 93.9184 30.9859C94.5841 29.6251 95.3731 28.3276 96.5582 27.3353C97.8731 26.233 99.1048 26.2314 100.406 27.3487C101.904 28.6395 102.788 30.3622 103.549 32.1383C104.934 35.3669 105.744 38.7622 106.329 42.216C106.453 42.9481 106.563 43.6836 106.688 44.464H104.674C101.251 44.464 97.8276 44.464 94.4044 44.464C94.0332 44.464 93.8418 44.4106 93.702 43.9904C93.2941 42.7312 92.4047 41.6854 91.2286 41.082C91.0339 40.9836 90.8308 40.9269 90.9007 40.5984ZM88.7519 42.9698C89.2935 42.9678 89.8235 43.1268 90.2749 43.4267C90.7263 43.7265 91.0788 44.1538 91.2878 44.6544C91.4968 45.155 91.5529 45.7065 91.4491 46.2391C91.3453 46.7717 91.0861 47.2614 90.7044 47.6464C90.3227 48.0314 89.8357 48.2943 89.3048 48.4019C88.774 48.5095 88.2232 48.457 87.7221 48.2509C87.2211 48.0449 86.7923 47.6946 86.49 47.2443C86.1877 46.7941 86.0255 46.2641 86.0238 45.7214C86.0357 44.9985 86.3263 44.3083 86.8349 43.7953C87.3435 43.2823 88.0305 42.9865 88.7519 42.9698ZM70.3263 64.4377C68.6827 58.894 68.6827 52.9912 70.3263 47.4475C70.4328 47.0806 70.5843 46.9472 70.9921 46.9472C75.0378 46.9672 79.0847 46.9672 83.1327 46.9472C83.4772 46.9472 83.6653 47.0005 83.7985 47.3891C84.02 48.0946 84.3951 48.742 84.8969 49.2845C85.3986 49.827 86.0143 50.2511 86.6996 50.526C87.0941 50.6928 87.169 50.8962 87.1374 51.2631C86.9593 53.2977 87.0109 55.3356 87.0142 57.3735C87.0142 59.5981 87.1457 61.8178 87.3687 64.0308C87.4586 64.923 87.4586 64.923 86.5498 64.923H78.8933C76.2585 64.923 73.6219 64.9114 70.9871 64.9347C70.5826 64.9447 70.4345 64.8113 70.3263 64.4377ZM76.7911 80.399C76.2495 80.3964 75.7208 80.2329 75.272 79.9291C74.8232 79.6254 74.4743 79.1952 74.2696 78.6928C74.0648 78.1905 74.0134 77.6385 74.1218 77.1068C74.2301 76.5752 74.4934 76.0876 74.8784 75.7059C75.2633 75.3242 75.7526 75.0654 76.2843 74.9624C76.8161 74.8593 77.3664 74.9165 77.8657 75.1269C78.3649 75.3372 78.7907 75.6911 79.0892 76.1439C79.3876 76.5968 79.5454 77.1281 79.5424 77.6707C79.524 78.3934 79.2274 79.0809 78.7146 79.5894C78.2017 80.098 77.5125 80.3881 76.7911 80.399ZM88.5954 83.671C86.2219 82.816 83.9654 81.6645 81.8793 80.2439C81.5764 80.0405 81.5464 79.8837 81.6729 79.5535C82.4436 77.4439 82.0707 75.5228 80.4862 73.9451C78.9016 72.3675 76.9908 72.0156 74.8786 72.7778C74.6739 72.8528 74.5058 72.9846 74.3094 72.6944C73.1807 71.0402 72.2147 69.2804 71.4249 67.4395C71.5747 67.4295 71.6695 67.4195 71.7578 67.4195C76.9032 67.4195 82.0486 67.4162 87.194 67.4095C87.5901 67.4095 87.7316 67.4746 87.7948 67.9232C88.4323 72.3558 89.3478 76.7202 91.1237 80.8593C91.7319 82.3003 92.5037 83.6662 93.424 84.9301C91.7805 84.6542 90.1646 84.2329 88.5954 83.671ZM100.376 84.5699C99.0849 85.6439 97.8482 85.6522 96.5732 84.5699C95.0302 83.2541 94.1447 81.4914 93.3708 79.6719C92.0026 76.4567 91.1953 73.0829 90.6211 69.6475C90.5012 68.9321 90.3897 68.2167 90.2632 67.4295H99.0449C100.21 67.4295 101.375 67.4295 102.54 67.4295C102.858 67.4295 103.04 67.4646 103.158 67.8398C103.367 68.494 103.705 69.0995 104.152 69.6201C104.599 70.1407 105.146 70.5657 105.761 70.87C105.947 70.965 106.127 71.02 106.064 71.3169C105.293 74.9224 104.399 78.4879 102.6 81.7499C101.999 82.7988 101.317 83.7878 100.376 84.5699ZM103.572 84.8851C106.269 81.0011 107.489 76.6334 108.417 72.1607C108.529 71.6221 108.714 71.3969 109.263 71.2735C111.142 70.8549 112.394 69.6842 113.065 67.8765C113.14 67.673 113.121 67.4129 113.507 67.4145C117.489 67.4329 121.469 67.4245 125.46 67.4245C122.014 76.1798 113.216 83.4058 103.572 84.8851ZM126.623 64.4227C126.5 64.843 126.317 64.9414 125.901 64.9397C121.836 64.923 117.771 64.923 113.705 64.9397C113.353 64.9397 113.17 64.8647 113.051 64.4994C112.843 63.8119 112.485 63.1791 112.004 62.6463C111.523 62.1135 110.93 61.6939 110.268 61.4176C109.859 61.2375 109.769 61.009 109.807 60.6188C109.974 58.6076 109.935 56.5913 109.929 54.5751C109.922 52.3304 109.805 50.0913 109.576 47.8577C109.486 46.9639 109.488 46.9639 110.392 46.9639H118.048C120.683 46.9639 123.318 46.9755 125.951 46.9522C126.352 46.9522 126.518 47.0639 126.628 47.4425C128.265 52.9841 128.263 58.8821 126.623 64.4227Z" fill="url(#paint6_linear_1_129)"/>
<path d="M77.8048 34.5063C77.8085 34.6713 77.7782 34.8352 77.7158 34.9879C77.6533 35.1406 77.5602 35.2787 77.4421 35.3938C77.324 35.5088 77.1836 35.5982 77.0295 35.6564C76.8754 35.7146 76.711 35.7403 76.5465 35.732C76.3818 35.7342 76.2184 35.7028 76.0662 35.6399C75.914 35.577 75.776 35.4838 75.6608 35.3659C75.5455 35.2481 75.4552 35.108 75.3955 34.9543C75.3357 34.8005 75.3077 34.6362 75.3132 34.4713C75.3144 34.3064 75.3484 34.1434 75.413 33.9918C75.4777 33.8402 75.5717 33.7029 75.6897 33.5879C75.8076 33.473 75.9472 33.3827 76.1003 33.3222C76.2534 33.2617 76.4169 33.2322 76.5815 33.2355C76.7463 33.2343 76.9097 33.2666 77.0617 33.3306C77.2137 33.3946 77.3511 33.4889 77.4655 33.6077C77.5799 33.7266 77.669 33.8676 77.7274 34.0221C77.7857 34.1765 77.8121 34.3413 77.8048 34.5063Z" fill="url(#paint7_linear_1_129)"/>
<path d="M32.6004 119L29.8804 115.464L29.6404 115.16L26.1044 110.6H28.1844L30.8564 114.088L31.1284 114.44L34.6164 119H32.6004ZM26.1204 119L29.4324 114.68L30.4084 115.848L28.0724 119H26.1204ZM31.2244 114.936L30.3124 113.784L32.3764 110.6H34.3284L31.2244 114.936ZM41.5251 119V108.456H43.1731V119H41.5251ZM39.7811 112.2V110.6H45.1251V112.2H39.7811ZM46.6257 119V107.16H48.2737V112.328L47.9857 112.52C48.0924 112.147 48.3004 111.805 48.6097 111.496C48.9191 111.176 49.2871 110.92 49.7137 110.728C50.1404 110.525 50.5777 110.424 51.0257 110.424C51.6657 110.424 52.1991 110.552 52.6257 110.808C53.0524 111.053 53.3724 111.432 53.5857 111.944C53.7991 112.456 53.9057 113.101 53.9057 113.88V119H52.2577V113.992C52.2577 113.512 52.1937 113.117 52.0657 112.808C51.9377 112.488 51.7404 112.259 51.4737 112.12C51.2071 111.971 50.8764 111.907 50.4817 111.928C50.1617 111.928 49.8684 111.981 49.6017 112.088C49.3351 112.184 49.1004 112.323 48.8977 112.504C48.7057 112.685 48.5511 112.899 48.4337 113.144C48.3271 113.379 48.2737 113.635 48.2737 113.912V119H47.4577C47.3191 119 47.1804 119 47.0417 119C46.9031 119 46.7644 119 46.6257 119ZM59.9174 119.16C59.096 119.16 58.36 118.973 57.7094 118.6C57.0694 118.216 56.5627 117.699 56.1894 117.048C55.816 116.387 55.6294 115.635 55.6294 114.792C55.6294 113.949 55.816 113.203 56.1894 112.552C56.5627 111.891 57.0694 111.373 57.7094 111C58.36 110.616 59.096 110.424 59.9174 110.424C60.728 110.424 61.4534 110.616 62.0934 111C62.744 111.373 63.256 111.891 63.6294 112.552C64.0027 113.203 64.1894 113.949 64.1894 114.792C64.1894 115.635 64.0027 116.387 63.6294 117.048C63.256 117.699 62.744 118.216 62.0934 118.6C61.4534 118.973 60.728 119.16 59.9174 119.16ZM59.9174 117.656C60.4187 117.656 60.8667 117.533 61.2614 117.288C61.656 117.032 61.9654 116.691 62.1894 116.264C62.4134 115.827 62.52 115.336 62.5094 114.792C62.52 114.237 62.4134 113.747 62.1894 113.32C61.9654 112.883 61.656 112.541 61.2614 112.296C60.8667 112.051 60.4187 111.928 59.9174 111.928C59.416 111.928 58.9627 112.056 58.5574 112.312C58.1627 112.557 57.8534 112.899 57.6294 113.336C57.4054 113.763 57.2987 114.248 57.3094 114.792C57.2987 115.336 57.4054 115.827 57.6294 116.264C57.8534 116.691 58.1627 117.032 58.5574 117.288C58.9627 117.533 59.416 117.656 59.9174 117.656ZM68.9291 119.16C68.3318 119.16 67.8091 119.021 67.3611 118.744C66.9238 118.467 66.5825 118.077 66.3371 117.576C66.1025 117.075 65.9851 116.477 65.9851 115.784V110.6H67.6331V115.336C67.6331 115.827 67.7078 116.253 67.8571 116.616C68.0171 116.968 68.2411 117.24 68.5291 117.432C68.8278 117.624 69.1851 117.72 69.6011 117.72C69.9105 117.72 70.1931 117.672 70.4491 117.576C70.7051 117.469 70.9238 117.325 71.1051 117.144C71.2971 116.963 71.4465 116.744 71.5531 116.488C71.6598 116.232 71.7131 115.955 71.7131 115.656V110.6H73.3611V119H71.7131V117.24L72.0011 117.048C71.8731 117.443 71.6545 117.8 71.3451 118.12C71.0465 118.44 70.6891 118.696 70.2731 118.888C69.8571 119.069 69.4091 119.16 68.9291 119.16ZM78.4726 119.16C77.7686 119.16 77.134 119.037 76.5686 118.792C76.0033 118.547 75.534 118.184 75.1606 117.704L76.2806 116.744C76.6006 117.117 76.9473 117.389 77.3206 117.56C77.7046 117.72 78.1366 117.8 78.6166 117.8C78.8086 117.8 78.9846 117.779 79.1446 117.736C79.3153 117.683 79.4593 117.608 79.5766 117.512C79.7046 117.416 79.8006 117.304 79.8646 117.176C79.9286 117.037 79.9606 116.888 79.9606 116.728C79.9606 116.451 79.8593 116.227 79.6566 116.056C79.55 115.981 79.3793 115.901 79.1446 115.816C78.9206 115.72 78.6273 115.624 78.2646 115.528C77.646 115.368 77.1393 115.187 76.7446 114.984C76.35 114.781 76.046 114.552 75.8326 114.296C75.6726 114.093 75.5553 113.875 75.4806 113.64C75.406 113.395 75.3686 113.128 75.3686 112.84C75.3686 112.488 75.4433 112.168 75.5926 111.88C75.7526 111.581 75.966 111.325 76.2326 111.112C76.51 110.888 76.83 110.717 77.1926 110.6C77.566 110.483 77.9606 110.424 78.3766 110.424C78.7713 110.424 79.1606 110.477 79.5446 110.584C79.9393 110.691 80.302 110.845 80.6326 111.048C80.9633 111.251 81.2406 111.491 81.4646 111.768L80.5206 112.808C80.318 112.605 80.094 112.429 79.8486 112.28C79.614 112.12 79.374 111.997 79.1286 111.912C78.8833 111.827 78.6593 111.784 78.4566 111.784C78.2326 111.784 78.03 111.805 77.8486 111.848C77.6673 111.891 77.5126 111.955 77.3846 112.04C77.2673 112.125 77.1766 112.232 77.1126 112.36C77.0486 112.488 77.0166 112.632 77.0166 112.792C77.0273 112.931 77.0593 113.064 77.1126 113.192C77.1766 113.309 77.262 113.411 77.3686 113.496C77.486 113.581 77.662 113.672 77.8966 113.768C78.1313 113.864 78.43 113.955 78.7926 114.04C79.326 114.179 79.7633 114.333 80.1046 114.504C80.4566 114.664 80.734 114.851 80.9366 115.064C81.15 115.267 81.2993 115.501 81.3846 115.768C81.47 116.035 81.5126 116.333 81.5126 116.664C81.5126 117.144 81.374 117.576 81.0966 117.96C80.83 118.333 80.4673 118.627 80.0086 118.84C79.55 119.053 79.038 119.16 78.4726 119.16ZM86.5609 119.16C85.8675 119.16 85.2329 118.968 84.6569 118.584C84.0915 118.2 83.6382 117.677 83.2969 117.016C82.9555 116.355 82.7849 115.608 82.7849 114.776C82.7849 113.933 82.9555 113.187 83.2969 112.536C83.6489 111.875 84.1182 111.357 84.7049 110.984C85.3022 110.611 85.9689 110.424 86.7049 110.424C87.1422 110.424 87.5422 110.488 87.9049 110.616C88.2675 110.744 88.5822 110.925 88.8489 111.16C89.1262 111.384 89.3502 111.645 89.5209 111.944C89.7022 112.243 89.8142 112.563 89.8569 112.904L89.4889 112.776V110.6H91.1529V119H89.4889V117L89.8729 116.888C89.8089 117.176 89.6755 117.459 89.4729 117.736C89.2809 118.003 89.0302 118.243 88.7209 118.456C88.4222 118.669 88.0862 118.84 87.7129 118.968C87.3502 119.096 86.9662 119.16 86.5609 119.16ZM86.9929 117.64C87.4942 117.64 87.9369 117.517 88.3209 117.272C88.7049 117.027 89.0035 116.691 89.2169 116.264C89.4409 115.827 89.5529 115.331 89.5529 114.776C89.5529 114.232 89.4409 113.747 89.2169 113.32C89.0035 112.893 88.7049 112.557 88.3209 112.312C87.9369 112.067 87.4942 111.944 86.9929 111.944C86.5022 111.944 86.0649 112.067 85.6809 112.312C85.3075 112.557 85.0089 112.893 84.7849 113.32C84.5715 113.747 84.4649 114.232 84.4649 114.776C84.4649 115.331 84.5715 115.827 84.7849 116.264C85.0089 116.691 85.3075 117.027 85.6809 117.272C86.0649 117.517 86.5022 117.64 86.9929 117.64ZM93.4539 119V110.6H95.1019V112.328L94.8139 112.52C94.9205 112.147 95.1285 111.805 95.4379 111.496C95.7472 111.176 96.1152 110.92 96.5419 110.728C96.9685 110.525 97.4059 110.424 97.8539 110.424C98.4939 110.424 99.0272 110.552 99.4539 110.808C99.8805 111.053 100.201 111.432 100.414 111.944C100.627 112.456 100.734 113.101 100.734 113.88V119H99.0859V113.992C99.0859 113.512 99.0219 113.117 98.8939 112.808C98.7659 112.488 98.5685 112.259 98.3019 112.12C98.0352 111.971 97.7045 111.907 97.3099 111.928C96.9899 111.928 96.6965 111.981 96.4299 112.088C96.1632 112.184 95.9285 112.323 95.7259 112.504C95.5339 112.685 95.3792 112.899 95.2619 113.144C95.1552 113.379 95.1019 113.635 95.1019 113.912V119H94.2859C94.1472 119 94.0085 119 93.8699 119C93.7312 119 93.5925 119 93.4539 119ZM106.473 119.16C105.705 119.16 105.017 118.973 104.409 118.6C103.812 118.216 103.337 117.699 102.985 117.048C102.633 116.387 102.457 115.635 102.457 114.792C102.457 113.949 102.628 113.203 102.969 112.552C103.321 111.891 103.796 111.373 104.393 111C104.991 110.616 105.668 110.424 106.425 110.424C106.841 110.424 107.241 110.493 107.625 110.632C108.02 110.76 108.372 110.941 108.681 111.176C108.991 111.4 109.231 111.651 109.401 111.928C109.583 112.195 109.673 112.467 109.673 112.744L109.193 112.776V107.16H110.841V119H109.193V117H109.513C109.513 117.256 109.428 117.512 109.257 117.768C109.087 118.013 108.857 118.243 108.569 118.456C108.292 118.669 107.967 118.84 107.593 118.968C107.231 119.096 106.857 119.16 106.473 119.16ZM106.697 117.736C107.199 117.736 107.641 117.608 108.025 117.352C108.409 117.096 108.708 116.749 108.921 116.312C109.145 115.864 109.257 115.357 109.257 114.792C109.257 114.227 109.145 113.725 108.921 113.288C108.708 112.84 108.409 112.488 108.025 112.232C107.641 111.976 107.199 111.848 106.697 111.848C106.196 111.848 105.753 111.976 105.369 112.232C104.985 112.488 104.681 112.84 104.457 113.288C104.244 113.725 104.137 114.227 104.137 114.792C104.137 115.357 104.244 115.864 104.457 116.312C104.681 116.749 104.985 117.096 105.369 117.352C105.753 117.608 106.196 117.736 106.697 117.736ZM115.91 119.16C115.206 119.16 114.571 119.037 114.006 118.792C113.441 118.547 112.971 118.184 112.598 117.704L113.718 116.744C114.038 117.117 114.385 117.389 114.758 117.56C115.142 117.72 115.574 117.8 116.054 117.8C116.246 117.8 116.422 117.779 116.582 117.736C116.753 117.683 116.897 117.608 117.014 117.512C117.142 117.416 117.238 117.304 117.302 117.176C117.366 117.037 117.398 116.888 117.398 116.728C117.398 116.451 117.297 116.227 117.094 116.056C116.987 115.981 116.817 115.901 116.582 115.816C116.358 115.72 116.065 115.624 115.702 115.528C115.083 115.368 114.577 115.187 114.182 114.984C113.787 114.781 113.483 114.552 113.27 114.296C113.11 114.093 112.993 113.875 112.918 113.64C112.843 113.395 112.806 113.128 112.806 112.84C112.806 112.488 112.881 112.168 113.03 111.88C113.19 111.581 113.403 111.325 113.67 111.112C113.947 110.888 114.267 110.717 114.63 110.6C115.003 110.483 115.398 110.424 115.814 110.424C116.209 110.424 116.598 110.477 116.982 110.584C117.377 110.691 117.739 110.845 118.07 111.048C118.401 111.251 118.678 111.491 118.902 111.768L117.958 112.808C117.755 112.605 117.531 112.429 117.286 112.28C117.051 112.12 116.811 111.997 116.566 111.912C116.321 111.827 116.097 111.784 115.894 111.784C115.67 111.784 115.467 111.805 115.286 111.848C115.105 111.891 114.95 111.955 114.822 112.04C114.705 112.125 114.614 112.232 114.55 112.36C114.486 112.488 114.454 112.632 114.454 112.792C114.465 112.931 114.497 113.064 114.55 113.192C114.614 113.309 114.699 113.411 114.806 113.496C114.923 113.581 115.099 113.672 115.334 113.768C115.569 113.864 115.867 113.955 116.23 114.04C116.763 114.179 117.201 114.333 117.542 114.504C117.894 114.664 118.171 114.851 118.374 115.064C118.587 115.267 118.737 115.501 118.822 115.768C118.907 116.035 118.95 116.333 118.95 116.664C118.95 117.144 118.811 117.576 118.534 117.96C118.267 118.333 117.905 118.627 117.446 118.84C116.987 119.053 116.475 119.16 115.91 119.16ZM128.195 119.16C127.597 119.16 127.075 119.021 126.627 118.744C126.189 118.467 125.848 118.077 125.603 117.576C125.368 117.075 125.251 116.477 125.251 115.784V110.6H126.899V115.336C126.899 115.827 126.973 116.253 127.123 116.616C127.283 116.968 127.507 117.24 127.795 117.432C128.093 117.624 128.451 117.72 128.867 117.72C129.176 117.72 129.459 117.672 129.715 117.576C129.971 117.469 130.189 117.325 130.371 117.144C130.563 116.963 130.712 116.744 130.819 116.488C130.925 116.232 130.979 115.955 130.979 115.656V110.6H132.627V119H130.979V117.24L131.267 117.048C131.139 117.443 130.92 117.8 130.611 118.12C130.312 118.44 129.955 118.696 129.539 118.888C129.123 119.069 128.675 119.16 128.195 119.16ZM133.978 119V110.6H135.626V112.328L135.338 112.52C135.445 112.147 135.653 111.805 135.962 111.496C136.272 111.176 136.64 110.92 137.066 110.728C137.493 110.525 137.93 110.424 138.378 110.424C139.018 110.424 139.552 110.552 139.978 110.808C140.405 111.053 140.725 111.432 140.938 111.944C141.152 112.456 141.258 113.101 141.258 113.88V119H139.61V113.992C139.61 113.512 139.546 113.117 139.418 112.808C139.29 112.488 139.093 112.259 138.826 112.12C138.56 111.971 138.229 111.907 137.834 111.928C137.514 111.928 137.221 111.981 136.954 112.088C136.688 112.184 136.453 112.323 136.25 112.504C136.058 112.685 135.904 112.899 135.786 113.144C135.68 113.379 135.626 113.635 135.626 113.912V119H134.81C134.672 119 134.533 119 134.394 119C134.256 119 134.117 119 133.978 119ZM142.806 119V110.6H144.454V119H142.806ZM143.606 108.744C143.254 108.744 142.982 108.653 142.79 108.472C142.598 108.291 142.502 108.035 142.502 107.704C142.502 107.395 142.598 107.144 142.79 106.952C142.993 106.76 143.265 106.664 143.606 106.664C143.958 106.664 144.23 106.755 144.422 106.936C144.614 107.117 144.71 107.373 144.71 107.704C144.71 108.013 144.609 108.264 144.406 108.456C144.214 108.648 143.947 108.744 143.606 108.744ZM152.155 122.52V117H152.475C152.475 117.256 152.39 117.512 152.219 117.768C152.048 118.013 151.819 118.243 151.531 118.456C151.243 118.669 150.923 118.84 150.571 118.968C150.219 119.096 149.856 119.16 149.483 119.16C148.726 119.16 148.048 118.973 147.451 118.6C146.854 118.216 146.379 117.699 146.027 117.048C145.686 116.387 145.515 115.635 145.515 114.792C145.515 113.949 145.686 113.203 146.027 112.552C146.368 111.891 146.832 111.373 147.419 111C148.016 110.616 148.688 110.424 149.435 110.424C149.851 110.424 150.246 110.493 150.619 110.632C151.003 110.771 151.344 110.952 151.643 111.176C151.952 111.4 152.192 111.651 152.363 111.928C152.544 112.195 152.635 112.467 152.635 112.744L152.155 112.776V110.584H153.803V122.52H152.155ZM149.659 117.64C150.16 117.64 150.603 117.517 150.987 117.272C151.371 117.027 151.67 116.691 151.883 116.264C152.107 115.837 152.219 115.347 152.219 114.792C152.219 114.237 152.107 113.747 151.883 113.32C151.67 112.883 151.371 112.541 150.987 112.296C150.603 112.051 150.16 111.928 149.659 111.928C149.158 111.928 148.715 112.056 148.331 112.312C147.947 112.557 147.643 112.899 147.419 113.336C147.206 113.763 147.099 114.248 147.099 114.792C147.099 115.336 147.206 115.827 147.419 116.264C147.643 116.691 147.947 117.027 148.331 117.272C148.715 117.517 149.158 117.64 149.659 117.64ZM158.089 119.16C157.492 119.16 156.969 119.021 156.521 118.744C156.084 118.467 155.742 118.077 155.497 117.576C155.262 117.075 155.145 116.477 155.145 115.784V110.6H156.793V115.336C156.793 115.827 156.868 116.253 157.017 116.616C157.177 116.968 157.401 117.24 157.689 117.432C157.988 117.624 158.345 117.72 158.761 117.72C159.07 117.72 159.353 117.672 159.609 117.576C159.865 117.469 160.084 117.325 160.265 117.144C160.457 116.963 160.606 116.744 160.713 116.488C160.82 116.232 160.873 115.955 160.873 115.656V110.6H162.521V119H160.873V117.24L161.161 117.048C161.033 117.443 160.814 117.8 160.505 118.12C160.206 118.44 159.849 118.696 159.433 118.888C159.017 119.069 158.569 119.16 158.089 119.16ZM167.793 119.16C166.929 119.16 166.161 118.979 165.489 118.616C164.827 118.243 164.305 117.736 163.921 117.096C163.547 116.456 163.361 115.72 163.361 114.888C163.361 114.227 163.467 113.624 163.681 113.08C163.894 112.536 164.187 112.067 164.561 111.672C164.945 111.267 165.398 110.957 165.921 110.744C166.454 110.52 167.03 110.408 167.649 110.408C168.193 110.408 168.699 110.515 169.169 110.728C169.638 110.931 170.043 111.213 170.385 111.576C170.737 111.939 171.003 112.371 171.185 112.872C171.377 113.363 171.467 113.901 171.457 114.488L171.441 115.192H164.577L164.209 113.88H170.017L169.777 114.152V113.768C169.745 113.416 169.627 113.101 169.425 112.824C169.222 112.547 168.966 112.328 168.657 112.168C168.347 112.008 168.011 111.928 167.649 111.928C167.073 111.928 166.587 112.04 166.193 112.264C165.798 112.477 165.499 112.797 165.297 113.224C165.094 113.64 164.993 114.157 164.993 114.776C164.993 115.363 165.115 115.875 165.361 116.312C165.606 116.739 165.953 117.069 166.401 117.304C166.849 117.539 167.366 117.656 167.953 117.656C168.369 117.656 168.753 117.587 169.105 117.448C169.467 117.309 169.857 117.059 170.273 116.696L171.105 117.864C170.849 118.12 170.534 118.344 170.161 118.536C169.798 118.728 169.409 118.883 168.993 119C168.587 119.107 168.187 119.16 167.793 119.16ZM54.5754 137L51.7114 128.6L53.3754 128.584L55.4234 134.872L55.0554 134.84L57.2794 129.928H58.2714L60.5114 134.856L60.0794 134.888L62.1434 128.6H63.8074L60.9754 137H59.8394L57.5034 131.656L57.8714 131.704L55.6954 137H54.5754ZM68.8499 137.16C68.0285 137.16 67.2925 136.973 66.6419 136.6C66.0019 136.216 65.4952 135.699 65.1219 135.048C64.7485 134.387 64.5619 133.635 64.5619 132.792C64.5619 131.949 64.7485 131.203 65.1219 130.552C65.4952 129.891 66.0019 129.373 66.6419 129C67.2925 128.616 68.0285 128.424 68.8499 128.424C69.6605 128.424 70.3859 128.616 71.0259 129C71.6765 129.373 72.1885 129.891 72.5619 130.552C72.9352 131.203 73.1219 131.949 73.1219 132.792C73.1219 133.635 72.9352 134.387 72.5619 135.048C72.1885 135.699 71.6765 136.216 71.0259 136.6C70.3859 136.973 69.6605 137.16 68.8499 137.16ZM68.8499 135.656C69.3512 135.656 69.7992 135.533 70.1939 135.288C70.5885 135.032 70.8979 134.691 71.1219 134.264C71.3459 133.827 71.4525 133.336 71.4419 132.792C71.4525 132.237 71.3459 131.747 71.1219 131.32C70.8979 130.883 70.5885 130.541 70.1939 130.296C69.7992 130.051 69.3512 129.928 68.8499 129.928C68.3485 129.928 67.8952 130.056 67.4899 130.312C67.0952 130.557 66.7859 130.899 66.5619 131.336C66.3379 131.763 66.2312 132.248 66.2419 132.792C66.2312 133.336 66.3379 133.827 66.5619 134.264C66.7859 134.691 67.0952 135.032 67.4899 135.288C67.8952 135.533 68.3485 135.656 68.8499 135.656ZM74.9176 137V128.6H76.5816V131.24L76.4216 130.6C76.539 130.195 76.7363 129.827 77.0136 129.496C77.3016 129.165 77.627 128.904 77.9896 128.712C78.363 128.52 78.747 128.424 79.1416 128.424C79.323 128.424 79.4936 128.44 79.6536 128.472C79.8243 128.504 79.9576 128.541 80.0536 128.584L79.6216 130.376C79.4936 130.323 79.3496 130.28 79.1896 130.248C79.0403 130.205 78.891 130.184 78.7416 130.184C78.4536 130.184 78.1763 130.243 77.9096 130.36C77.6536 130.467 77.4243 130.621 77.2216 130.824C77.0296 131.016 76.875 131.245 76.7576 131.512C76.6403 131.768 76.5816 132.051 76.5816 132.36V137H74.9176ZM81.4028 137V125.16H83.0508V137H81.4028ZM88.7341 137.16C87.9661 137.16 87.2781 136.973 86.6701 136.6C86.0728 136.216 85.5981 135.699 85.2461 135.048C84.8941 134.387 84.7181 133.635 84.7181 132.792C84.7181 131.949 84.8888 131.203 85.2301 130.552C85.5821 129.891 86.0568 129.373 86.6541 129C87.2515 128.616 87.9288 128.424 88.6861 128.424C89.1021 128.424 89.5021 128.493 89.8861 128.632C90.2808 128.76 90.6328 128.941 90.9421 129.176C91.2515 129.4 91.4915 129.651 91.6621 129.928C91.8435 130.195 91.9341 130.467 91.9341 130.744L91.4541 130.776V125.16H93.1021V137H91.4541V135H91.7741C91.7741 135.256 91.6888 135.512 91.5181 135.768C91.3475 136.013 91.1181 136.243 90.8301 136.456C90.5528 136.669 90.2275 136.84 89.8541 136.968C89.4915 137.096 89.1181 137.16 88.7341 137.16ZM88.9581 135.736C89.4595 135.736 89.9021 135.608 90.2861 135.352C90.6701 135.096 90.9688 134.749 91.1821 134.312C91.4061 133.864 91.5181 133.357 91.5181 132.792C91.5181 132.227 91.4061 131.725 91.1821 131.288C90.9688 130.84 90.6701 130.488 90.2861 130.232C89.9021 129.976 89.4595 129.848 88.9581 129.848C88.4568 129.848 88.0141 129.976 87.6301 130.232C87.2461 130.488 86.9421 130.84 86.7181 131.288C86.5048 131.725 86.3981 132.227 86.3981 132.792C86.3981 133.357 86.5048 133.864 86.7181 134.312C86.9421 134.749 87.2461 135.096 87.6301 135.352C88.0141 135.608 88.4568 135.736 88.9581 135.736ZM98.1708 137.16C97.4668 137.16 96.8321 137.037 96.2668 136.792C95.7014 136.547 95.2321 136.184 94.8588 135.704L95.9788 134.744C96.2988 135.117 96.6454 135.389 97.0188 135.56C97.4028 135.72 97.8348 135.8 98.3148 135.8C98.5068 135.8 98.6828 135.779 98.8428 135.736C99.0134 135.683 99.1574 135.608 99.2748 135.512C99.4028 135.416 99.4988 135.304 99.5628 135.176C99.6268 135.037 99.6588 134.888 99.6588 134.728C99.6588 134.451 99.5574 134.227 99.3548 134.056C99.2481 133.981 99.0774 133.901 98.8428 133.816C98.6188 133.72 98.3254 133.624 97.9628 133.528C97.3441 133.368 96.8374 133.187 96.4428 132.984C96.0481 132.781 95.7441 132.552 95.5308 132.296C95.3708 132.093 95.2534 131.875 95.1788 131.64C95.1041 131.395 95.0668 131.128 95.0668 130.84C95.0668 130.488 95.1414 130.168 95.2908 129.88C95.4508 129.581 95.6641 129.325 95.9308 129.112C96.2081 128.888 96.5281 128.717 96.8908 128.6C97.2641 128.483 97.6588 128.424 98.0748 128.424C98.4694 128.424 98.8588 128.477 99.2428 128.584C99.6374 128.691 100 128.845 100.331 129.048C100.661 129.251 100.939 129.491 101.163 129.768L100.219 130.808C100.016 130.605 99.7921 130.429 99.5468 130.28C99.3121 130.12 99.0721 129.997 98.8268 129.912C98.5814 129.827 98.3574 129.784 98.1548 129.784C97.9308 129.784 97.7281 129.805 97.5468 129.848C97.3654 129.891 97.2108 129.955 97.0828 130.04C96.9654 130.125 96.8748 130.232 96.8108 130.36C96.7468 130.488 96.7148 130.632 96.7148 130.792C96.7254 130.931 96.7574 131.064 96.8108 131.192C96.8748 131.309 96.9601 131.411 97.0668 131.496C97.1841 131.581 97.3601 131.672 97.5948 131.768C97.8294 131.864 98.1281 131.955 98.4908 132.04C99.0241 132.179 99.4614 132.333 99.8028 132.504C100.155 132.664 100.432 132.851 100.635 133.064C100.848 133.267 100.997 133.501 101.083 133.768C101.168 134.035 101.211 134.333 101.211 134.664C101.211 135.144 101.072 135.576 100.795 135.96C100.528 136.333 100.165 136.627 99.7068 136.84C99.2481 137.053 98.7361 137.16 98.1708 137.16ZM107.479 137V128.6H109.143V130.392L108.839 130.584C108.925 130.307 109.058 130.04 109.239 129.784C109.431 129.528 109.661 129.304 109.927 129.112C110.205 128.909 110.498 128.749 110.807 128.632C111.127 128.515 111.453 128.456 111.783 128.456C112.263 128.456 112.685 128.536 113.047 128.696C113.41 128.856 113.709 129.096 113.943 129.416C114.178 129.736 114.349 130.136 114.455 130.616L114.199 130.552L114.311 130.28C114.429 130.035 114.589 129.805 114.791 129.592C115.005 129.368 115.245 129.171 115.511 129C115.778 128.829 116.061 128.696 116.359 128.6C116.658 128.504 116.951 128.456 117.239 128.456C117.869 128.456 118.386 128.584 118.791 128.84C119.207 129.096 119.517 129.485 119.719 130.008C119.933 130.531 120.039 131.181 120.039 131.96V137H118.375V132.056C118.375 131.576 118.311 131.187 118.183 130.888C118.066 130.579 117.885 130.349 117.639 130.2C117.394 130.051 117.079 129.976 116.695 129.976C116.397 129.976 116.114 130.029 115.847 130.136C115.591 130.232 115.367 130.371 115.175 130.552C114.983 130.733 114.834 130.947 114.727 131.192C114.621 131.427 114.567 131.688 114.567 131.976V137H112.903V132.024C112.903 131.587 112.839 131.219 112.711 130.92C112.583 130.611 112.397 130.376 112.151 130.216C111.906 130.056 111.607 129.976 111.255 129.976C110.957 129.976 110.679 130.029 110.423 130.136C110.167 130.232 109.943 130.371 109.751 130.552C109.559 130.723 109.41 130.931 109.303 131.176C109.197 131.411 109.143 131.667 109.143 131.944V137H107.479ZM122.518 137V128.6H124.166V137H122.518ZM123.318 126.744C122.966 126.744 122.694 126.653 122.502 126.472C122.31 126.291 122.214 126.035 122.214 125.704C122.214 125.395 122.31 125.144 122.502 124.952C122.704 124.76 122.976 124.664 123.318 124.664C123.67 124.664 123.942 124.755 124.134 124.936C124.326 125.117 124.422 125.373 124.422 125.704C124.422 126.013 124.32 126.264 124.118 126.456C123.926 126.648 123.659 126.744 123.318 126.744ZM126.699 137V128.6H128.347V130.328L128.059 130.52C128.166 130.147 128.374 129.805 128.683 129.496C128.992 129.176 129.36 128.92 129.787 128.728C130.214 128.525 130.651 128.424 131.099 128.424C131.739 128.424 132.272 128.552 132.699 128.808C133.126 129.053 133.446 129.432 133.659 129.944C133.872 130.456 133.979 131.101 133.979 131.88V137H132.331V131.992C132.331 131.512 132.267 131.117 132.139 130.808C132.011 130.488 131.814 130.259 131.547 130.12C131.28 129.971 130.95 129.907 130.555 129.928C130.235 129.928 129.942 129.981 129.675 130.088C129.408 130.184 129.174 130.323 128.971 130.504C128.779 130.685 128.624 130.899 128.507 131.144C128.4 131.379 128.347 131.635 128.347 131.912V137H127.531C127.392 137 127.254 137 127.115 137C126.976 137 126.838 137 126.699 137ZM137.255 137V126.456H138.903V137H137.255ZM135.511 130.2V128.6H140.855V130.2H135.511Z" fill="#444444"/>
<rect x="1" y="1" width="195" height="178" rx="9" stroke="url(#paint8_linear_1_129)" stroke-width="2"/>
<defs>
<filter id="filter0_f_1_129" x="-74.2851" y="98.7149" width="212.57" height="182.57" filterUnits="userSpaceOnUse" color-interpolation-filters="sRGB">
<feFlood flood-opacity="0" result="BackgroundImageFix"/>
<feBlend mode="normal" in="SourceGraphic" in2="BackgroundImageFix" result="shape"/>
<feGaussianBlur stdDeviation="17.6425" result="effect1_foregroundBlur_1_129"/>
</filter>
<filter id="filter1_f_1_129" x="94.5367" y="-65.0067" width="167.258" height="258.423" filterUnits="userSpaceOnUse" color-interpolation-filters="sRGB">
<feFlood flood-opacity="0" result="BackgroundImageFix"/>
<feBlend mode="normal" in="SourceGraphic" in2="BackgroundImageFix" result="shape"/>
<feGaussianBlur stdDeviation="17.6425" result="effect1_foregroundBlur_1_129"/>
</filter>
<linearGradient id="paint0_linear_1_129" x1="57.8896" y1="121.883" x2="57.8896" y2="214.856" gradientUnits="userSpaceOnUse">
<stop stop-color="#FCA9C7"/>
<stop offset="1" stop-color="#DFA1ED"/>
</linearGradient>
<linearGradient id="paint1_linear_1_129" x1="215.448" y1="48.7958" x2="127.834" y2="79.9845" gradientUnits="userSpaceOnUse">
<stop stop-color="#8279E3"/>
<stop offset="1" stop-color="#7061A3" stop-opacity="0.14"/>
</linearGradient>
<linearGradient id="paint2_linear_1_129" x1="66.6141" y1="54.5753" x2="66.8142" y2="54.6011" gradientUnits="userSpaceOnUse">
<stop stop-color="#FCA9C7"/>
<stop offset="1" stop-color="#8279E3"/>
</linearGradient>
<linearGradient id="paint3_linear_1_129" x1="99.376" y1="24.0167" x2="99.4104" y2="24.2158" gradientUnits="userSpaceOnUse">
<stop stop-color="#FCA9C7"/>
<stop offset="1" stop-color="#8279E3"/>
</linearGradient>
<linearGradient id="paint4_linear_1_129" x1="66.6136" y1="56.7929" x2="66.8074" y2="56.8244" gradientUnits="userSpaceOnUse">
<stop stop-color="#FCA9C7"/>
<stop offset="1" stop-color="#8279E3"/>
</linearGradient>
<linearGradient id="paint5_linear_1_129" x1="96.5271" y1="24.0125" x2="96.5843" y2="24.1394" gradientUnits="userSpaceOnUse">
<stop stop-color="#FCA9C7"/>
<stop offset="1" stop-color="#8279E3"/>
</linearGradient>
<linearGradient id="paint6_linear_1_129" x1="77.7603" y1="31.3143" x2="122.557" y2="74.6524" gradientUnits="userSpaceOnUse">
<stop stop-color="#FCA9C7"/>
<stop offset="1" stop-color="#8279E3"/>
</linearGradient>
<linearGradient id="paint7_linear_1_129" x1="75.7494" y1="33.5208" x2="77.4981" y2="35.2131" gradientUnits="userSpaceOnUse">
<stop stop-color="#FCA9C7"/>
<stop offset="1" stop-color="#8279E3"/>
</linearGradient>
<linearGradient id="paint8_linear_1_129" x1="-4.27689e-06" y1="5.49899" x2="222.093" y2="137.913" gradientUnits="userSpaceOnUse">
<stop stop-color="#7598EC"/>
<stop offset="0.34375" stop-color="#8279E3"/>
<stop offset="0.682292" stop-color="#DFA1ED"/>
<stop offset="1" stop-color="#FFCDEA"/>
</linearGradient>
<clipPath id="clip0_1_129">
<rect width="197" height="180" rx="10" fill="white"/>
</clipPath>
</defs>
</svg>
