<svg width="197" height="293" viewBox="0 0 197 293" fill="none" xmlns="http://www.w3.org/2000/svg">
<circle r="12.3488" transform="matrix(1 0 0 -1 98.3488 280.253)" fill="#7598EC" fill-opacity="0.27"/>
<circle r="6.17442" transform="matrix(1 0 0 -1 98.3487 279.481)" fill="#8279E3"/>
<line y1="-0.5" x2="164.394" y2="-0.5" transform="matrix(0 1 1 0 98.3491 112)" stroke="#8279E3" stroke-dasharray="2 2"/>
<rect x="1" y="1" width="195" height="178" rx="9" fill="#F1F1F1"/>
<g opacity="0.2">
<g clip-path="url(#clip0_1_131)">
<g filter="url(#filter0_f_1_131)">
<path d="M101.695 234.589C101.695 260.263 76.1216 234.589 11.7146 234.589C-52.6925 234.589 -37.4194 168.47 -37.4194 142.797C-37.4194 117.123 -13.0301 155.817 51.377 155.817C115.784 155.817 101.695 208.916 101.695 234.589Z" fill="url(#paint0_linear_1_131)"/>
</g>
<g filter="url(#filter1_f_1_131)">
<path d="M204.674 157.186C180.48 165.798 182.419 114.051 164.176 62.8016C145.932 11.552 114.413 -19.7931 138.607 -28.4056C162.801 -37.0182 197.204 -2.45392 215.448 48.7958C233.692 100.045 228.868 148.573 204.674 157.186Z" fill="url(#paint1_linear_1_131)"/>
</g>
</g>
</g>
<path d="M123.953 64.7285C123.624 64.5501 123.288 64.4822 123.291 63.9374C123.319 58.6323 123.309 53.3272 123.303 48.0202C123.281 47.8821 123.309 47.7405 123.383 47.6216C123.456 47.5026 123.57 47.4142 123.704 47.3726C124.362 47.0755 124.952 46.6446 125.436 46.1071C125.919 45.5697 126.286 44.9375 126.513 44.2506C126.74 43.5636 126.822 42.8369 126.755 42.1165C126.687 41.3961 126.47 40.6976 126.119 40.0654C125.767 39.4332 125.289 38.881 124.713 38.4438C124.138 38.0066 123.478 37.694 122.775 37.5257C122.073 37.3573 121.343 37.337 120.633 37.466C119.922 37.595 119.246 37.8704 118.647 38.2749C118.246 38.5464 117.983 38.5444 117.571 38.3021C113.42 35.8725 109.275 33.4313 105.079 31.0813C104.063 30.5112 103.593 29.9063 103.511 28.6925C103.291 25.3671 99.8885 23.2129 96.738 24.2716C94.4834 25.0297 93.1519 26.9861 93.1094 29.5553C93.1094 29.8733 93.1926 30.1835 92.7901 30.4181C88.2345 33.0668 83.6873 35.7316 79.1485 38.4126C79.0472 38.4926 78.9207 38.5336 78.7919 38.5283C78.663 38.523 78.5403 38.4716 78.446 38.3835C77.4873 37.6772 76.3133 37.3269 75.1251 37.3927C72.8493 37.4586 70.7302 39.2366 70.2541 41.5246C69.778 43.8126 70.9469 46.3333 73.0389 47.2737C73.5363 47.4987 73.6195 47.774 73.6195 48.2432C73.6079 53.3777 73.6079 58.5134 73.6195 63.6504C73.6195 64.2069 73.4705 64.4803 72.9576 64.7401C72.3302 65.0677 71.7757 65.5197 71.3278 66.0684C70.8799 66.6172 70.5479 67.2514 70.3519 67.9326C70.1559 68.6137 70.1001 69.3277 70.1877 70.0311C70.2753 70.7346 70.5047 71.4129 70.8618 72.0249C72.1313 74.1713 75.6341 75.6469 78.2815 73.6711C78.6685 73.3763 78.9047 73.5062 79.2278 73.6924C83.5551 76.2131 87.8745 78.7337 92.2308 81.1982C93.0049 81.6345 93.2719 82.094 93.2758 82.9704C93.2758 86.1678 96.4438 88.5935 99.5537 87.8722C102.126 87.273 103.618 85.3224 103.687 82.4992C103.687 82.1599 103.612 81.8303 104.04 81.586C108.651 78.9412 113.252 76.279 117.844 73.5993C117.955 73.5136 118.094 73.4713 118.234 73.4802C118.374 73.4891 118.507 73.5486 118.606 73.6478C119.497 74.3171 120.59 74.6594 121.703 74.6173C122.505 74.6346 123.297 74.4436 124.004 74.0627C125.817 73.1437 126.8 71.6623 126.85 69.6166C126.901 67.3907 125.873 65.7833 123.953 64.7285ZM121.693 40.879C121.91 40.8774 122.125 40.9193 122.325 41.0023C122.525 41.0853 122.707 41.2077 122.859 41.3623C123.011 41.5168 123.131 41.7004 123.211 41.9021C123.292 42.1039 123.331 42.3197 123.326 42.5368C123.317 42.9879 123.131 43.4174 122.81 43.7333C122.488 44.0493 122.056 44.2267 121.606 44.2276C121.156 44.2197 120.727 44.0376 120.408 43.7195C120.089 43.4014 119.905 42.972 119.895 42.5213C119.885 41.544 120.607 40.879 121.693 40.879ZM98.47 27.5136C98.8133 27.5136 99.149 27.6153 99.4348 27.8059C99.7206 27.9964 99.9438 28.2674 100.076 28.5847C100.209 28.902 100.245 29.2515 100.18 29.5892C100.115 29.927 99.9517 30.2379 99.7108 30.483C99.47 30.7281 99.1622 30.8964 98.8261 30.9668C98.4901 31.0372 98.1407 31.0065 97.822 30.8785C97.5033 30.7506 97.2295 30.5312 97.0349 30.2478C96.8403 29.9644 96.7336 29.6297 96.7283 29.2858C96.7411 28.8248 96.9281 28.3859 97.2513 28.0577C97.5746 27.7295 98.0102 27.5364 98.47 27.5174V27.5136ZM75.3419 40.8925C76.2166 40.8712 77.0468 41.7244 77.0333 42.6376C77.0161 43.0885 76.8276 43.5157 76.5063 43.8318C76.185 44.1479 75.7553 44.329 75.3051 44.3381C75.0879 44.3377 74.873 44.2936 74.6731 44.2085C74.4732 44.1234 74.2924 43.9989 74.1413 43.8426C73.9903 43.6862 73.8721 43.501 73.7938 43.298C73.7155 43.0951 73.6786 42.8784 73.6853 42.6609C73.6777 42.2078 73.8464 41.7695 74.1555 41.4388C74.4647 41.108 74.8901 40.9108 75.3419 40.8887V40.8925ZM75.3419 71.1058C75.1198 71.1065 74.8996 71.0635 74.6941 70.979C74.4886 70.8945 74.3018 70.7704 74.1442 70.6135C73.9866 70.4567 73.8613 70.2703 73.7756 70.065C73.6899 69.8597 73.6454 69.6395 73.6447 69.4169C73.6439 69.1944 73.6869 68.9739 73.7712 68.768C73.8555 68.5621 73.9794 68.3748 74.136 68.2169C74.2925 68.059 74.4785 67.9335 74.6834 67.8477C74.8883 67.7618 75.1081 67.7172 75.3303 67.7164C75.5534 67.7154 75.7745 67.7585 75.9809 67.8433C76.1874 67.9281 76.3751 68.0529 76.5333 68.2105C76.6915 68.3681 76.8171 68.5555 76.9029 68.7618C76.9887 68.9682 77.033 69.1895 77.0333 69.4131C77.0389 69.6365 76.999 69.8588 76.9162 70.0664C76.8333 70.2739 76.7092 70.4624 76.5513 70.6204C76.3935 70.7784 76.2052 70.9025 75.9979 70.9853C75.7907 71.0681 75.5688 71.1078 75.3457 71.1019L75.3419 71.1058ZM98.4739 84.4848C97.5682 84.508 96.7128 83.6491 96.7322 82.7281C96.7345 82.3834 96.8385 82.0472 97.0313 81.7617C97.2241 81.4763 97.4969 81.2544 97.8154 81.1241C98.1338 80.9938 98.4836 80.9609 98.8207 81.0296C99.1578 81.0982 99.4671 81.2653 99.7095 81.5098C99.9519 81.7543 100.117 82.0653 100.183 82.4035C100.249 82.7417 100.214 83.092 100.082 83.4102C99.9497 83.7284 99.7265 84.0002 99.4403 84.1915C99.1541 84.3827 98.8179 84.4848 98.4739 84.4848ZM119.353 64.7071C117.182 65.7348 116.075 67.6893 116.342 70.0413C116.371 70.1528 116.358 70.2714 116.304 70.3734C116.25 70.4754 116.16 70.5534 116.052 70.5919C111.441 73.2406 106.832 75.8951 102.224 78.5554C101.922 78.7318 101.737 78.6891 101.462 78.5049C99.4609 77.1593 97.4289 77.1477 95.4743 78.5049C95.361 78.6043 95.217 78.6617 95.0666 78.6673C94.9161 78.673 94.7683 78.6266 94.6479 78.536C90.073 75.8757 85.4929 73.2219 80.9076 70.5745C80.6386 70.4194 80.4877 70.2992 80.5419 69.9191C80.6897 68.8583 80.4902 67.7782 79.9735 66.8405C79.4567 65.9029 78.6505 65.1585 77.6758 64.7188C77.2461 64.5249 77.1416 64.2864 77.1436 63.8482C77.1578 58.6155 77.1578 53.3802 77.1436 48.1424C77.1436 47.6906 77.2732 47.4754 77.6835 47.2796C78.6528 46.8227 79.4525 46.0695 79.9675 45.1284C80.4825 44.1874 80.6863 43.1068 80.5496 42.0424C80.4993 41.672 80.6232 41.5324 80.9038 41.3715C85.4955 38.7422 90.0839 36.1058 94.6692 33.4624C94.9866 33.2801 95.1898 33.3072 95.4936 33.5186C97.4018 34.8352 99.4976 34.839 101.423 33.5186C101.545 33.4112 101.7 33.3492 101.862 33.3432C102.025 33.3372 102.184 33.3875 102.313 33.4856C106.868 36.1394 111.425 38.7862 115.986 41.4258C116.201 41.5499 116.524 41.608 116.385 41.9745C116.172 44.5107 117.145 46.3023 119.371 47.4036C119.499 47.4537 119.607 47.5455 119.677 47.6643C119.747 47.7831 119.776 47.9221 119.758 48.059C119.749 53.3899 119.749 58.7202 119.758 64.0498C119.779 64.1886 119.75 64.3302 119.676 64.4498C119.603 64.5693 119.49 64.6591 119.357 64.7033L119.353 64.7071ZM121.513 71.1058C121.29 71.1047 121.07 71.0586 120.866 70.9705C120.661 70.8823 120.477 70.7537 120.323 70.5925C120.169 70.4313 120.049 70.2407 119.97 70.0321C119.891 69.8234 119.855 69.601 119.864 69.3782C119.863 69.1486 119.907 68.9209 119.994 68.7085C120.081 68.4961 120.209 68.3031 120.371 68.1407C120.533 67.9784 120.726 67.8499 120.938 67.7627C121.15 67.6756 121.377 67.6315 121.606 67.6331C121.828 67.6331 122.049 67.6783 122.254 67.7659C122.458 67.8534 122.643 67.9816 122.797 68.1426C122.951 68.3036 123.071 68.4942 123.15 68.7029C123.228 68.9115 123.264 69.134 123.255 69.3568C123.255 69.8193 123.072 70.2631 122.747 70.5907C122.421 70.9182 121.978 71.1028 121.517 71.1038L121.513 71.1058Z" fill="url(#paint2_linear_1_131)"/>
<path d="M110.639 50.2171C110.663 49.8201 110.57 49.4249 110.372 49.0802C110.174 48.7356 109.879 48.4567 109.524 48.2781C106.196 46.3391 102.875 44.3917 99.5616 42.436C99.2406 42.2206 98.8636 42.1043 98.4773 42.1016C98.091 42.0988 97.7123 42.2097 97.3883 42.4205C94.0236 44.3853 90.6524 46.3424 87.2747 48.2917C86.9628 48.4522 86.704 48.6999 86.5298 49.0049C86.3556 49.3098 86.2736 49.6588 86.2935 50.0096C86.311 51.9719 86.2935 53.9361 86.2935 55.8983C86.2935 57.8606 86.3071 59.8713 86.2935 61.8588C86.2718 62.2087 86.3516 62.5575 86.5233 62.863C86.695 63.1685 86.9513 63.4177 87.2612 63.5806C90.653 65.548 94.0442 67.5193 97.4348 69.4945C97.7408 69.6905 98.0963 69.7946 98.4595 69.7946C98.8226 69.7946 99.1782 69.6905 99.4842 69.4945C102.852 67.5322 106.222 65.5758 109.596 63.6252C110.312 63.2102 110.633 62.6247 110.629 61.7831C110.614 57.9297 110.617 54.0744 110.639 50.2171ZM96.7265 64.9534C96.4323 64.9728 96.2427 64.7692 96.0298 64.647C94.0945 63.5321 92.1593 62.4055 90.224 61.2868C89.9744 61.1413 89.7615 61.0424 89.7654 60.6585C89.7886 58.1185 89.777 55.5803 89.777 52.9375C92.0528 54.2502 94.2145 55.5066 96.3878 56.7398C96.7032 56.9182 96.7323 57.1431 96.7323 57.4456C96.7226 59.9372 96.7265 62.4308 96.7265 64.9495V64.9534ZM98.7604 53.8003C98.675 53.8591 98.5738 53.8906 98.4701 53.8906C98.3665 53.8906 98.2653 53.8591 98.1798 53.8003C96.0046 52.5284 93.8236 51.27 91.5632 49.9592C92.9043 49.1836 94.1894 48.4468 95.4705 47.7042C96.3433 47.2 97.2122 46.6843 98.087 46.184C98.2573 46.0871 98.4005 45.9106 98.6675 46.0657C100.881 47.3629 103.105 48.6407 105.387 49.9612C103.121 51.2642 100.938 52.5264 98.7604 53.7965V53.8003ZM105.485 62.0216C103.875 62.7565 102.379 63.7434 100.831 64.6179C100.653 64.7188 100.498 64.8933 100.202 64.8603C100.202 62.3487 100.202 59.8409 100.202 57.337C100.194 57.2427 100.214 57.148 100.261 57.0656C100.308 56.9831 100.378 56.9169 100.463 56.8756C102.664 55.6114 104.858 54.3394 107.156 53.0112C107.156 55.1208 107.036 57.1276 107.194 59.1093C107.31 60.5984 106.83 61.4031 105.485 62.0139V62.0216Z" fill="url(#paint3_linear_1_131)"/>
<path d="M36.8131 123.16C36.2051 123.16 35.6397 123.08 35.1171 122.92C34.6051 122.76 34.1357 122.52 33.7091 122.2C33.2931 121.869 32.9197 121.464 32.5891 120.984L33.7731 119.624C34.2957 120.371 34.7971 120.888 35.2771 121.176C35.7571 121.464 36.3277 121.608 36.9891 121.608C37.3944 121.608 37.7624 121.544 38.0931 121.416C38.4237 121.288 38.6851 121.112 38.8771 120.888C39.0691 120.664 39.1651 120.408 39.1651 120.12C39.1651 119.928 39.1331 119.747 39.0691 119.576C39.0051 119.405 38.9037 119.251 38.7651 119.112C38.6371 118.973 38.4664 118.845 38.2531 118.728C38.0504 118.611 37.8104 118.509 37.5331 118.424C37.2557 118.328 36.9357 118.248 36.5731 118.184C35.9971 118.067 35.4957 117.912 35.0691 117.72C34.6424 117.528 34.2851 117.288 33.9971 117C33.7091 116.712 33.4957 116.387 33.3571 116.024C33.2184 115.651 33.1491 115.235 33.1491 114.776C33.1491 114.328 33.2451 113.912 33.4371 113.528C33.6397 113.144 33.9117 112.813 34.2531 112.536C34.6051 112.248 35.0157 112.029 35.4851 111.88C35.9544 111.72 36.4611 111.64 37.0051 111.64C37.5811 111.64 38.1091 111.715 38.5891 111.864C39.0691 112.013 39.4957 112.237 39.8691 112.536C40.2424 112.824 40.5517 113.181 40.7971 113.608L39.5811 114.808C39.3677 114.456 39.1277 114.163 38.8611 113.928C38.5944 113.683 38.3011 113.501 37.9811 113.384C37.6611 113.256 37.3197 113.192 36.9571 113.192C36.5411 113.192 36.1784 113.256 35.8691 113.384C35.5597 113.512 35.3144 113.693 35.1331 113.928C34.9624 114.152 34.8771 114.419 34.8771 114.728C34.8771 114.952 34.9197 115.16 35.0051 115.352C35.0904 115.533 35.2184 115.699 35.3891 115.848C35.5704 115.987 35.8104 116.115 36.1091 116.232C36.4077 116.339 36.7651 116.435 37.1811 116.52C37.7677 116.648 38.2904 116.813 38.7491 117.016C39.2077 117.208 39.5971 117.437 39.9171 117.704C40.2371 117.971 40.4771 118.269 40.6371 118.6C40.8077 118.931 40.8931 119.288 40.8931 119.672C40.8931 120.387 40.7277 121.005 40.3971 121.528C40.0664 122.051 39.5971 122.456 38.9891 122.744C38.3811 123.021 37.6557 123.16 36.8131 123.16ZM42.9254 126.52V114.6H44.5894V116.52L44.3334 116.376C44.3974 116.056 44.5788 115.752 44.8774 115.464C45.1761 115.165 45.5388 114.925 45.9654 114.744C46.4028 114.552 46.8508 114.456 47.3094 114.456C48.0668 114.456 48.7388 114.643 49.3254 115.016C49.9121 115.389 50.3761 115.901 50.7174 116.552C51.0588 117.203 51.2294 117.949 51.2294 118.792C51.2294 119.624 51.0588 120.371 50.7174 121.032C50.3868 121.683 49.9281 122.2 49.3414 122.584C48.7548 122.957 48.0934 123.144 47.3574 123.144C46.8668 123.144 46.3921 123.048 45.9334 122.856C45.4748 122.653 45.0854 122.397 44.7654 122.088C44.4454 121.779 44.2481 121.459 44.1734 121.128L44.5894 120.904V126.52H42.9254ZM47.0854 121.624C47.5761 121.624 48.0134 121.501 48.3974 121.256C48.7814 121.011 49.0854 120.675 49.3094 120.248C49.5334 119.821 49.6454 119.336 49.6454 118.792C49.6454 118.248 49.5334 117.768 49.3094 117.352C49.0961 116.925 48.7974 116.589 48.4134 116.344C48.0294 116.099 47.5868 115.976 47.0854 115.976C46.5841 115.976 46.1414 116.099 45.7574 116.344C45.3734 116.579 45.0694 116.909 44.8454 117.336C44.6214 117.763 44.5094 118.248 44.5094 118.792C44.5094 119.336 44.6214 119.821 44.8454 120.248C45.0694 120.675 45.3734 121.011 45.7574 121.256C46.1414 121.501 46.5841 121.624 47.0854 121.624ZM56.9392 123.16C56.0752 123.16 55.3072 122.979 54.6352 122.616C53.9739 122.243 53.4512 121.736 53.0672 121.096C52.6939 120.456 52.5072 119.72 52.5072 118.888C52.5072 118.227 52.6139 117.624 52.8272 117.08C53.0405 116.536 53.3339 116.067 53.7072 115.672C54.0912 115.267 54.5445 114.957 55.0672 114.744C55.6005 114.52 56.1765 114.408 56.7952 114.408C57.3392 114.408 57.8459 114.515 58.3152 114.728C58.7845 114.931 59.1899 115.213 59.5312 115.576C59.8832 115.939 60.1499 116.371 60.3312 116.872C60.5232 117.363 60.6139 117.901 60.6032 118.488L60.5872 119.192H53.7232L53.3552 117.88H59.1632L58.9232 118.152V117.768C58.8912 117.416 58.7739 117.101 58.5712 116.824C58.3685 116.547 58.1125 116.328 57.8032 116.168C57.4939 116.008 57.1579 115.928 56.7952 115.928C56.2192 115.928 55.7339 116.04 55.3392 116.264C54.9445 116.477 54.6459 116.797 54.4432 117.224C54.2405 117.64 54.1392 118.157 54.1392 118.776C54.1392 119.363 54.2619 119.875 54.5072 120.312C54.7525 120.739 55.0992 121.069 55.5472 121.304C55.9952 121.539 56.5125 121.656 57.0992 121.656C57.5152 121.656 57.8992 121.587 58.2512 121.448C58.6139 121.309 59.0032 121.059 59.4192 120.696L60.2512 121.864C59.9952 122.12 59.6805 122.344 59.3072 122.536C58.9445 122.728 58.5552 122.883 58.1392 123C57.7339 123.107 57.3339 123.16 56.9392 123.16ZM65.9622 123.16C65.1835 123.16 64.4849 122.968 63.8662 122.584C63.2582 122.2 62.7729 121.677 62.4102 121.016C62.0582 120.355 61.8822 119.613 61.8822 118.792C61.8822 117.971 62.0582 117.229 62.4102 116.568C62.7729 115.907 63.2582 115.384 63.8662 115C64.4849 114.616 65.1835 114.424 65.9622 114.424C66.7089 114.424 67.3862 114.579 67.9942 114.888C68.6129 115.187 69.0822 115.597 69.4022 116.12L68.4902 117.24C68.3195 116.995 68.1009 116.771 67.8342 116.568C67.5675 116.365 67.2849 116.205 66.9862 116.088C66.6875 115.971 66.3995 115.912 66.1222 115.912C65.6102 115.912 65.1515 116.04 64.7462 116.296C64.3515 116.541 64.0369 116.883 63.8022 117.32C63.5675 117.757 63.4502 118.248 63.4502 118.792C63.4502 119.336 63.5729 119.827 63.8182 120.264C64.0635 120.691 64.3889 121.032 64.7942 121.288C65.1995 121.544 65.6475 121.672 66.1382 121.672C66.4262 121.672 66.7035 121.624 66.9702 121.528C67.2475 121.432 67.5142 121.288 67.7702 121.096C68.0262 120.904 68.2662 120.669 68.4902 120.392L69.4022 121.512C69.0609 121.992 68.5702 122.387 67.9302 122.696C67.3009 123.005 66.6449 123.16 65.9622 123.16ZM71.2287 123V114.6H72.8767V123H71.2287ZM72.0287 112.744C71.6767 112.744 71.4047 112.653 71.2127 112.472C71.0207 112.291 70.9247 112.035 70.9247 111.704C70.9247 111.395 71.0207 111.144 71.2127 110.952C71.4154 110.76 71.6874 110.664 72.0287 110.664C72.3807 110.664 72.6527 110.755 72.8447 110.936C73.0367 111.117 73.1327 111.373 73.1327 111.704C73.1327 112.013 73.0314 112.264 72.8287 112.456C72.6367 112.648 72.37 112.744 72.0287 112.744ZM78.6418 123.16C77.9485 123.16 77.3138 122.968 76.7378 122.584C76.1725 122.2 75.7191 121.677 75.3778 121.016C75.0365 120.355 74.8658 119.608 74.8658 118.776C74.8658 117.933 75.0365 117.187 75.3778 116.536C75.7298 115.875 76.1991 115.357 76.7858 114.984C77.3831 114.611 78.0498 114.424 78.7858 114.424C79.2231 114.424 79.6231 114.488 79.9858 114.616C80.3485 114.744 80.6631 114.925 80.9298 115.16C81.2071 115.384 81.4311 115.645 81.6018 115.944C81.7831 116.243 81.8951 116.563 81.9378 116.904L81.5698 116.776V114.6H83.2338V123H81.5698V121L81.9538 120.888C81.8898 121.176 81.7565 121.459 81.5538 121.736C81.3618 122.003 81.1111 122.243 80.8018 122.456C80.5031 122.669 80.1671 122.84 79.7938 122.968C79.4311 123.096 79.0471 123.16 78.6418 123.16ZM79.0738 121.64C79.5751 121.64 80.0178 121.517 80.4018 121.272C80.7858 121.027 81.0845 120.691 81.2978 120.264C81.5218 119.827 81.6338 119.331 81.6338 118.776C81.6338 118.232 81.5218 117.747 81.2978 117.32C81.0845 116.893 80.7858 116.557 80.4018 116.312C80.0178 116.067 79.5751 115.944 79.0738 115.944C78.5831 115.944 78.1458 116.067 77.7618 116.312C77.3885 116.557 77.0898 116.893 76.8658 117.32C76.6525 117.747 76.5458 118.232 76.5458 118.776C76.5458 119.331 76.6525 119.827 76.8658 120.264C77.0898 120.691 77.3885 121.027 77.7618 121.272C78.1458 121.517 78.5831 121.64 79.0738 121.64ZM85.5668 123V111.16H87.2148V123H85.5668ZM97.2668 123.16C96.5735 123.16 95.9388 122.968 95.3628 122.584C94.7975 122.2 94.3441 121.677 94.0028 121.016C93.6615 120.355 93.4908 119.608 93.4908 118.776C93.4908 117.933 93.6615 117.187 94.0028 116.536C94.3548 115.875 94.8241 115.357 95.4108 114.984C96.0081 114.611 96.6748 114.424 97.4108 114.424C97.8481 114.424 98.2481 114.488 98.6108 114.616C98.9735 114.744 99.2881 114.925 99.5548 115.16C99.8321 115.384 100.056 115.645 100.227 115.944C100.408 116.243 100.52 116.563 100.563 116.904L100.195 116.776V114.6H101.859V123H100.195V121L100.579 120.888C100.515 121.176 100.381 121.459 100.179 121.736C99.9868 122.003 99.7361 122.243 99.4268 122.456C99.1281 122.669 98.7921 122.84 98.4188 122.968C98.0561 123.096 97.6721 123.16 97.2668 123.16ZM97.6988 121.64C98.2001 121.64 98.6428 121.517 99.0268 121.272C99.4108 121.027 99.7095 120.691 99.9228 120.264C100.147 119.827 100.259 119.331 100.259 118.776C100.259 118.232 100.147 117.747 99.9228 117.32C99.7095 116.893 99.4108 116.557 99.0268 116.312C98.6428 116.067 98.2001 115.944 97.6988 115.944C97.2081 115.944 96.7708 116.067 96.3868 116.312C96.0135 116.557 95.7148 116.893 95.4908 117.32C95.2775 117.747 95.1708 118.232 95.1708 118.776C95.1708 119.331 95.2775 119.827 95.4908 120.264C95.7148 120.691 96.0135 121.027 96.3868 121.272C96.7708 121.517 97.2081 121.64 97.6988 121.64ZM107.728 123.16C106.949 123.16 106.25 122.968 105.632 122.584C105.024 122.2 104.538 121.677 104.176 121.016C103.824 120.355 103.648 119.613 103.648 118.792C103.648 117.971 103.824 117.229 104.176 116.568C104.538 115.907 105.024 115.384 105.632 115C106.25 114.616 106.949 114.424 107.728 114.424C108.474 114.424 109.152 114.579 109.76 114.888C110.378 115.187 110.848 115.597 111.168 116.12L110.256 117.24C110.085 116.995 109.866 116.771 109.6 116.568C109.333 116.365 109.05 116.205 108.752 116.088C108.453 115.971 108.165 115.912 107.888 115.912C107.376 115.912 106.917 116.04 106.512 116.296C106.117 116.541 105.802 116.883 105.568 117.32C105.333 117.757 105.216 118.248 105.216 118.792C105.216 119.336 105.338 119.827 105.584 120.264C105.829 120.691 106.154 121.032 106.56 121.288C106.965 121.544 107.413 121.672 107.904 121.672C108.192 121.672 108.469 121.624 108.736 121.528C109.013 121.432 109.28 121.288 109.536 121.096C109.792 120.904 110.032 120.669 110.256 120.392L111.168 121.512C110.826 121.992 110.336 122.387 109.696 122.696C109.066 123.005 108.41 123.16 107.728 123.16ZM116.29 123.16C115.512 123.16 114.813 122.968 114.194 122.584C113.586 122.2 113.101 121.677 112.738 121.016C112.386 120.355 112.21 119.613 112.21 118.792C112.21 117.971 112.386 117.229 112.738 116.568C113.101 115.907 113.586 115.384 114.194 115C114.813 114.616 115.512 114.424 116.29 114.424C117.037 114.424 117.714 114.579 118.322 114.888C118.941 115.187 119.41 115.597 119.73 116.12L118.818 117.24C118.648 116.995 118.429 116.771 118.162 116.568C117.896 116.365 117.613 116.205 117.314 116.088C117.016 115.971 116.728 115.912 116.45 115.912C115.938 115.912 115.48 116.04 115.074 116.296C114.68 116.541 114.365 116.883 114.13 117.32C113.896 117.757 113.778 118.248 113.778 118.792C113.778 119.336 113.901 119.827 114.146 120.264C114.392 120.691 114.717 121.032 115.122 121.288C115.528 121.544 115.976 121.672 116.466 121.672C116.754 121.672 117.032 121.624 117.298 121.528C117.576 121.432 117.842 121.288 118.098 121.096C118.354 120.904 118.594 120.669 118.818 120.392L119.73 121.512C119.389 121.992 118.898 122.387 118.258 122.696C117.629 123.005 116.973 123.16 116.29 123.16ZM125.205 123.16C124.341 123.16 123.573 122.979 122.901 122.616C122.239 122.243 121.717 121.736 121.333 121.096C120.959 120.456 120.773 119.72 120.773 118.888C120.773 118.227 120.879 117.624 121.093 117.08C121.306 116.536 121.599 116.067 121.973 115.672C122.357 115.267 122.81 114.957 123.333 114.744C123.866 114.52 124.442 114.408 125.061 114.408C125.605 114.408 126.111 114.515 126.581 114.728C127.05 114.931 127.455 115.213 127.797 115.576C128.149 115.939 128.415 116.371 128.597 116.872C128.789 117.363 128.879 117.901 128.869 118.488L128.853 119.192H121.989L121.621 117.88H127.429L127.189 118.152V117.768C127.157 117.416 127.039 117.101 126.837 116.824C126.634 116.547 126.378 116.328 126.069 116.168C125.759 116.008 125.423 115.928 125.061 115.928C124.485 115.928 123.999 116.04 123.605 116.264C123.21 116.477 122.911 116.797 122.709 117.224C122.506 117.64 122.405 118.157 122.405 118.776C122.405 119.363 122.527 119.875 122.773 120.312C123.018 120.739 123.365 121.069 123.813 121.304C124.261 121.539 124.778 121.656 125.365 121.656C125.781 121.656 126.165 121.587 126.517 121.448C126.879 121.309 127.269 121.059 127.685 120.696L128.517 121.864C128.261 122.12 127.946 122.344 127.573 122.536C127.21 122.728 126.821 122.883 126.405 123C125.999 123.107 125.599 123.16 125.205 123.16ZM133.46 123.16C132.756 123.16 132.121 123.037 131.556 122.792C130.99 122.547 130.521 122.184 130.148 121.704L131.268 120.744C131.588 121.117 131.934 121.389 132.308 121.56C132.692 121.72 133.124 121.8 133.604 121.8C133.796 121.8 133.972 121.779 134.132 121.736C134.302 121.683 134.446 121.608 134.564 121.512C134.692 121.416 134.788 121.304 134.852 121.176C134.916 121.037 134.948 120.888 134.948 120.728C134.948 120.451 134.846 120.227 134.644 120.056C134.537 119.981 134.366 119.901 134.132 119.816C133.908 119.72 133.614 119.624 133.252 119.528C132.633 119.368 132.126 119.187 131.732 118.984C131.337 118.781 131.033 118.552 130.82 118.296C130.66 118.093 130.542 117.875 130.468 117.64C130.393 117.395 130.356 117.128 130.356 116.84C130.356 116.488 130.43 116.168 130.58 115.88C130.74 115.581 130.953 115.325 131.22 115.112C131.497 114.888 131.817 114.717 132.18 114.6C132.553 114.483 132.948 114.424 133.364 114.424C133.758 114.424 134.148 114.477 134.532 114.584C134.926 114.691 135.289 114.845 135.62 115.048C135.95 115.251 136.228 115.491 136.452 115.768L135.508 116.808C135.305 116.605 135.081 116.429 134.836 116.28C134.601 116.12 134.361 115.997 134.116 115.912C133.87 115.827 133.646 115.784 133.444 115.784C133.22 115.784 133.017 115.805 132.836 115.848C132.654 115.891 132.5 115.955 132.372 116.04C132.254 116.125 132.164 116.232 132.1 116.36C132.036 116.488 132.004 116.632 132.004 116.792C132.014 116.931 132.046 117.064 132.1 117.192C132.164 117.309 132.249 117.411 132.356 117.496C132.473 117.581 132.649 117.672 132.884 117.768C133.118 117.864 133.417 117.955 133.78 118.04C134.313 118.179 134.75 118.333 135.092 118.504C135.444 118.664 135.721 118.851 135.924 119.064C136.137 119.267 136.286 119.501 136.372 119.768C136.457 120.035 136.5 120.333 136.5 120.664C136.5 121.144 136.361 121.576 136.084 121.96C135.817 122.333 135.454 122.627 134.996 122.84C134.537 123.053 134.025 123.16 133.46 123.16ZM141.116 123.16C140.412 123.16 139.777 123.037 139.212 122.792C138.647 122.547 138.177 122.184 137.804 121.704L138.924 120.744C139.244 121.117 139.591 121.389 139.964 121.56C140.348 121.72 140.78 121.8 141.26 121.8C141.452 121.8 141.628 121.779 141.788 121.736C141.959 121.683 142.103 121.608 142.22 121.512C142.348 121.416 142.444 121.304 142.508 121.176C142.572 121.037 142.604 120.888 142.604 120.728C142.604 120.451 142.503 120.227 142.3 120.056C142.193 119.981 142.023 119.901 141.788 119.816C141.564 119.72 141.271 119.624 140.908 119.528C140.289 119.368 139.783 119.187 139.388 118.984C138.993 118.781 138.689 118.552 138.476 118.296C138.316 118.093 138.199 117.875 138.124 117.64C138.049 117.395 138.012 117.128 138.012 116.84C138.012 116.488 138.087 116.168 138.236 115.88C138.396 115.581 138.609 115.325 138.876 115.112C139.153 114.888 139.473 114.717 139.836 114.6C140.209 114.483 140.604 114.424 141.02 114.424C141.415 114.424 141.804 114.477 142.188 114.584C142.583 114.691 142.945 114.845 143.276 115.048C143.607 115.251 143.884 115.491 144.108 115.768L143.164 116.808C142.961 116.605 142.737 116.429 142.492 116.28C142.257 116.12 142.017 115.997 141.772 115.912C141.527 115.827 141.303 115.784 141.1 115.784C140.876 115.784 140.673 115.805 140.492 115.848C140.311 115.891 140.156 115.955 140.028 116.04C139.911 116.125 139.82 116.232 139.756 116.36C139.692 116.488 139.66 116.632 139.66 116.792C139.671 116.931 139.703 117.064 139.756 117.192C139.82 117.309 139.905 117.411 140.012 117.496C140.129 117.581 140.305 117.672 140.54 117.768C140.775 117.864 141.073 117.955 141.436 118.04C141.969 118.179 142.407 118.333 142.748 118.504C143.1 118.664 143.377 118.851 143.58 119.064C143.793 119.267 143.943 119.501 144.028 119.768C144.113 120.035 144.156 120.333 144.156 120.664C144.156 121.144 144.017 121.576 143.74 121.96C143.473 122.333 143.111 122.627 142.652 122.84C142.193 123.053 141.681 123.16 141.116 123.16ZM151.497 123V112.456H153.145V123H151.497ZM149.753 116.2V114.6H155.097V116.2H149.753ZM160.295 123.16C159.474 123.16 158.738 122.973 158.087 122.6C157.447 122.216 156.941 121.699 156.567 121.048C156.194 120.387 156.007 119.635 156.007 118.792C156.007 117.949 156.194 117.203 156.567 116.552C156.941 115.891 157.447 115.373 158.087 115C158.738 114.616 159.474 114.424 160.295 114.424C161.106 114.424 161.831 114.616 162.471 115C163.122 115.373 163.634 115.891 164.007 116.552C164.381 117.203 164.567 117.949 164.567 118.792C164.567 119.635 164.381 120.387 164.007 121.048C163.634 121.699 163.122 122.216 162.471 122.6C161.831 122.973 161.106 123.16 160.295 123.16ZM160.295 121.656C160.797 121.656 161.245 121.533 161.639 121.288C162.034 121.032 162.343 120.691 162.567 120.264C162.791 119.827 162.898 119.336 162.887 118.792C162.898 118.237 162.791 117.747 162.567 117.32C162.343 116.883 162.034 116.541 161.639 116.296C161.245 116.051 160.797 115.928 160.295 115.928C159.794 115.928 159.341 116.056 158.935 116.312C158.541 116.557 158.231 116.899 158.007 117.336C157.783 117.763 157.677 118.248 157.687 118.792C157.677 119.336 157.783 119.827 158.007 120.264C158.231 120.691 158.541 121.032 158.935 121.288C159.341 121.533 159.794 121.656 160.295 121.656ZM26.9196 149V137.8H31.3036C32.1036 137.8 32.8236 137.933 33.4636 138.2C34.1142 138.467 34.6689 138.851 35.1276 139.352C35.5862 139.853 35.9382 140.445 36.1836 141.128C36.4289 141.811 36.5516 142.568 36.5516 143.4C36.5516 144.232 36.4289 144.995 36.1836 145.688C35.9382 146.371 35.5862 146.963 35.1276 147.464C34.6796 147.955 34.1302 148.333 33.4796 148.6C32.8289 148.867 32.1036 149 31.3036 149H26.9196ZM28.6476 147.512L28.5996 147.336H31.2236C31.7889 147.336 32.2902 147.245 32.7276 147.064C33.1756 146.883 33.5489 146.627 33.8476 146.296C34.1569 145.955 34.3916 145.539 34.5516 145.048C34.7116 144.557 34.7916 144.008 34.7916 143.4C34.7916 142.792 34.7116 142.248 34.5516 141.768C34.3916 141.277 34.1569 140.861 33.8476 140.52C33.5382 140.179 33.1649 139.917 32.7276 139.736C32.2902 139.555 31.7889 139.464 31.2236 139.464H28.5516L28.6476 139.32V147.512ZM42.2483 149.16C41.427 149.16 40.691 148.973 40.0403 148.6C39.4003 148.216 38.8936 147.699 38.5203 147.048C38.147 146.387 37.9603 145.635 37.9603 144.792C37.9603 143.949 38.147 143.203 38.5203 142.552C38.8936 141.891 39.4003 141.373 40.0403 141C40.691 140.616 41.427 140.424 42.2483 140.424C43.059 140.424 43.7843 140.616 44.4243 141C45.075 141.373 45.587 141.891 45.9603 142.552C46.3336 143.203 46.5203 143.949 46.5203 144.792C46.5203 145.635 46.3336 146.387 45.9603 147.048C45.587 147.699 45.075 148.216 44.4243 148.6C43.7843 148.973 43.059 149.16 42.2483 149.16ZM42.2483 147.656C42.7496 147.656 43.1976 147.533 43.5923 147.288C43.987 147.032 44.2963 146.691 44.5203 146.264C44.7443 145.827 44.851 145.336 44.8403 144.792C44.851 144.237 44.7443 143.747 44.5203 143.32C44.2963 142.883 43.987 142.541 43.5923 142.296C43.1976 142.051 42.7496 141.928 42.2483 141.928C41.747 141.928 41.2936 142.056 40.8883 142.312C40.4936 142.557 40.1843 142.899 39.9603 143.336C39.7363 143.763 39.6296 144.248 39.6403 144.792C39.6296 145.336 39.7363 145.827 39.9603 146.264C40.1843 146.691 40.4936 147.032 40.8883 147.288C41.2936 147.533 41.747 147.656 42.2483 147.656ZM48.3481 149V137.16H49.9961V149H48.3481ZM52.3317 152.52V140.6H53.9957V142.52L53.7397 142.376C53.8037 142.056 53.985 141.752 54.2837 141.464C54.5824 141.165 54.945 140.925 55.3717 140.744C55.809 140.552 56.257 140.456 56.7157 140.456C57.473 140.456 58.145 140.643 58.7317 141.016C59.3184 141.389 59.7824 141.901 60.1237 142.552C60.465 143.203 60.6357 143.949 60.6357 144.792C60.6357 145.624 60.465 146.371 60.1237 147.032C59.793 147.683 59.3344 148.2 58.7477 148.584C58.161 148.957 57.4997 149.144 56.7637 149.144C56.273 149.144 55.7984 149.048 55.3397 148.856C54.881 148.653 54.4917 148.397 54.1717 148.088C53.8517 147.779 53.6544 147.459 53.5797 147.128L53.9957 146.904V152.52H52.3317ZM56.4917 147.624C56.9824 147.624 57.4197 147.501 57.8037 147.256C58.1877 147.011 58.4917 146.675 58.7157 146.248C58.9397 145.821 59.0517 145.336 59.0517 144.792C59.0517 144.248 58.9397 143.768 58.7157 143.352C58.5024 142.925 58.2037 142.589 57.8197 142.344C57.4357 142.099 56.993 141.976 56.4917 141.976C55.9904 141.976 55.5477 142.099 55.1637 142.344C54.7797 142.579 54.4757 142.909 54.2517 143.336C54.0277 143.763 53.9157 144.248 53.9157 144.792C53.9157 145.336 54.0277 145.821 54.2517 146.248C54.4757 146.675 54.7797 147.011 55.1637 147.256C55.5477 147.501 55.9904 147.624 56.4917 147.624ZM62.4254 149V137.16H64.0734V142.328L63.7854 142.52C63.8921 142.147 64.1001 141.805 64.4094 141.496C64.7188 141.176 65.0868 140.92 65.5134 140.728C65.9401 140.525 66.3774 140.424 66.8254 140.424C67.4654 140.424 67.9988 140.552 68.4254 140.808C68.8521 141.053 69.1721 141.432 69.3854 141.944C69.5988 142.456 69.7054 143.101 69.7054 143.88V149H68.0574V143.992C68.0574 143.512 67.9934 143.117 67.8654 142.808C67.7374 142.488 67.5401 142.259 67.2734 142.12C67.0068 141.971 66.6761 141.907 66.2814 141.928C65.9614 141.928 65.6681 141.981 65.4014 142.088C65.1348 142.184 64.9001 142.323 64.6974 142.504C64.5054 142.685 64.3508 142.899 64.2334 143.144C64.1268 143.379 64.0734 143.635 64.0734 143.912V149H63.2574C63.1188 149 62.9801 149 62.8414 149C62.7028 149 62.5641 149 62.4254 149ZM72.2131 149V140.6H73.8611V149H72.2131ZM73.0131 138.744C72.6611 138.744 72.3891 138.653 72.1971 138.472C72.0051 138.291 71.9091 138.035 71.9091 137.704C71.9091 137.395 72.0051 137.144 72.1971 136.952C72.3997 136.76 72.6717 136.664 73.0131 136.664C73.3651 136.664 73.6371 136.755 73.8291 136.936C74.0211 137.117 74.1171 137.373 74.1171 137.704C74.1171 138.013 74.0157 138.264 73.8131 138.456C73.6211 138.648 73.3544 138.744 73.0131 138.744ZM76.3942 149V140.6H78.0422V142.328L77.7542 142.52C77.8609 142.147 78.0689 141.805 78.3782 141.496C78.6875 141.176 79.0555 140.92 79.4822 140.728C79.9089 140.525 80.3462 140.424 80.7942 140.424C81.4342 140.424 81.9675 140.552 82.3942 140.808C82.8209 141.053 83.1409 141.432 83.3542 141.944C83.5675 142.456 83.6742 143.101 83.6742 143.88V149H82.0262V143.992C82.0262 143.512 81.9622 143.117 81.8342 142.808C81.7062 142.488 81.5089 142.259 81.2422 142.12C80.9755 141.971 80.6449 141.907 80.2502 141.928C79.9302 141.928 79.6369 141.981 79.3702 142.088C79.1035 142.184 78.8689 142.323 78.6662 142.504C78.4742 142.685 78.3195 142.899 78.2022 143.144C78.0955 143.379 78.0422 143.635 78.0422 143.912V149H77.2262C77.0875 149 76.9489 149 76.8102 149C76.6715 149 76.5329 149 76.3942 149ZM94.3142 149.16C93.4502 149.16 92.6822 148.979 92.0102 148.616C91.3489 148.243 90.8262 147.736 90.4422 147.096C90.0689 146.456 89.8822 145.72 89.8822 144.888C89.8822 144.227 89.9889 143.624 90.2022 143.08C90.4155 142.536 90.7089 142.067 91.0822 141.672C91.4662 141.267 91.9195 140.957 92.4422 140.744C92.9755 140.52 93.5515 140.408 94.1702 140.408C94.7142 140.408 95.2209 140.515 95.6902 140.728C96.1595 140.931 96.5649 141.213 96.9062 141.576C97.2582 141.939 97.5249 142.371 97.7062 142.872C97.8982 143.363 97.9889 143.901 97.9782 144.488L97.9622 145.192H91.0982L90.7302 143.88H96.5382L96.2982 144.152V143.768C96.2662 143.416 96.1489 143.101 95.9462 142.824C95.7435 142.547 95.4875 142.328 95.1782 142.168C94.8689 142.008 94.5329 141.928 94.1702 141.928C93.5942 141.928 93.1089 142.04 92.7142 142.264C92.3195 142.477 92.0209 142.797 91.8182 143.224C91.6155 143.64 91.5142 144.157 91.5142 144.776C91.5142 145.363 91.6369 145.875 91.8822 146.312C92.1275 146.739 92.4742 147.069 92.9222 147.304C93.3702 147.539 93.8875 147.656 94.4742 147.656C94.8902 147.656 95.2742 147.587 95.6262 147.448C95.9889 147.309 96.3782 147.059 96.7942 146.696L97.6262 147.864C97.3702 148.12 97.0555 148.344 96.6822 148.536C96.3195 148.728 95.9302 148.883 95.5142 149C95.1089 149.107 94.7089 149.16 94.3142 149.16ZM103.337 149.16C102.559 149.16 101.86 148.968 101.241 148.584C100.633 148.2 100.148 147.677 99.7852 147.016C99.4332 146.355 99.2572 145.613 99.2572 144.792C99.2572 143.971 99.4332 143.229 99.7852 142.568C100.148 141.907 100.633 141.384 101.241 141C101.86 140.616 102.559 140.424 103.337 140.424C104.084 140.424 104.761 140.579 105.369 140.888C105.988 141.187 106.457 141.597 106.777 142.12L105.865 143.24C105.695 142.995 105.476 142.771 105.209 142.568C104.943 142.365 104.66 142.205 104.361 142.088C104.063 141.971 103.775 141.912 103.497 141.912C102.985 141.912 102.527 142.04 102.121 142.296C101.727 142.541 101.412 142.883 101.177 143.32C100.943 143.757 100.825 144.248 100.825 144.792C100.825 145.336 100.948 145.827 101.193 146.264C101.439 146.691 101.764 147.032 102.169 147.288C102.575 147.544 103.023 147.672 103.513 147.672C103.801 147.672 104.079 147.624 104.345 147.528C104.623 147.432 104.889 147.288 105.145 147.096C105.401 146.904 105.641 146.669 105.865 146.392L106.777 147.512C106.436 147.992 105.945 148.387 105.305 148.696C104.676 149.005 104.02 149.16 103.337 149.16ZM112.108 149.16C111.286 149.16 110.55 148.973 109.9 148.6C109.26 148.216 108.753 147.699 108.38 147.048C108.006 146.387 107.82 145.635 107.82 144.792C107.82 143.949 108.006 143.203 108.38 142.552C108.753 141.891 109.26 141.373 109.9 141C110.55 140.616 111.286 140.424 112.108 140.424C112.918 140.424 113.644 140.616 114.284 141C114.934 141.373 115.446 141.891 115.82 142.552C116.193 143.203 116.38 143.949 116.38 144.792C116.38 145.635 116.193 146.387 115.82 147.048C115.446 147.699 114.934 148.216 114.284 148.6C113.644 148.973 112.918 149.16 112.108 149.16ZM112.108 147.656C112.609 147.656 113.057 147.533 113.452 147.288C113.846 147.032 114.156 146.691 114.38 146.264C114.604 145.827 114.71 145.336 114.7 144.792C114.71 144.237 114.604 143.747 114.38 143.32C114.156 142.883 113.846 142.541 113.452 142.296C113.057 142.051 112.609 141.928 112.108 141.928C111.606 141.928 111.153 142.056 110.748 142.312C110.353 142.557 110.044 142.899 109.82 143.336C109.596 143.763 109.489 144.248 109.5 144.792C109.489 145.336 109.596 145.827 109.82 146.264C110.044 146.691 110.353 147.032 110.748 147.288C111.153 147.533 111.606 147.656 112.108 147.656ZM120.975 149.16C120.271 149.16 119.637 149.037 119.071 148.792C118.506 148.547 118.037 148.184 117.663 147.704L118.783 146.744C119.103 147.117 119.45 147.389 119.823 147.56C120.207 147.72 120.639 147.8 121.119 147.8C121.311 147.8 121.487 147.779 121.647 147.736C121.818 147.683 121.962 147.608 122.079 147.512C122.207 147.416 122.303 147.304 122.367 147.176C122.431 147.037 122.463 146.888 122.463 146.728C122.463 146.451 122.362 146.227 122.159 146.056C122.053 145.981 121.882 145.901 121.647 145.816C121.423 145.72 121.13 145.624 120.767 145.528C120.149 145.368 119.642 145.187 119.247 144.984C118.853 144.781 118.549 144.552 118.335 144.296C118.175 144.093 118.058 143.875 117.983 143.64C117.909 143.395 117.871 143.128 117.871 142.84C117.871 142.488 117.946 142.168 118.095 141.88C118.255 141.581 118.469 141.325 118.735 141.112C119.013 140.888 119.333 140.717 119.695 140.6C120.069 140.483 120.463 140.424 120.879 140.424C121.274 140.424 121.663 140.477 122.047 140.584C122.442 140.691 122.805 140.845 123.135 141.048C123.466 141.251 123.743 141.491 123.967 141.768L123.023 142.808C122.821 142.605 122.597 142.429 122.351 142.28C122.117 142.12 121.877 141.997 121.631 141.912C121.386 141.827 121.162 141.784 120.959 141.784C120.735 141.784 120.533 141.805 120.351 141.848C120.17 141.891 120.015 141.955 119.887 142.04C119.77 142.125 119.679 142.232 119.615 142.36C119.551 142.488 119.519 142.632 119.519 142.792C119.53 142.931 119.562 143.064 119.615 143.192C119.679 143.309 119.765 143.411 119.871 143.496C119.989 143.581 120.165 143.672 120.399 143.768C120.634 143.864 120.933 143.955 121.295 144.04C121.829 144.179 122.266 144.333 122.607 144.504C122.959 144.664 123.237 144.851 123.439 145.064C123.653 145.267 123.802 145.501 123.887 145.768C123.973 146.035 124.015 146.333 124.015 146.664C124.015 147.144 123.877 147.576 123.599 147.96C123.333 148.333 122.97 148.627 122.511 148.84C122.053 149.053 121.541 149.16 120.975 149.16ZM127.24 152.68L128.936 148.76L128.952 150.072L124.76 140.6H126.68L129.304 146.776C129.357 146.883 129.421 147.048 129.496 147.272C129.57 147.485 129.634 147.699 129.688 147.912L129.272 148.008C129.357 147.784 129.437 147.56 129.512 147.336C129.597 147.112 129.677 146.888 129.752 146.664L131.944 140.6H133.896L130.44 149L129.016 152.68H127.24ZM137.772 149.16C137.068 149.16 136.434 149.037 135.868 148.792C135.303 148.547 134.834 148.184 134.46 147.704L135.58 146.744C135.9 147.117 136.247 147.389 136.62 147.56C137.004 147.72 137.436 147.8 137.916 147.8C138.108 147.8 138.284 147.779 138.444 147.736C138.615 147.683 138.759 147.608 138.876 147.512C139.004 147.416 139.1 147.304 139.164 147.176C139.228 147.037 139.26 146.888 139.26 146.728C139.26 146.451 139.159 146.227 138.956 146.056C138.85 145.981 138.679 145.901 138.444 145.816C138.22 145.72 137.927 145.624 137.564 145.528C136.946 145.368 136.439 145.187 136.044 144.984C135.65 144.781 135.346 144.552 135.132 144.296C134.972 144.093 134.855 143.875 134.78 143.64C134.706 143.395 134.668 143.128 134.668 142.84C134.668 142.488 134.743 142.168 134.892 141.88C135.052 141.581 135.266 141.325 135.532 141.112C135.81 140.888 136.13 140.717 136.492 140.6C136.866 140.483 137.26 140.424 137.676 140.424C138.071 140.424 138.46 140.477 138.844 140.584C139.239 140.691 139.602 140.845 139.932 141.048C140.263 141.251 140.54 141.491 140.764 141.768L139.82 142.808C139.618 142.605 139.394 142.429 139.148 142.28C138.914 142.12 138.674 141.997 138.428 141.912C138.183 141.827 137.959 141.784 137.756 141.784C137.532 141.784 137.33 141.805 137.148 141.848C136.967 141.891 136.812 141.955 136.684 142.04C136.567 142.125 136.476 142.232 136.412 142.36C136.348 142.488 136.316 142.632 136.316 142.792C136.327 142.931 136.359 143.064 136.412 143.192C136.476 143.309 136.562 143.411 136.668 143.496C136.786 143.581 136.962 143.672 137.196 143.768C137.431 143.864 137.73 143.955 138.092 144.04C138.626 144.179 139.063 144.333 139.404 144.504C139.756 144.664 140.034 144.851 140.236 145.064C140.45 145.267 140.599 145.501 140.684 145.768C140.77 146.035 140.812 146.333 140.812 146.664C140.812 147.144 140.674 147.576 140.396 147.96C140.13 148.333 139.767 148.627 139.308 148.84C138.85 149.053 138.338 149.16 137.772 149.16ZM143.669 149V138.456H145.317V149H143.669ZM141.925 142.2V140.6H147.269V142.2H141.925ZM152.611 149.16C151.747 149.16 150.979 148.979 150.307 148.616C149.646 148.243 149.123 147.736 148.739 147.096C148.366 146.456 148.179 145.72 148.179 144.888C148.179 144.227 148.286 143.624 148.499 143.08C148.712 142.536 149.006 142.067 149.379 141.672C149.763 141.267 150.216 140.957 150.739 140.744C151.272 140.52 151.848 140.408 152.467 140.408C153.011 140.408 153.518 140.515 153.987 140.728C154.456 140.931 154.862 141.213 155.203 141.576C155.555 141.939 155.822 142.371 156.003 142.872C156.195 143.363 156.286 143.901 156.275 144.488L156.259 145.192H149.395L149.027 143.88H154.835L154.595 144.152V143.768C154.563 143.416 154.446 143.101 154.243 142.824C154.04 142.547 153.784 142.328 153.475 142.168C153.166 142.008 152.83 141.928 152.467 141.928C151.891 141.928 151.406 142.04 151.011 142.264C150.616 142.477 150.318 142.797 150.115 143.224C149.912 143.64 149.811 144.157 149.811 144.776C149.811 145.363 149.934 145.875 150.179 146.312C150.424 146.739 150.771 147.069 151.219 147.304C151.667 147.539 152.184 147.656 152.771 147.656C153.187 147.656 153.571 147.587 153.923 147.448C154.286 147.309 154.675 147.059 155.091 146.696L155.923 147.864C155.667 148.12 155.352 148.344 154.979 148.536C154.616 148.728 154.227 148.883 153.811 149C153.406 149.107 153.006 149.16 152.611 149.16ZM158.034 149V140.6H159.698V142.392L159.394 142.584C159.479 142.307 159.613 142.04 159.794 141.784C159.986 141.528 160.215 141.304 160.482 141.112C160.759 140.909 161.053 140.749 161.362 140.632C161.682 140.515 162.007 140.456 162.338 140.456C162.818 140.456 163.239 140.536 163.602 140.696C163.965 140.856 164.263 141.096 164.498 141.416C164.733 141.736 164.903 142.136 165.01 142.616L164.754 142.552L164.866 142.28C164.983 142.035 165.143 141.805 165.346 141.592C165.559 141.368 165.799 141.171 166.066 141C166.333 140.829 166.615 140.696 166.914 140.6C167.213 140.504 167.506 140.456 167.794 140.456C168.423 140.456 168.941 140.584 169.346 140.84C169.762 141.096 170.071 141.485 170.274 142.008C170.487 142.531 170.594 143.181 170.594 143.96V149H168.93V144.056C168.93 143.576 168.866 143.187 168.738 142.888C168.621 142.579 168.439 142.349 168.194 142.2C167.949 142.051 167.634 141.976 167.25 141.976C166.951 141.976 166.669 142.029 166.402 142.136C166.146 142.232 165.922 142.371 165.73 142.552C165.538 142.733 165.389 142.947 165.282 143.192C165.175 143.427 165.122 143.688 165.122 143.976V149H163.458V144.024C163.458 143.587 163.394 143.219 163.266 142.92C163.138 142.611 162.951 142.376 162.706 142.216C162.461 142.056 162.162 141.976 161.81 141.976C161.511 141.976 161.234 142.029 160.978 142.136C160.722 142.232 160.498 142.371 160.306 142.552C160.114 142.723 159.965 142.931 159.858 143.176C159.751 143.411 159.698 143.667 159.698 143.944V149H158.034Z" fill="#444444"/>
<rect x="1" y="1" width="195" height="178" rx="9" stroke="url(#paint4_linear_1_131)" stroke-width="2"/>
<defs>
<filter id="filter0_f_1_131" x="-74.2851" y="98.7149" width="212.57" height="182.57" filterUnits="userSpaceOnUse" color-interpolation-filters="sRGB">
<feFlood flood-opacity="0" result="BackgroundImageFix"/>
<feBlend mode="normal" in="SourceGraphic" in2="BackgroundImageFix" result="shape"/>
<feGaussianBlur stdDeviation="17.6425" result="effect1_foregroundBlur_1_131"/>
</filter>
<filter id="filter1_f_1_131" x="94.5367" y="-65.0067" width="167.258" height="258.423" filterUnits="userSpaceOnUse" color-interpolation-filters="sRGB">
<feFlood flood-opacity="0" result="BackgroundImageFix"/>
<feBlend mode="normal" in="SourceGraphic" in2="BackgroundImageFix" result="shape"/>
<feGaussianBlur stdDeviation="17.6425" result="effect1_foregroundBlur_1_131"/>
</filter>
<linearGradient id="paint0_linear_1_131" x1="57.8896" y1="121.883" x2="57.8896" y2="214.856" gradientUnits="userSpaceOnUse">
<stop stop-color="#FCA9C7"/>
<stop offset="1" stop-color="#DFA1ED"/>
</linearGradient>
<linearGradient id="paint1_linear_1_131" x1="215.448" y1="48.7958" x2="127.834" y2="79.9845" gradientUnits="userSpaceOnUse">
<stop stop-color="#8279E3"/>
<stop offset="1" stop-color="#7061A3" stop-opacity="0.14"/>
</linearGradient>
<linearGradient id="paint2_linear_1_131" x1="80.0832" y1="31.3143" x2="124.392" y2="69.3791" gradientUnits="userSpaceOnUse">
<stop stop-color="#FCA9C7"/>
<stop offset="1" stop-color="#8279E3"/>
</linearGradient>
<linearGradient id="paint3_linear_1_131" x1="90.5571" y1="45.2664" x2="109.708" y2="61.5949" gradientUnits="userSpaceOnUse">
<stop stop-color="#FCA9C7"/>
<stop offset="1" stop-color="#8279E3"/>
</linearGradient>
<linearGradient id="paint4_linear_1_131" x1="-4.27689e-06" y1="5.49899" x2="222.093" y2="137.913" gradientUnits="userSpaceOnUse">
<stop stop-color="#7598EC"/>
<stop offset="0.34375" stop-color="#8279E3"/>
<stop offset="0.682292" stop-color="#DFA1ED"/>
<stop offset="1" stop-color="#FFCDEA"/>
</linearGradient>
<clipPath id="clip0_1_131">
<rect width="197" height="180" rx="10" fill="white"/>
</clipPath>
</defs>
</svg>
