<svg width="197" height="293" viewBox="0 0 197 293" fill="none" xmlns="http://www.w3.org/2000/svg">
<circle r="12.3488" transform="matrix(1 0 0 -1 98.3488 280.253)" fill="#7598EC" fill-opacity="0.27"/>
<circle r="6.17442" transform="matrix(1 0 0 -1 98.3487 279.481)" fill="#8279E3"/>
<line y1="-0.5" x2="164.394" y2="-0.5" transform="matrix(0 1 1 0 98.3491 112)" stroke="#8279E3" stroke-dasharray="2 2"/>
<rect x="1" y="1" width="195" height="178" rx="9" fill="#F1F1F1"/>
<g opacity="0.2">
<g clip-path="url(#clip0_1_132)">
<g filter="url(#filter0_f_1_132)">
<path d="M101.695 234.589C101.695 260.263 76.1216 234.589 11.7146 234.589C-52.6925 234.589 -37.4194 168.47 -37.4194 142.797C-37.4194 117.123 -13.0301 155.817 51.377 155.817C115.784 155.817 101.695 208.916 101.695 234.589Z" fill="url(#paint0_linear_1_132)"/>
</g>
<g filter="url(#filter1_f_1_132)">
<path d="M204.674 157.186C180.48 165.798 182.419 114.051 164.176 62.8016C145.932 11.552 114.413 -19.7931 138.607 -28.4056C162.801 -37.0182 197.204 -2.45392 215.448 48.7958C233.692 100.045 228.868 148.573 204.674 157.186Z" fill="url(#paint1_linear_1_132)"/>
</g>
</g>
</g>
<path d="M103.808 72.3147C102.308 72.7956 100.75 73.0714 99.1762 73.1349C97.1431 73.2111 95.1123 72.9331 93.1742 72.313C92.0722 71.9605 91.0335 72.465 90.6951 73.4673C90.3433 74.5079 90.8951 75.5169 92.0288 75.8994C94.1295 76.611 96.2935 76.9184 97.5856 76.9267C100.652 76.9267 102.754 76.611 104.806 75.9763C105.21 75.8761 105.58 75.669 105.877 75.3766C106.151 75.0762 106.323 74.6973 106.371 74.2932C106.418 73.8892 106.337 73.4805 106.14 73.1248C105.667 72.3364 104.775 72.0107 103.808 72.3147Z" fill="url(#paint2_linear_1_132)"/>
<path d="M126.432 44.0543C126.432 40.4195 124.221 37.4394 120.752 36.3787C120.605 36.3444 120.474 36.2647 120.376 36.151C120.277 36.0373 120.218 35.8954 120.205 35.7456C119.296 31.2923 116.673 28.2888 112.469 26.6618C110.673 25.9653 108.778 25.9469 106.884 26.0087C106.55 26.0187 106.383 25.9719 106.337 25.5644C106.288 25.1361 106.084 24.7407 105.764 24.4536C105.443 24.1665 105.028 24.0077 104.598 24.0075C100.523 23.9975 96.4491 23.9975 92.3755 24.0075C91.9565 24.0094 91.5523 24.1624 91.2366 24.4385C90.921 24.7145 90.7151 25.0952 90.6567 25.5109C90.6083 25.9903 90.4016 26.012 90.0281 26.012C88.596 25.987 87.1505 25.9185 85.755 26.3044C80.8751 27.6524 77.8575 30.7928 76.7821 35.769C76.7171 36.0697 76.6237 36.2701 76.2819 36.3754C72.8008 37.411 70.5634 40.3961 70.5584 44.0126C70.5501 49.3663 70.5584 54.7184 70.5584 60.0721C70.5556 60.675 70.6244 61.2762 70.7635 61.8628C71.472 64.8211 73.431 66.5968 76.2052 67.5857C76.527 67.7009 76.6721 67.8045 76.6887 68.167C76.7472 68.9539 76.8625 69.7354 77.0339 70.5056C78.6377 78.8143 85.5683 85.8318 93.8093 87.5072C94.6246 87.6743 95.4765 87.701 96.2568 88H97.2571C97.3755 87.9496 97.5028 87.9236 97.6314 87.9236C97.7601 87.9236 97.8873 87.9496 98.0057 88H99.006C99.1244 87.9496 99.2517 87.9236 99.3803 87.9236C99.509 87.9236 99.6362 87.9496 99.7546 88H100.378C100.425 87.8697 100.537 87.8964 100.635 87.8898C102.123 87.774 103.591 87.4807 105.01 87.0161C113.512 84.3251 119.491 76.9401 120.325 68.0885C120.355 67.7728 120.491 67.6909 120.762 67.6074C124.263 66.5266 126.443 63.5516 126.445 59.865C126.442 54.5942 126.437 49.324 126.432 44.0543ZM106.659 29.7588C108.421 29.7588 110.188 29.687 111.847 30.457C114.131 31.5194 115.536 33.3352 116.332 35.6788C116.356 35.7886 116.371 35.9004 116.375 36.0129H110.62C109.394 36.0129 108.169 35.9979 106.952 36.0129C106.547 36.0129 106.37 35.9561 106.378 35.485C106.408 33.7361 106.378 31.9872 106.395 30.2382C106.388 30.0578 106.258 29.7621 106.659 29.7588ZM94.3645 28.1251C94.3645 27.8194 94.4562 27.7443 94.7513 27.7459C97.2438 27.7576 99.738 27.761 102.23 27.7459C102.599 27.7459 102.622 27.8963 102.621 28.1836C102.611 29.4331 102.621 30.6892 102.621 31.932C102.621 33.1748 102.609 34.3892 102.621 35.617C102.621 35.9511 102.527 36.0313 102.202 36.0296C99.7302 36.0162 97.2577 36.0162 94.7847 36.0296C94.4712 36.0296 94.3579 35.9645 94.3612 35.6237C94.379 33.1225 94.3801 30.623 94.3645 28.1251ZM80.7234 35.4533C81.6887 32.4783 83.7611 30.7527 86.7254 30.001C87.8924 29.7054 89.0711 29.7688 90.2532 29.7588C90.5199 29.7588 90.6133 29.8407 90.6116 30.1146C90.6033 31.9654 90.5983 33.8179 90.6116 35.6688C90.6116 36.0747 90.3765 36.0229 90.1281 36.0229H85.6433C84.1428 36.0229 82.654 36.0079 81.1602 36.0229C80.6867 36.0363 80.555 35.9661 80.7234 35.4533ZM116.482 68.4944C115.91 72.5402 114.198 76.0214 111.313 78.8911C107.627 82.5661 103.144 84.3601 97.9541 84.2215C93.8471 84.0983 89.9029 82.5851 86.7642 79.9284C83.6255 77.2717 81.4774 73.6283 80.67 69.5919C80.3449 67.9398 80.3449 67.9398 82.0438 67.9398H85.7851V67.8864C87.3006 67.8864 88.8194 67.9398 90.3332 67.873C92.3555 67.7845 94.0995 66.9543 95.5816 65.5912C97.5256 63.8094 99.4707 63.8094 101.417 65.5912C103.157 67.2015 105.241 67.9298 107.599 67.9298C110.385 67.9298 113.169 67.9298 115.955 67.9198C116.39 67.9264 116.555 67.9766 116.482 68.4944ZM118.256 64.1613C114.705 64.0778 111.15 64.1229 107.596 64.1463C106.891 64.164 106.189 64.0401 105.533 63.7819C104.877 63.5237 104.279 63.1364 103.774 62.6429C100.702 59.7413 96.2535 59.7631 93.1708 62.6796C92.6901 63.1541 92.12 63.5281 91.4938 63.7798C90.8676 64.0316 90.1976 64.1562 89.5229 64.1463C85.8651 64.1346 82.2072 64.1463 78.5493 64.1463C76.1452 64.1463 74.3447 62.4341 74.3263 60.0136C74.2852 54.6616 74.2852 49.3095 74.3263 43.9575C74.3413 41.5671 76.2719 39.8014 78.7594 39.8231C85.3482 39.8783 91.9304 39.8415 98.5242 39.8415C105.118 39.8415 111.659 39.8415 118.226 39.8415C120.411 39.8415 121.942 40.9256 122.499 42.8483C122.623 43.289 122.683 43.7452 122.679 44.203C122.679 49.3813 122.667 54.5747 122.679 59.7597C122.69 62.6963 120.375 64.2114 118.256 64.1613Z" fill="url(#paint3_linear_1_132)"/>
<path d="M59.568 119V107.8H61.264L65.344 114.44L64.528 114.424L68.656 107.8H70.256V119H68.528V114.408C68.528 113.448 68.5493 112.584 68.592 111.816C68.6453 111.048 68.7307 110.285 68.848 109.528L69.072 110.12L65.408 115.784H64.352L60.8 110.184L60.976 109.528C61.0933 110.243 61.1733 110.979 61.216 111.736C61.2693 112.483 61.296 113.373 61.296 114.408V119H59.568ZM76.9001 119.16C76.0361 119.16 75.2681 118.979 74.5961 118.616C73.9348 118.243 73.4121 117.736 73.0281 117.096C72.6548 116.456 72.4681 115.72 72.4681 114.888C72.4681 114.227 72.5748 113.624 72.7881 113.08C73.0015 112.536 73.2948 112.067 73.6681 111.672C74.0521 111.267 74.5055 110.957 75.0281 110.744C75.5615 110.52 76.1375 110.408 76.7561 110.408C77.3001 110.408 77.8068 110.515 78.2761 110.728C78.7455 110.931 79.1508 111.213 79.4921 111.576C79.8441 111.939 80.1108 112.371 80.2921 112.872C80.4841 113.363 80.5748 113.901 80.5641 114.488L80.5481 115.192H73.6841L73.3161 113.88H79.1241L78.8841 114.152V113.768C78.8521 113.416 78.7348 113.101 78.5321 112.824C78.3295 112.547 78.0735 112.328 77.7641 112.168C77.4548 112.008 77.1188 111.928 76.7561 111.928C76.1801 111.928 75.6948 112.04 75.3001 112.264C74.9055 112.477 74.6068 112.797 74.4041 113.224C74.2015 113.64 74.1001 114.157 74.1001 114.776C74.1001 115.363 74.2228 115.875 74.4681 116.312C74.7135 116.739 75.0601 117.069 75.5081 117.304C75.9561 117.539 76.4735 117.656 77.0601 117.656C77.4761 117.656 77.8601 117.587 78.2121 117.448C78.5748 117.309 78.9641 117.059 79.3801 116.696L80.2121 117.864C79.9561 118.12 79.6415 118.344 79.2681 118.536C78.9055 118.728 78.5161 118.883 78.1001 119C77.6948 119.107 77.2948 119.16 76.9001 119.16ZM83.3951 119V108.456H85.0431V119H83.3951ZM81.6511 112.2V110.6H86.9951V112.2H81.6511ZM91.6496 119.16C90.9563 119.16 90.3216 118.968 89.7456 118.584C89.1803 118.2 88.727 117.677 88.3856 117.016C88.0443 116.355 87.8736 115.608 87.8736 114.776C87.8736 113.933 88.0443 113.187 88.3856 112.536C88.7376 111.875 89.207 111.357 89.7936 110.984C90.391 110.611 91.0576 110.424 91.7936 110.424C92.231 110.424 92.631 110.488 92.9936 110.616C93.3563 110.744 93.671 110.925 93.9376 111.16C94.215 111.384 94.439 111.645 94.6096 111.944C94.791 112.243 94.903 112.563 94.9456 112.904L94.5776 112.776V110.6H96.2416V119H94.5776V117L94.9616 116.888C94.8976 117.176 94.7643 117.459 94.5616 117.736C94.3696 118.003 94.119 118.243 93.8096 118.456C93.511 118.669 93.175 118.84 92.8016 118.968C92.439 119.096 92.055 119.16 91.6496 119.16ZM92.0816 117.64C92.583 117.64 93.0256 117.517 93.4096 117.272C93.7936 117.027 94.0923 116.691 94.3056 116.264C94.5296 115.827 94.6416 115.331 94.6416 114.776C94.6416 114.232 94.5296 113.747 94.3056 113.32C94.0923 112.893 93.7936 112.557 93.4096 112.312C93.0256 112.067 92.583 111.944 92.0816 111.944C91.591 111.944 91.1536 112.067 90.7696 112.312C90.3963 112.557 90.0976 112.893 89.8736 113.32C89.6603 113.747 89.5536 114.232 89.5536 114.776C89.5536 115.331 89.6603 115.827 89.8736 116.264C90.0976 116.691 90.3963 117.027 90.7696 117.272C91.1536 117.517 91.591 117.64 92.0816 117.64ZM101.107 119L97.5551 110.6H99.3311L101.891 116.888L101.587 117.032L104.323 110.6H106.019L102.291 119H101.107ZM111.213 119.16C110.349 119.16 109.581 118.979 108.909 118.616C108.247 118.243 107.725 117.736 107.341 117.096C106.967 116.456 106.781 115.72 106.781 114.888C106.781 114.227 106.887 113.624 107.101 113.08C107.314 112.536 107.607 112.067 107.981 111.672C108.365 111.267 108.818 110.957 109.341 110.744C109.874 110.52 110.45 110.408 111.069 110.408C111.613 110.408 112.119 110.515 112.589 110.728C113.058 110.931 113.463 111.213 113.805 111.576C114.157 111.939 114.423 112.371 114.605 112.872C114.797 113.363 114.887 113.901 114.877 114.488L114.861 115.192H107.997L107.629 113.88H113.437L113.197 114.152V113.768C113.165 113.416 113.047 113.101 112.845 112.824C112.642 112.547 112.386 112.328 112.077 112.168C111.767 112.008 111.431 111.928 111.069 111.928C110.493 111.928 110.007 112.04 109.613 112.264C109.218 112.477 108.919 112.797 108.717 113.224C108.514 113.64 108.413 114.157 108.413 114.776C108.413 115.363 108.535 115.875 108.781 116.312C109.026 116.739 109.373 117.069 109.821 117.304C110.269 117.539 110.786 117.656 111.373 117.656C111.789 117.656 112.173 117.587 112.525 117.448C112.887 117.309 113.277 117.059 113.693 116.696L114.525 117.864C114.269 118.12 113.954 118.344 113.581 118.536C113.218 118.728 112.829 118.883 112.413 119C112.007 119.107 111.607 119.16 111.213 119.16ZM116.668 119V110.6H118.332V113.24L118.172 112.6C118.289 112.195 118.486 111.827 118.764 111.496C119.052 111.165 119.377 110.904 119.74 110.712C120.113 110.52 120.497 110.424 120.892 110.424C121.073 110.424 121.244 110.44 121.404 110.472C121.574 110.504 121.708 110.541 121.804 110.584L121.372 112.376C121.244 112.323 121.1 112.28 120.94 112.248C120.79 112.205 120.641 112.184 120.492 112.184C120.204 112.184 119.926 112.243 119.66 112.36C119.404 112.467 119.174 112.621 118.972 112.824C118.78 113.016 118.625 113.245 118.508 113.512C118.39 113.768 118.332 114.051 118.332 114.36V119H116.668ZM125.921 119.16C125.217 119.16 124.582 119.037 124.017 118.792C123.451 118.547 122.982 118.184 122.609 117.704L123.729 116.744C124.049 117.117 124.395 117.389 124.769 117.56C125.153 117.72 125.585 117.8 126.065 117.8C126.257 117.8 126.433 117.779 126.593 117.736C126.763 117.683 126.907 117.608 127.025 117.512C127.153 117.416 127.249 117.304 127.313 117.176C127.377 117.037 127.409 116.888 127.409 116.728C127.409 116.451 127.307 116.227 127.105 116.056C126.998 115.981 126.827 115.901 126.593 115.816C126.369 115.72 126.075 115.624 125.713 115.528C125.094 115.368 124.587 115.187 124.193 114.984C123.798 114.781 123.494 114.552 123.281 114.296C123.121 114.093 123.003 113.875 122.929 113.64C122.854 113.395 122.817 113.128 122.817 112.84C122.817 112.488 122.891 112.168 123.041 111.88C123.201 111.581 123.414 111.325 123.681 111.112C123.958 110.888 124.278 110.717 124.641 110.6C125.014 110.483 125.409 110.424 125.825 110.424C126.219 110.424 126.609 110.477 126.993 110.584C127.387 110.691 127.75 110.845 128.081 111.048C128.411 111.251 128.689 111.491 128.913 111.768L127.969 112.808C127.766 112.605 127.542 112.429 127.297 112.28C127.062 112.12 126.822 111.997 126.577 111.912C126.331 111.827 126.107 111.784 125.905 111.784C125.681 111.784 125.478 111.805 125.297 111.848C125.115 111.891 124.961 111.955 124.833 112.04C124.715 112.125 124.625 112.232 124.561 112.36C124.497 112.488 124.465 112.632 124.465 112.792C124.475 112.931 124.507 113.064 124.561 113.192C124.625 113.309 124.71 113.411 124.817 113.496C124.934 113.581 125.11 113.672 125.345 113.768C125.579 113.864 125.878 113.955 126.241 114.04C126.774 114.179 127.211 114.333 127.553 114.504C127.905 114.664 128.182 114.851 128.385 115.064C128.598 115.267 128.747 115.501 128.833 115.768C128.918 116.035 128.961 116.333 128.961 116.664C128.961 117.144 128.822 117.576 128.545 117.96C128.278 118.333 127.915 118.627 127.457 118.84C126.998 119.053 126.486 119.16 125.921 119.16ZM134.697 119.16C133.833 119.16 133.065 118.979 132.393 118.616C131.732 118.243 131.209 117.736 130.825 117.096C130.452 116.456 130.265 115.72 130.265 114.888C130.265 114.227 130.372 113.624 130.585 113.08C130.798 112.536 131.092 112.067 131.465 111.672C131.849 111.267 132.302 110.957 132.825 110.744C133.358 110.52 133.934 110.408 134.553 110.408C135.097 110.408 135.604 110.515 136.073 110.728C136.542 110.931 136.948 111.213 137.289 111.576C137.641 111.939 137.908 112.371 138.089 112.872C138.281 113.363 138.372 113.901 138.361 114.488L138.345 115.192H131.481L131.113 113.88H136.921L136.681 114.152V113.768C136.649 113.416 136.532 113.101 136.329 112.824C136.126 112.547 135.87 112.328 135.561 112.168C135.252 112.008 134.916 111.928 134.553 111.928C133.977 111.928 133.492 112.04 133.097 112.264C132.702 112.477 132.404 112.797 132.201 113.224C131.998 113.64 131.897 114.157 131.897 114.776C131.897 115.363 132.02 115.875 132.265 116.312C132.51 116.739 132.857 117.069 133.305 117.304C133.753 117.539 134.27 117.656 134.857 117.656C135.273 117.656 135.657 117.587 136.009 117.448C136.372 117.309 136.761 117.059 137.177 116.696L138.009 117.864C137.753 118.12 137.438 118.344 137.065 118.536C136.702 118.728 136.313 118.883 135.897 119C135.492 119.107 135.092 119.16 134.697 119.16ZM28.3404 137V126.456H29.9884V137H28.3404ZM26.5964 130.2V128.6H31.9404V130.2H26.5964ZM37.2829 137.16C36.4189 137.16 35.6509 136.979 34.9789 136.616C34.3176 136.243 33.7949 135.736 33.4109 135.096C33.0376 134.456 32.8509 133.72 32.8509 132.888C32.8509 132.227 32.9576 131.624 33.1709 131.08C33.3843 130.536 33.6776 130.067 34.0509 129.672C34.4349 129.267 34.8883 128.957 35.4109 128.744C35.9443 128.52 36.5203 128.408 37.1389 128.408C37.6829 128.408 38.1896 128.515 38.6589 128.728C39.1283 128.931 39.5336 129.213 39.8749 129.576C40.2269 129.939 40.4936 130.371 40.6749 130.872C40.8669 131.363 40.9576 131.901 40.9469 132.488L40.9309 133.192H34.0669L33.6989 131.88H39.5069L39.2669 132.152V131.768C39.2349 131.416 39.1176 131.101 38.9149 130.824C38.7123 130.547 38.4563 130.328 38.1469 130.168C37.8376 130.008 37.5016 129.928 37.1389 129.928C36.5629 129.928 36.0776 130.04 35.6829 130.264C35.2883 130.477 34.9896 130.797 34.7869 131.224C34.5843 131.64 34.4829 132.157 34.4829 132.776C34.4829 133.363 34.6056 133.875 34.8509 134.312C35.0963 134.739 35.4429 135.069 35.8909 135.304C36.3389 135.539 36.8563 135.656 37.4429 135.656C37.8589 135.656 38.2429 135.587 38.5949 135.448C38.9576 135.309 39.3469 135.059 39.7629 134.696L40.5949 135.864C40.3389 136.12 40.0243 136.344 39.6509 136.536C39.2883 136.728 38.8989 136.883 38.4829 137C38.0776 137.107 37.6776 137.16 37.2829 137.16ZM42.7699 137V125.16H44.4179V137H42.7699ZM50.5173 137.16C49.6533 137.16 48.8853 136.979 48.2133 136.616C47.552 136.243 47.0293 135.736 46.6453 135.096C46.272 134.456 46.0853 133.72 46.0853 132.888C46.0853 132.227 46.192 131.624 46.4053 131.08C46.6186 130.536 46.912 130.067 47.2853 129.672C47.6693 129.267 48.1226 128.957 48.6453 128.744C49.1786 128.52 49.7546 128.408 50.3733 128.408C50.9173 128.408 51.424 128.515 51.8933 128.728C52.3626 128.931 52.768 129.213 53.1093 129.576C53.4613 129.939 53.728 130.371 53.9093 130.872C54.1013 131.363 54.192 131.901 54.1813 132.488L54.1653 133.192H47.3013L46.9333 131.88H52.7413L52.5013 132.152V131.768C52.4693 131.416 52.352 131.101 52.1493 130.824C51.9466 130.547 51.6906 130.328 51.3813 130.168C51.072 130.008 50.736 129.928 50.3733 129.928C49.7973 129.928 49.312 130.04 48.9173 130.264C48.5226 130.477 48.224 130.797 48.0213 131.224C47.8186 131.64 47.7173 132.157 47.7173 132.776C47.7173 133.363 47.84 133.875 48.0853 134.312C48.3306 134.739 48.6773 135.069 49.1253 135.304C49.5733 135.539 50.0906 135.656 50.6773 135.656C51.0933 135.656 51.4773 135.587 51.8293 135.448C52.192 135.309 52.5813 135.059 52.9973 134.696L53.8293 135.864C53.5733 136.12 53.2586 136.344 52.8853 136.536C52.5226 136.728 52.1333 136.883 51.7173 137C51.312 137.107 50.912 137.16 50.5173 137.16ZM55.9723 140.52V128.6H57.6363V130.52L57.3803 130.376C57.4443 130.056 57.6256 129.752 57.9243 129.464C58.223 129.165 58.5856 128.925 59.0123 128.744C59.4496 128.552 59.8976 128.456 60.3563 128.456C61.1136 128.456 61.7856 128.643 62.3723 129.016C62.959 129.389 63.423 129.901 63.7643 130.552C64.1056 131.203 64.2763 131.949 64.2763 132.792C64.2763 133.624 64.1056 134.371 63.7643 135.032C63.4336 135.683 62.975 136.2 62.3883 136.584C61.8016 136.957 61.1403 137.144 60.4043 137.144C59.9136 137.144 59.439 137.048 58.9803 136.856C58.5216 136.653 58.1323 136.397 57.8123 136.088C57.4923 135.779 57.295 135.459 57.2203 135.128L57.6363 134.904V140.52H55.9723ZM60.1323 135.624C60.623 135.624 61.0603 135.501 61.4443 135.256C61.8283 135.011 62.1323 134.675 62.3563 134.248C62.5803 133.821 62.6923 133.336 62.6923 132.792C62.6923 132.248 62.5803 131.768 62.3563 131.352C62.143 130.925 61.8443 130.589 61.4603 130.344C61.0763 130.099 60.6336 129.976 60.1323 129.976C59.631 129.976 59.1883 130.099 58.8043 130.344C58.4203 130.579 58.1163 130.909 57.8923 131.336C57.6683 131.763 57.5563 132.248 57.5563 132.792C57.5563 133.336 57.6683 133.821 57.8923 134.248C58.1163 134.675 58.4203 135.011 58.8043 135.256C59.1883 135.501 59.631 135.624 60.1323 135.624ZM69.8421 137.16C69.0207 137.16 68.2847 136.973 67.6341 136.6C66.9941 136.216 66.4874 135.699 66.1141 135.048C65.7407 134.387 65.5541 133.635 65.5541 132.792C65.5541 131.949 65.7407 131.203 66.1141 130.552C66.4874 129.891 66.9941 129.373 67.6341 129C68.2847 128.616 69.0207 128.424 69.8421 128.424C70.6527 128.424 71.3781 128.616 72.0181 129C72.6687 129.373 73.1807 129.891 73.5541 130.552C73.9274 131.203 74.1141 131.949 74.1141 132.792C74.1141 133.635 73.9274 134.387 73.5541 135.048C73.1807 135.699 72.6687 136.216 72.0181 136.6C71.3781 136.973 70.6527 137.16 69.8421 137.16ZM69.8421 135.656C70.3434 135.656 70.7914 135.533 71.1861 135.288C71.5807 135.032 71.8901 134.691 72.1141 134.264C72.3381 133.827 72.4447 133.336 72.4341 132.792C72.4447 132.237 72.3381 131.747 72.1141 131.32C71.8901 130.883 71.5807 130.541 71.1861 130.296C70.7914 130.051 70.3434 129.928 69.8421 129.928C69.3407 129.928 68.8874 130.056 68.4821 130.312C68.0874 130.557 67.7781 130.899 67.5541 131.336C67.3301 131.763 67.2234 132.248 67.2341 132.792C67.2234 133.336 67.3301 133.827 67.5541 134.264C67.7781 134.691 68.0874 135.032 68.4821 135.288C68.8874 135.533 69.3407 135.656 69.8421 135.656ZM75.9098 137V128.6H77.5738V131.24L77.4138 130.6C77.5311 130.195 77.7285 129.827 78.0058 129.496C78.2938 129.165 78.6191 128.904 78.9818 128.712C79.3551 128.52 79.7391 128.424 80.1338 128.424C80.3151 128.424 80.4858 128.44 80.6458 128.472C80.8165 128.504 80.9498 128.541 81.0458 128.584L80.6138 130.376C80.4858 130.323 80.3418 130.28 80.1818 130.248C80.0325 130.205 79.8831 130.184 79.7338 130.184C79.4458 130.184 79.1685 130.243 78.9018 130.36C78.6458 130.467 78.4165 130.621 78.2138 130.824C78.0218 131.016 77.8671 131.245 77.7498 131.512C77.6325 131.768 77.5738 132.051 77.5738 132.36V137H75.9098ZM83.7154 137V126.456H85.3634V137H83.7154ZM81.9714 130.2V128.6H87.3154V130.2H81.9714ZM91.9699 137.16C91.2766 137.16 90.6419 136.968 90.0659 136.584C89.5006 136.2 89.0473 135.677 88.7059 135.016C88.3646 134.355 88.1939 133.608 88.1939 132.776C88.1939 131.933 88.3646 131.187 88.7059 130.536C89.0579 129.875 89.5273 129.357 90.1139 128.984C90.7113 128.611 91.3779 128.424 92.1139 128.424C92.5513 128.424 92.9513 128.488 93.3139 128.616C93.6766 128.744 93.9913 128.925 94.2579 129.16C94.5353 129.384 94.7593 129.645 94.9299 129.944C95.1113 130.243 95.2233 130.563 95.2659 130.904L94.8979 130.776V128.6H96.5619V137H94.8979V135L95.2819 134.888C95.2179 135.176 95.0846 135.459 94.8819 135.736C94.6899 136.003 94.4393 136.243 94.1299 136.456C93.8313 136.669 93.4953 136.84 93.1219 136.968C92.7593 137.096 92.3753 137.16 91.9699 137.16ZM92.4019 135.64C92.9033 135.64 93.3459 135.517 93.7299 135.272C94.1139 135.027 94.4126 134.691 94.6259 134.264C94.8499 133.827 94.9619 133.331 94.9619 132.776C94.9619 132.232 94.8499 131.747 94.6259 131.32C94.4126 130.893 94.1139 130.557 93.7299 130.312C93.3459 130.067 92.9033 129.944 92.4019 129.944C91.9113 129.944 91.4739 130.067 91.0899 130.312C90.7166 130.557 90.4179 130.893 90.1939 131.32C89.9806 131.747 89.8739 132.232 89.8739 132.776C89.8739 133.331 89.9806 133.827 90.1939 134.264C90.4179 134.691 90.7166 135.027 91.0899 135.272C91.4739 135.517 91.9113 135.64 92.4019 135.64ZM99.9029 137V126.456H101.551V137H99.9029ZM98.1589 130.2V128.6H103.503V130.2H98.1589ZM105.276 137V128.6H106.924V137H105.276ZM106.076 126.744C105.724 126.744 105.452 126.653 105.26 126.472C105.068 126.291 104.972 126.035 104.972 125.704C104.972 125.395 105.068 125.144 105.26 124.952C105.462 124.76 105.734 124.664 106.076 124.664C106.428 124.664 106.7 124.755 106.892 124.936C107.084 125.117 107.18 125.373 107.18 125.704C107.18 126.013 107.078 126.264 106.876 126.456C106.684 126.648 106.417 126.744 106.076 126.744ZM113.233 137.16C112.411 137.16 111.675 136.973 111.025 136.6C110.385 136.216 109.878 135.699 109.505 135.048C109.131 134.387 108.945 133.635 108.945 132.792C108.945 131.949 109.131 131.203 109.505 130.552C109.878 129.891 110.385 129.373 111.025 129C111.675 128.616 112.411 128.424 113.233 128.424C114.043 128.424 114.769 128.616 115.409 129C116.059 129.373 116.571 129.891 116.945 130.552C117.318 131.203 117.505 131.949 117.505 132.792C117.505 133.635 117.318 134.387 116.945 135.048C116.571 135.699 116.059 136.216 115.409 136.6C114.769 136.973 114.043 137.16 113.233 137.16ZM113.233 135.656C113.734 135.656 114.182 135.533 114.577 135.288C114.971 135.032 115.281 134.691 115.505 134.264C115.729 133.827 115.835 133.336 115.825 132.792C115.835 132.237 115.729 131.747 115.505 131.32C115.281 130.883 114.971 130.541 114.577 130.296C114.182 130.051 113.734 129.928 113.233 129.928C112.731 129.928 112.278 130.056 111.873 130.312C111.478 130.557 111.169 130.899 110.945 131.336C110.721 131.763 110.614 132.248 110.625 132.792C110.614 133.336 110.721 133.827 110.945 134.264C111.169 134.691 111.478 135.032 111.873 135.288C112.278 135.533 112.731 135.656 113.233 135.656ZM119.3 137V128.6H120.948V130.328L120.66 130.52C120.767 130.147 120.975 129.805 121.284 129.496C121.594 129.176 121.962 128.92 122.388 128.728C122.815 128.525 123.252 128.424 123.7 128.424C124.34 128.424 124.874 128.552 125.3 128.808C125.727 129.053 126.047 129.432 126.26 129.944C126.474 130.456 126.58 131.101 126.58 131.88V137H124.932V131.992C124.932 131.512 124.868 131.117 124.74 130.808C124.612 130.488 124.415 130.259 124.148 130.12C123.882 129.971 123.551 129.907 123.156 129.928C122.836 129.928 122.543 129.981 122.276 130.088C122.01 130.184 121.775 130.323 121.572 130.504C121.38 130.685 121.226 130.899 121.108 131.144C121.002 131.379 120.948 131.635 120.948 131.912V137H120.132C119.994 137 119.855 137 119.716 137C119.578 137 119.439 137 119.3 137ZM136.052 137L132.5 128.6H134.276L136.836 134.888L136.532 135.032L139.268 128.6H140.964L137.236 137H136.052ZM145.47 137.16C144.777 137.16 144.142 136.968 143.566 136.584C143.001 136.2 142.547 135.677 142.206 135.016C141.865 134.355 141.694 133.608 141.694 132.776C141.694 131.933 141.865 131.187 142.206 130.536C142.558 129.875 143.027 129.357 143.614 128.984C144.211 128.611 144.878 128.424 145.614 128.424C146.051 128.424 146.451 128.488 146.814 128.616C147.177 128.744 147.491 128.925 147.758 129.16C148.035 129.384 148.259 129.645 148.43 129.944C148.611 130.243 148.723 130.563 148.766 130.904L148.398 130.776V128.6H150.062V137H148.398V135L148.782 134.888C148.718 135.176 148.585 135.459 148.382 135.736C148.19 136.003 147.939 136.243 147.63 136.456C147.331 136.669 146.995 136.84 146.622 136.968C146.259 137.096 145.875 137.16 145.47 137.16ZM145.902 135.64C146.403 135.64 146.846 135.517 147.23 135.272C147.614 135.027 147.913 134.691 148.126 134.264C148.35 133.827 148.462 133.331 148.462 132.776C148.462 132.232 148.35 131.747 148.126 131.32C147.913 130.893 147.614 130.557 147.23 130.312C146.846 130.067 146.403 129.944 145.902 129.944C145.411 129.944 144.974 130.067 144.59 130.312C144.217 130.557 143.918 130.893 143.694 131.32C143.481 131.747 143.374 132.232 143.374 132.776C143.374 133.331 143.481 133.827 143.694 134.264C143.918 134.691 144.217 135.027 144.59 135.272C144.974 135.517 145.411 135.64 145.902 135.64ZM155.151 137.16C154.553 137.16 154.031 137.021 153.583 136.744C153.145 136.467 152.804 136.077 152.559 135.576C152.324 135.075 152.207 134.477 152.207 133.784V128.6H153.855V133.336C153.855 133.827 153.929 134.253 154.079 134.616C154.239 134.968 154.463 135.24 154.751 135.432C155.049 135.624 155.407 135.72 155.823 135.72C156.132 135.72 156.415 135.672 156.671 135.576C156.927 135.469 157.145 135.325 157.327 135.144C157.519 134.963 157.668 134.744 157.775 134.488C157.881 134.232 157.935 133.955 157.935 133.656V128.6H159.583V137H157.935V135.24L158.223 135.048C158.095 135.443 157.876 135.8 157.567 136.12C157.268 136.44 156.911 136.696 156.495 136.888C156.079 137.069 155.631 137.16 155.151 137.16ZM161.926 137V125.16H163.574V137H161.926ZM166.903 137V126.456H168.551V137H166.903ZM165.159 130.2V128.6H170.503V130.2H165.159Z" fill="#444444"/>
<rect x="1" y="1" width="195" height="178" rx="9" stroke="url(#paint4_linear_1_132)" stroke-width="2"/>
<defs>
<filter id="filter0_f_1_132" x="-74.2851" y="98.7149" width="212.57" height="182.57" filterUnits="userSpaceOnUse" color-interpolation-filters="sRGB">
<feFlood flood-opacity="0" result="BackgroundImageFix"/>
<feBlend mode="normal" in="SourceGraphic" in2="BackgroundImageFix" result="shape"/>
<feGaussianBlur stdDeviation="17.6425" result="effect1_foregroundBlur_1_132"/>
</filter>
<filter id="filter1_f_1_132" x="94.5367" y="-65.0067" width="167.258" height="258.423" filterUnits="userSpaceOnUse" color-interpolation-filters="sRGB">
<feFlood flood-opacity="0" result="BackgroundImageFix"/>
<feBlend mode="normal" in="SourceGraphic" in2="BackgroundImageFix" result="shape"/>
<feGaussianBlur stdDeviation="17.6425" result="effect1_foregroundBlur_1_132"/>
</filter>
<linearGradient id="paint0_linear_1_132" x1="57.8896" y1="121.883" x2="57.8896" y2="214.856" gradientUnits="userSpaceOnUse">
<stop stop-color="#FCA9C7"/>
<stop offset="1" stop-color="#DFA1ED"/>
</linearGradient>
<linearGradient id="paint1_linear_1_132" x1="215.448" y1="48.7958" x2="127.834" y2="79.9845" gradientUnits="userSpaceOnUse">
<stop stop-color="#8279E3"/>
<stop offset="1" stop-color="#7061A3" stop-opacity="0.14"/>
</linearGradient>
<linearGradient id="paint2_linear_1_132" x1="93.3572" y1="72.741" x2="95.2223" y2="78.7847" gradientUnits="userSpaceOnUse">
<stop stop-color="#FCA9C7"/>
<stop offset="1" stop-color="#8279E3"/>
</linearGradient>
<linearGradient id="paint3_linear_1_132" x1="80.3477" y1="31.3143" x2="124.556" y2="68.7469" gradientUnits="userSpaceOnUse">
<stop stop-color="#FCA9C7"/>
<stop offset="1" stop-color="#8279E3"/>
</linearGradient>
<linearGradient id="paint4_linear_1_132" x1="-4.27689e-06" y1="5.49899" x2="222.093" y2="137.913" gradientUnits="userSpaceOnUse">
<stop stop-color="#7598EC"/>
<stop offset="0.34375" stop-color="#8279E3"/>
<stop offset="0.682292" stop-color="#DFA1ED"/>
<stop offset="1" stop-color="#FFCDEA"/>
</linearGradient>
<clipPath id="clip0_1_132">
<rect width="197" height="180" rx="10" fill="white"/>
</clipPath>
</defs>
</svg>
