<svg width="65" height="64" viewBox="0 0 65 64" fill="none" xmlns="http://www.w3.org/2000/svg">
<path d="M0.587891 30.4468C0.686029 30.6178 0.737676 30.8116 0.737676 31.0088C0.737676 31.2061 0.686029 31.3999 0.587891 31.5708V30.4468Z" fill="url(#paint0_linear_1_1554)"/>
<path d="M34.0953 0C33.9697 0.0949787 33.8166 0.146364 33.6592 0.146364C33.5019 0.146364 33.3488 0.0949787 33.2231 0H34.0953Z" fill="url(#paint1_linear_1_1554)"/>
<path d="M0.587891 32.6931C0.682936 32.8188 0.734374 32.9722 0.734374 33.13C0.734374 33.2877 0.682936 33.4412 0.587891 33.5669V32.6931Z" fill="url(#paint2_linear_1_1554)"/>
<path d="M30.7331 0C30.6498 0.133412 30.5666 0.156759 30.4834 0H30.7331Z" fill="url(#paint3_linear_1_1554)"/>
<path d="M63.9506 25.7222C63.1242 21.4617 61.4238 17.4196 58.9572 13.8517C58.7142 13.5015 58.6543 13.2046 58.879 12.8277C59.1192 12.4373 59.2931 12.0095 59.3933 11.562C59.861 9.34899 59.2918 7.45451 57.5241 6.03365C55.7198 4.58277 53.7108 4.406 51.6386 5.45163C51.1809 5.68177 50.863 5.6384 50.4518 5.35656C46.7655 2.80883 42.5739 1.0881 38.1631 0.311854C37.0596 0.118404 35.9427 0.145088 34.8342 0H34.0869C33.8053 0.103447 33.4962 0.103447 33.2147 0H30.718C30.7024 0.0177451 30.6832 0.0319571 30.6616 0.0416918C30.6401 0.0514265 30.6168 0.0564611 30.5932 0.0564611C30.5695 0.0564611 30.5462 0.0514265 30.5247 0.0416918C30.5031 0.0319571 30.4839 0.0177451 30.4683 0H29.8458C29.1567 0.135082 28.451 0.0750453 27.7569 0.166767C24.1527 0.674828 20.6655 1.81277 17.4539 3.5288C16.2614 4.16172 15.115 4.87838 14.0234 5.67343C13.3577 6.15372 13.2162 6.90083 13.6107 7.54121C14.0235 8.20828 14.7092 8.42174 15.4416 8.10489C15.6489 8.00829 15.8462 7.89156 16.0308 7.75635C18.2924 6.20067 20.7656 4.9791 23.3744 4.12916C24.5495 3.70594 25.7648 3.40473 27.0012 3.23028C26.1819 4.41598 25.4906 5.68555 24.939 7.01758C23.7389 9.77424 22.9416 12.6543 22.3574 15.5977C22.2725 16.0297 22.1094 16.3065 21.6434 16.4082C19.8124 16.8085 18.5142 17.8958 17.7668 19.6068C17.5388 20.1288 17.2325 20.3039 16.6783 20.3006C13.2761 20.2806 9.87228 20.3006 6.47013 20.2906C5.66286 20.2906 5.65454 20.2722 6.00907 19.5468C6.59985 18.2859 7.27668 17.0672 8.03472 15.8996C8.40091 15.3576 8.59565 14.7772 8.20117 14.1519C7.58366 13.1513 6.35861 13.213 5.65954 14.2803C3.0734 18.1726 1.39153 22.5966 0.737735 27.2264C0.641196 27.9202 0.701117 28.6289 0.571289 29.3194V30.4417C0.671187 30.8097 0.671187 31.1977 0.571289 31.5657V32.6881C0.674537 32.9702 0.674537 33.2798 0.571289 33.5619V34.5625C0.611845 34.6086 0.634322 34.6679 0.634539 34.7293C0.634539 37.2975 1.25205 39.7523 2.03768 42.1688C2.95363 44.9593 4.27316 47.6001 5.95415 50.0068C6.21214 50.3804 6.2604 50.7006 6.02904 51.0942C5.79385 51.4867 5.62513 51.9155 5.5297 52.3633C5.07697 54.5813 5.66287 56.4674 7.43552 57.8799C9.20817 59.2925 11.2205 59.4709 13.2711 58.4469C13.7505 58.2084 14.0884 58.2568 14.5161 58.5537C16.8034 60.1195 19.2828 61.383 21.893 62.3126C26.4769 63.9803 31.2256 64.2104 36.011 63.8585C39.6728 63.5884 43.1349 62.506 46.4322 60.8951C50.1371 59.0934 53.4602 56.5923 56.2192 53.529C58.0894 51.4908 59.6813 49.2129 60.9529 46.7549C62.9403 42.8609 64.2219 38.7634 64.3684 34.3557C64.4633 31.4606 64.5199 28.5789 63.9506 25.7222ZM54.1503 7.48952C54.6919 7.48986 55.2213 7.65116 55.6715 7.95302C56.1216 8.25488 56.4723 8.68373 56.6792 9.18533C56.886 9.68693 56.9397 10.2387 56.8334 10.7709C56.7272 11.3031 56.4658 11.7917 56.0823 12.175C55.6988 12.5583 55.2105 12.819 54.6791 12.9242C54.1477 13.0293 53.5971 12.9742 53.0969 12.7657C52.5968 12.5573 52.1696 12.2049 51.8695 11.7531C51.5693 11.3014 51.4096 10.7706 51.4106 10.2279C51.4255 9.50515 51.7192 8.81631 52.2299 8.30579C52.7407 7.79528 53.4289 7.50273 54.1503 7.48952V7.48952ZM41.8949 4.04911C44.4019 4.90066 46.7821 6.08887 48.9705 7.58125C49.3034 7.80306 49.4215 7.94646 49.2601 8.39673C48.5127 10.4797 48.9006 12.3858 50.4668 13.9467C52.0331 15.5077 53.9023 15.8662 55.9595 15.1391C56.3873 14.989 56.5488 15.0474 56.7834 15.3993C57.8539 16.992 58.7744 18.6808 59.5331 20.444C59.3783 20.444 59.2835 20.464 59.1886 20.464C54.0443 20.464 48.8989 20.464 43.7524 20.464C43.3529 20.464 43.2164 20.3973 43.1515 19.9487C42.5157 15.5177 41.5986 11.1534 39.8226 7.01424C39.215 5.57576 38.4443 4.21208 37.5256 2.95012C39.0116 3.18625 40.4738 3.55402 41.8949 4.04911V4.04911ZM42.1528 39.4338C42.6955 39.4375 43.2248 39.6027 43.6735 39.9084C44.1223 40.214 44.4703 40.6464 44.6733 41.1506C44.8763 41.6548 44.9253 42.2081 44.8139 42.7402C44.7025 43.2723 44.4358 43.7593 44.0476 44.1393C43.6595 44.5192 43.1674 44.7751 42.6339 44.8743C42.1004 44.9735 41.5494 44.9117 41.0511 44.6966C40.5527 44.4815 40.1293 44.1229 39.8347 43.6663C39.5401 43.2097 39.3876 42.6757 39.3965 42.1321C39.4061 41.4085 39.7017 40.7182 40.2183 40.2124C40.7349 39.7067 41.4306 39.4267 42.1528 39.4338V39.4338ZM37.1378 40.5261C37.0246 40.848 36.9015 40.9364 36.5852 40.9347C32.5373 40.9347 28.4909 40.918 24.4446 40.9447C23.9786 40.9447 23.9453 40.7212 23.917 40.3994C23.6124 36.6888 23.4177 32.9766 23.5725 29.2527C23.5991 28.6289 23.6241 28.0052 23.6291 27.3815C23.6291 27.0613 23.679 26.8946 24.0668 26.7895C25.8661 26.3009 27.1045 25.1535 27.7286 23.3841C27.8468 23.0506 27.9899 22.9488 28.3361 22.9522C30.3684 22.9689 32.4024 22.9522 34.4364 22.9522C36.4337 22.9522 38.4211 22.9705 40.4135 22.9388C40.8745 22.9388 41.0177 23.0706 41.051 23.5042C41.3372 27.2148 41.5503 30.927 41.3839 34.6526C41.3556 35.2746 41.3323 35.8983 41.3323 36.522C41.3323 36.8356 41.2524 36.984 40.9078 37.069C39.037 37.541 37.7736 38.715 37.1378 40.5261ZM24.9007 16.5984C25.5948 13.2964 26.4187 10.0327 27.9184 6.98588C28.5841 5.62506 29.3731 4.32761 30.5582 3.33535C31.8731 2.23301 33.1048 2.23136 34.4064 3.3487C35.9045 4.63948 36.7883 6.36218 37.5489 8.13825C38.9338 11.3669 39.7444 14.7622 40.3286 18.216C40.4534 18.9481 40.5633 19.6836 40.6881 20.464H38.6741C35.2509 20.464 31.8276 20.464 28.4044 20.464C28.0332 20.464 27.8418 20.4106 27.702 19.9904C27.2941 18.7312 26.4047 17.6854 25.2286 17.082C25.0339 16.9836 24.8308 16.9269 24.9007 16.5984V16.5984ZM22.7519 18.9698C23.2935 18.9678 23.8235 19.1268 24.2749 19.4267C24.7263 19.7265 25.0788 20.1538 25.2878 20.6544C25.4968 21.155 25.5529 21.7065 25.4491 22.2391C25.3453 22.7717 25.0861 23.2614 24.7044 23.6464C24.3227 24.0314 23.8357 24.2943 23.3048 24.4019C22.774 24.5095 22.2232 24.457 21.7221 24.2509C21.2211 24.0449 20.7923 23.6946 20.49 23.2443C20.1877 22.7941 20.0255 22.2641 20.0238 21.7214C20.0357 20.9985 20.3263 20.3083 20.8349 19.7953C21.3435 19.2823 22.0305 18.9865 22.7519 18.9698V18.9698ZM4.32631 40.4377C2.6827 34.894 2.6827 28.9912 4.32631 23.4475C4.43284 23.0806 4.5843 22.9472 4.9921 22.9472C9.03784 22.9672 13.0847 22.9672 17.1327 22.9472C17.4772 22.9472 17.6653 23.0005 17.7985 23.3891C18.02 24.0946 18.3951 24.742 18.8969 25.2845C19.3986 25.827 20.0143 26.2511 20.6996 26.526C21.0941 26.6928 21.169 26.8962 21.1374 27.2631C20.9593 29.2977 21.0109 31.3356 21.0142 33.3735C21.0142 35.5981 21.1457 37.8178 21.3687 40.0308C21.4586 40.923 21.4586 40.923 20.5498 40.923H12.8933C10.2585 40.923 7.62194 40.9114 4.9871 40.9347C4.58263 40.9447 4.4345 40.8113 4.32631 40.4377V40.4377ZM10.7911 56.399C10.2495 56.3964 9.72083 56.2329 9.272 55.9292C8.82317 55.6254 8.47433 55.1952 8.26958 54.6928C8.06484 54.1905 8.0134 53.6385 8.12177 53.1069C8.23013 52.5752 8.49343 52.0876 8.87837 51.7059C9.26332 51.3242 9.75261 51.0654 10.2843 50.9624C10.8161 50.8593 11.3664 50.9165 11.8657 51.1269C12.3649 51.3372 12.7907 51.6911 13.0892 52.1439C13.3876 52.5968 13.5454 53.1281 13.5424 53.6707C13.524 54.3934 13.2274 55.0809 12.7146 55.5894C12.2017 56.098 11.5125 56.3881 10.7911 56.399V56.399ZM22.5954 59.671C20.2219 58.816 17.9654 57.6645 15.8793 56.2439C15.5764 56.0405 15.5464 55.8837 15.6729 55.5535C16.4436 53.4439 16.0707 51.5228 14.4862 49.9451C12.9016 48.3675 10.9908 48.0156 8.87862 48.7778C8.67389 48.8528 8.50577 48.9846 8.30936 48.6944C7.18072 47.0402 6.21471 45.2804 5.42486 43.4395C5.57466 43.4295 5.66954 43.4195 5.75775 43.4195C10.9032 43.4195 16.0486 43.4162 21.194 43.4095C21.5901 43.4095 21.7316 43.4746 21.7948 43.9232C22.4323 48.3558 23.3478 52.7202 25.1237 56.8593C25.7319 58.3003 26.5037 59.6662 27.424 60.9301C25.7805 60.6542 24.1646 60.2329 22.5954 59.671V59.671ZM34.3765 60.5699C33.0849 61.6439 31.8482 61.6522 30.5732 60.5699C29.0302 59.2541 28.1447 57.4914 27.3708 55.6719C26.0026 52.4567 25.1953 49.0829 24.6211 45.6475C24.5012 44.9321 24.3897 44.2167 24.2632 43.4295H33.0449C34.21 43.4295 35.3752 43.4295 36.5403 43.4295C36.8582 43.4295 37.0396 43.4646 37.1578 43.8398C37.3666 44.494 37.7046 45.0995 38.1519 45.6201C38.5991 46.1407 39.1463 46.5657 39.761 46.87C39.9474 46.965 40.1272 47.02 40.0639 47.3169C39.2933 50.9224 38.3995 54.4879 36.6002 57.7498C35.9993 58.7988 35.3169 59.7878 34.3765 60.5699V60.5699ZM37.5722 60.8851C40.2687 57.0011 41.4887 52.6334 42.4175 48.1607C42.529 47.6221 42.7138 47.3969 43.263 47.2735C45.1422 46.8549 46.3939 45.6842 47.0647 43.8765C47.1396 43.673 47.1213 43.4129 47.5074 43.4145C51.4888 43.4329 55.4685 43.4245 59.4599 43.4245C56.0145 52.1798 47.2161 59.4058 37.5722 60.8851V60.8851ZM60.6233 40.4227C60.5002 40.843 60.3171 40.9414 59.901 40.9397C55.8364 40.923 51.7712 40.923 47.7055 40.9397C47.3526 40.9397 47.1695 40.8647 47.0513 40.4994C46.8429 39.8119 46.4853 39.1791 46.0042 38.6463C45.5231 38.1135 44.9303 37.6939 44.2684 37.4176C43.8589 37.2375 43.769 37.009 43.8073 36.6188C43.9738 34.6076 43.9355 32.5913 43.9288 30.5751C43.9222 28.3304 43.8045 26.0913 43.576 23.8577C43.4861 22.9639 43.4877 22.9639 44.3915 22.9639H52.0481C54.6829 22.9639 57.3177 22.9755 59.9509 22.9522C60.3521 22.9522 60.5185 23.0639 60.6283 23.4425C62.2647 28.9841 62.263 34.8821 60.6233 40.4227V40.4227Z" fill="url(#paint4_linear_1_1554)"/>
<path d="M11.8048 10.5063C11.8085 10.6713 11.7782 10.8352 11.7158 10.9879C11.6533 11.1406 11.5602 11.2787 11.4421 11.3938C11.324 11.5088 11.1836 11.5982 11.0295 11.6564C10.8754 11.7146 10.711 11.7403 10.5465 11.732C10.3818 11.7342 10.2184 11.7028 10.0662 11.6399C9.91397 11.577 9.77604 11.4838 9.66076 11.3659C9.54548 11.2481 9.45523 11.108 9.39549 10.9543C9.33574 10.8005 9.30775 10.6362 9.31316 10.4713C9.31445 10.3064 9.34839 10.1434 9.41302 9.9918C9.47765 9.84016 9.57167 9.7029 9.68965 9.58795C9.80763 9.473 9.94721 9.38266 10.1003 9.32216C10.2534 9.26167 10.4169 9.23223 10.5815 9.23554C10.7463 9.23425 10.9097 9.26658 11.0617 9.33057C11.2137 9.39456 11.3511 9.48886 11.4655 9.60774C11.5799 9.72661 11.669 9.86759 11.7274 10.0221C11.7857 10.1765 11.8121 10.3413 11.8048 10.5063Z" fill="url(#paint5_linear_1_1554)"/>
<defs>
<linearGradient id="paint0_linear_1_1554" x1="0.614136" y1="30.5753" x2="0.814216" y2="30.6011" gradientUnits="userSpaceOnUse">
<stop stop-color="#FCA9C7"/>
<stop offset="1" stop-color="#8279E3"/>
</linearGradient>
<linearGradient id="paint1_linear_1_1554" x1="33.376" y1="0.0167273" x2="33.4104" y2="0.215773" gradientUnits="userSpaceOnUse">
<stop stop-color="#FCA9C7"/>
<stop offset="1" stop-color="#8279E3"/>
</linearGradient>
<linearGradient id="paint2_linear_1_1554" x1="0.613557" y1="32.7929" x2="0.807374" y2="32.8244" gradientUnits="userSpaceOnUse">
<stop stop-color="#FCA9C7"/>
<stop offset="1" stop-color="#8279E3"/>
</linearGradient>
<linearGradient id="paint3_linear_1_1554" x1="30.5271" y1="0.012456" x2="30.5843" y2="0.139385" gradientUnits="userSpaceOnUse">
<stop stop-color="#FCA9C7"/>
<stop offset="1" stop-color="#8279E3"/>
</linearGradient>
<linearGradient id="paint4_linear_1_1554" x1="11.7603" y1="7.31429" x2="56.5571" y2="50.6524" gradientUnits="userSpaceOnUse">
<stop stop-color="#FCA9C7"/>
<stop offset="1" stop-color="#8279E3"/>
</linearGradient>
<linearGradient id="paint5_linear_1_1554" x1="9.74941" y1="9.52081" x2="11.4981" y2="11.2131" gradientUnits="userSpaceOnUse">
<stop stop-color="#FCA9C7"/>
<stop offset="1" stop-color="#8279E3"/>
</linearGradient>
</defs>
</svg>
