<svg width="272" height="213" viewBox="0 0 272 213" fill="none" xmlns="http://www.w3.org/2000/svg">
<path d="M178.725 6.65254L179.581 6.10794L178.754 5.51933C167.716 -2.3397 154.753 2.12178 144.772 8.29573C139.755 11.3996 135.417 14.9784 132.336 17.7771C130.795 19.1774 129.566 20.3848 128.721 21.2433C128.328 21.6428 128.018 21.9668 127.798 22.1998C123.747 19.8034 117.349 18.642 109.764 18.5289C101.834 18.4106 92.4923 19.4375 82.9248 21.4999C63.8216 25.6177 43.6669 33.8971 32.02 45.5921C25.3737 51.7468 20.1207 59.4503 16.6572 68.1149C13.2257 76.6995 11.6392 86.0057 12.0136 95.3389C11.905 95.4638 11.7512 95.6421 11.5597 95.8681C11.1605 96.3392 10.597 97.0175 9.93763 97.8493C8.62028 99.5111 6.91418 101.793 5.37031 104.262C3.83163 106.723 2.42907 109.41 1.74989 111.875C1.07773 114.315 1.06324 116.742 2.61529 118.45C4.13355 120.121 6.4105 120.56 8.9074 120.349C11.4117 120.137 14.2819 119.262 17.1797 118.123C20.0852 116.982 23.0644 115.558 25.7917 114.22C26.3033 113.969 26.8053 113.721 27.296 113.479C29.4205 112.431 31.3339 111.487 32.896 110.824C39.3827 108.833 46.1739 108.278 52.8617 109.19C55.491 113.627 59.2176 117.199 63.6332 119.498C68.145 121.847 73.187 122.769 78.1712 122.153L80.0835 121.916L78.4493 120.895C77.6691 120.408 76.9334 119.345 76.2792 117.874C75.6368 116.43 75.1206 114.703 74.7177 113.025C74.3158 111.352 74.0317 109.749 73.8481 108.564C73.7685 108.049 73.7079 107.615 73.6649 107.288L90.3376 105.141C102.814 120.449 115.528 126.403 125.186 128.503C130.04 129.558 134.109 129.637 136.972 129.451C138.403 129.357 139.534 129.198 140.31 129.06C140.699 128.991 140.999 128.928 141.204 128.881C141.307 128.858 141.386 128.839 141.441 128.825C141.468 128.818 141.489 128.812 141.504 128.809L141.522 128.804L141.527 128.802L141.529 128.802C141.529 128.802 141.53 128.802 141.349 128.143L141.53 128.802L142.676 128.487L141.827 127.655C138.792 124.683 136.349 121.073 134.649 117.043C133.063 113.285 132.155 109.237 131.972 105.116C165.504 113.566 186.666 128.52 199.458 141.382C205.911 147.871 210.238 153.832 212.949 158.163C214.304 160.329 215.256 162.087 215.866 163.3C216.165 163.893 216.383 164.356 216.526 164.672C205.548 172.608 201.758 183.662 200.72 192.733C200.194 197.329 200.372 201.428 200.681 204.378C200.836 205.854 201.024 207.044 201.174 207.868C201.249 208.28 201.314 208.601 201.361 208.82C201.385 208.929 201.404 209.014 201.417 209.071L201.432 209.137L201.437 209.155L201.438 209.16L201.438 209.162C201.438 209.162 201.438 209.162 201.509 209.145C201.587 209.126 201.753 209.086 202.102 209L201.438 209.162L201.868 210.917L202.707 209.317L207.09 200.964C216.843 200.71 221.866 196.755 224.417 192.733C225.697 190.715 226.335 188.71 226.654 187.211C226.721 186.895 226.774 186.601 226.816 186.334C233.115 193.323 240.818 195.535 247.042 195.963C250.327 196.189 253.207 195.919 255.266 195.593C256.297 195.429 257.124 195.252 257.696 195.114C257.96 195.051 258.17 194.996 258.321 194.954C261.909 196.818 265.786 197.961 269.76 198.327L270.674 198.411L270.492 197.511C267.096 180.736 256.64 171.576 247.061 166.628C242.277 164.156 237.707 162.731 234.334 161.924C232.647 161.52 231.257 161.27 230.286 161.121C229.929 161.067 229.629 161.025 229.392 160.995C229.4 160.672 229.409 160.231 229.415 159.68C229.428 158.419 229.424 156.583 229.358 154.273C229.225 149.655 228.84 143.143 227.833 135.562C225.821 120.409 221.317 100.939 211.335 83.7709C200.202 63.9357 184.184 47.8084 165.055 37.1825C164.294 31.2598 165.158 25.2247 167.544 19.8257C169.974 14.3245 173.87 9.73961 178.725 6.65254Z" stroke="#FFCDEA" stroke-width="1.36657"/>
</svg>
