<svg width="304" height="41" viewBox="0 0 304 41" fill="none" xmlns="http://www.w3.org/2000/svg">
<path d="M57.4748 29.3154C57.4748 29.6391 57.313 29.8009 56.9895 29.8009H56.201C55.8775 29.8009 55.7158 29.6391 55.7158 29.3154V26.7666L55.6551 25.6439C55.4529 25.9776 55.2356 26.3165 55.0031 26.6604C54.7706 27.0043 54.5229 27.2976 54.26 27.5403C53.3603 28.3899 52.3444 29.0423 51.2121 29.4975C50.09 29.9526 48.8971 30.1802 47.6335 30.1802C46.7236 30.1802 45.8441 30.0588 44.995 29.8161C44.1559 29.5834 43.3674 29.2497 42.6294 28.8147C41.8915 28.3798 41.2192 27.8589 40.6126 27.2521C40.0061 26.6452 39.4855 25.9776 39.0508 25.2494C38.6161 24.5111 38.2774 23.7171 38.0348 22.8675C37.8023 22.0178 37.686 21.1379 37.686 20.2276C37.686 19.3173 37.8023 18.4373 38.0348 17.5877C38.2774 16.7381 38.6161 15.9441 39.0508 15.2058C39.4855 14.4674 40.0061 13.7948 40.6126 13.188C41.2192 12.5811 41.8915 12.0602 42.6294 11.6253C43.3674 11.1904 44.1559 10.8566 44.995 10.624C45.8441 10.3812 46.7236 10.2598 47.6335 10.2598C48.2704 10.2598 48.8921 10.3256 49.4986 10.4571C50.1052 10.5886 50.6915 10.7757 51.2576 11.0184C51.8237 11.251 52.3595 11.5342 52.865 11.868C53.3805 12.2018 53.8557 12.571 54.2904 12.9756C54.5633 13.2588 54.8009 13.547 55.0031 13.8403C55.2053 14.1235 55.4428 14.4523 55.7158 14.8265V5.07113C55.7158 5.00033 55.741 4.93965 55.7916 4.88907C55.8421 4.8385 55.9078 4.81322 55.9887 4.81322L57.0653 4.79804C57.3383 4.79804 57.4748 4.93459 57.4748 5.20768V29.3154ZM39.5512 20.2276C39.5512 21.3402 39.7584 22.3971 40.1729 23.3985C40.5975 24.3897 41.1737 25.2646 41.9016 26.0232C42.6294 26.7716 43.4786 27.3684 44.4491 27.8134C45.4297 28.2584 46.476 28.481 47.588 28.481C48.7101 28.481 49.7716 28.2686 50.7724 27.8438C51.7732 27.4088 52.6476 26.8222 53.3957 26.0838C54.1539 25.3354 54.7503 24.4605 55.185 23.4592C55.6197 22.4578 55.8371 21.3908 55.8371 20.2579C55.8371 19.1454 55.6248 18.0884 55.2002 17.0871C54.7756 16.0756 54.1943 15.1906 53.4564 14.432C52.7184 13.6734 51.8541 13.0716 50.8634 12.6266C49.8727 12.1715 48.8162 11.9439 47.6941 11.9439C46.572 11.9439 45.5156 12.1664 44.5249 12.6114C43.5342 13.0464 42.6699 13.6431 41.9319 14.4017C41.204 15.1603 40.6228 16.0402 40.1881 17.0416C39.7635 18.0429 39.5512 19.1049 39.5512 20.2276Z" fill="white"/>
<path d="M61.1202 20.2276C61.1202 19.3173 61.2365 18.4373 61.469 17.5877C61.7116 16.7381 62.0503 15.9441 62.485 15.2058C62.9197 14.4674 63.4403 13.7948 64.0468 13.188C64.6534 12.5811 65.3257 12.0602 66.0636 11.6253C66.8016 11.1904 67.5901 10.8566 68.4292 10.624C69.2783 10.3812 70.1578 10.2598 71.0677 10.2598C71.9775 10.2598 72.8519 10.3812 73.691 10.624C74.5402 10.8566 75.3337 11.1904 76.0717 11.6253C76.8097 12.0602 77.4819 12.5811 78.0885 13.188C78.7052 13.7948 79.2308 14.4674 79.6655 15.2058C80.1002 15.9441 80.4338 16.7381 80.6663 17.5877C80.909 18.4373 81.0303 19.3173 81.0303 20.2276C81.0303 21.1379 80.909 22.0178 80.6663 22.8675C80.4338 23.7171 80.1002 24.5111 79.6655 25.2494C79.2308 25.9878 78.7052 26.6604 78.0885 27.2672C77.4819 27.8741 76.8097 28.395 76.0717 28.8299C75.3337 29.2648 74.5402 29.5986 73.691 29.8312C72.8519 30.074 71.9775 30.1954 71.0677 30.1954C70.1578 30.1954 69.2783 30.074 68.4292 29.8312C67.5901 29.5986 66.8016 29.2648 66.0636 28.8299C65.3257 28.395 64.6534 27.8741 64.0468 27.2672C63.4403 26.6604 62.9197 25.9878 62.485 25.2494C62.0503 24.5111 61.7116 23.7171 61.469 22.8675C61.2365 22.0178 61.1202 21.1379 61.1202 20.2276ZM62.9399 20.2276C62.9399 20.9659 63.0359 21.6841 63.228 22.382C63.4201 23.0697 63.688 23.7221 64.0317 24.3391C64.3855 24.946 64.805 25.5073 65.2903 26.0232C65.7856 26.5289 66.3315 26.9638 66.928 27.3279C67.5345 27.692 68.1764 27.9752 68.8538 28.1775C69.5412 28.3798 70.2589 28.481 71.007 28.481C72.1291 28.481 73.1855 28.2686 74.1762 27.8438C75.1771 27.4088 76.0515 26.8222 76.7996 26.0838C77.5477 25.3354 78.139 24.4655 78.5737 23.4743C79.0084 22.473 79.2258 21.4009 79.2258 20.2579C79.2258 19.1454 79.0135 18.0884 78.5889 17.0871C78.1643 16.0756 77.583 15.1906 76.8451 14.432C76.1172 13.6734 75.2579 13.0716 74.2672 12.6266C73.2866 12.1715 72.2353 11.9439 71.1132 11.9439C69.991 11.9439 68.9296 12.1664 67.9288 12.6114C66.9381 13.0464 66.0737 13.6431 65.3358 14.4017C64.5978 15.1603 64.0115 16.0402 63.5768 17.0416C63.1522 18.0429 62.9399 19.1049 62.9399 20.2276Z" fill="white"/>
<path d="M84.7461 5.26836C84.7461 4.95482 84.9079 4.79804 85.2313 4.79804H86.0199C86.3535 4.79804 86.5203 4.95482 86.5203 5.26836V29.3306C86.5203 29.6441 86.3585 29.8009 86.035 29.8009H85.2465C84.9129 29.8009 84.7461 29.6441 84.7461 29.3306V5.26836Z" fill="white"/>
<path d="M91.4561 11.1398C91.4561 10.8161 91.6178 10.6543 91.9413 10.6543H92.7905C93.114 10.6543 93.2757 10.8161 93.2757 11.1398V14.8113C93.4779 14.4775 93.6953 14.1387 93.9278 13.7948C94.1603 13.4509 94.408 13.1576 94.6708 12.9149C95.5705 12.0653 96.5814 11.4129 97.7036 10.9577C98.8358 10.5026 100.034 10.275 101.297 10.275C102.207 10.275 103.082 10.3964 103.921 10.6391C104.77 10.8718 105.563 11.2055 106.301 11.6405C107.039 12.0754 107.712 12.5963 108.318 13.2031C108.925 13.81 109.445 14.4826 109.88 15.221C110.315 15.9492 110.648 16.7381 110.881 17.5877C111.123 18.4373 111.245 19.3173 111.245 20.2276C111.245 21.1379 111.123 22.0178 110.881 22.8675C110.648 23.7171 110.315 24.5111 109.88 25.2494C109.445 25.9878 108.925 26.6604 108.318 27.2672C107.712 27.8741 107.039 28.395 106.301 28.8299C105.563 29.2648 104.77 29.5986 103.921 29.8312C103.082 30.074 102.207 30.1954 101.297 30.1954C100.66 30.1954 100.039 30.1296 99.4322 29.9981C98.8257 29.8666 98.2393 29.6846 97.6732 29.4519C97.1071 29.2092 96.5663 28.9209 96.0507 28.5872C95.5452 28.2534 95.0752 27.8842 94.6405 27.4796C94.3675 27.1964 94.13 26.9132 93.9278 26.63C93.7256 26.3367 93.488 26.0029 93.2151 25.6287V35.3841C93.2151 35.4549 93.1898 35.5155 93.1393 35.5661C93.0887 35.6167 93.023 35.642 92.9421 35.642L91.8655 35.6571C91.5926 35.6571 91.4561 35.5206 91.4561 35.2475V11.1398ZM109.38 20.2276C109.38 19.1251 109.167 18.0732 108.743 17.0719C108.328 16.0706 107.757 15.1957 107.029 14.4472C106.301 13.6886 105.447 13.0868 104.467 12.6418C103.496 12.1967 102.455 11.9742 101.343 11.9742C100.221 11.9742 99.1593 12.1917 98.1585 12.6266C97.1577 13.0514 96.2782 13.638 95.52 14.3865C94.7719 15.1249 94.1805 15.9947 93.7458 16.996C93.3111 17.9974 93.0938 19.0644 93.0938 20.1973C93.0938 21.3098 93.3061 22.3719 93.7306 23.3833C94.1552 24.3846 94.7365 25.2646 95.4745 26.0232C96.2125 26.7817 97.0768 27.3886 98.0675 27.8438C99.0582 28.2888 100.115 28.5113 101.237 28.5113C102.359 28.5113 103.415 28.2938 104.406 27.8589C105.397 27.4139 106.256 26.8121 106.984 26.0535C107.722 25.2949 108.303 24.415 108.728 23.4136C109.162 22.4123 109.38 21.3503 109.38 20.2276Z" fill="white"/>
<path d="M129.523 18.3008C129.492 17.5119 129.341 16.7432 129.068 15.9947C128.795 15.2361 128.411 14.5635 127.915 13.9769C127.42 13.3902 126.818 12.9199 126.111 12.5659C125.403 12.2018 124.599 12.0197 123.7 12.0197C122.911 12.0197 122.138 12.1613 121.38 12.4445C120.621 12.7176 119.939 13.1121 119.333 13.6279C118.736 14.1337 118.246 14.7506 117.862 15.4789C117.478 16.197 117.27 16.996 117.24 17.876V29.3609C117.24 29.6846 117.088 29.8464 116.785 29.8464H115.981C115.658 29.8464 115.496 29.6846 115.496 29.3609V5.04079C115.496 4.72724 115.653 4.57047 115.966 4.57047H116.77C117.083 4.57047 117.24 4.72724 117.24 5.04079V13.6279H117.285C117.619 13.1121 118.013 12.6468 118.468 12.2321C118.933 11.8175 119.444 11.4634 120 11.1701C120.556 10.8667 121.152 10.6391 121.789 10.4874C122.436 10.3256 123.108 10.2447 123.806 10.2447C124.918 10.2447 125.934 10.4571 126.854 10.8819C127.774 11.3067 128.562 11.8883 129.219 12.6266C129.876 13.365 130.382 14.2247 130.736 15.2058C131.1 16.1869 131.282 17.2388 131.282 18.3615V29.1789C131.282 29.4014 131.226 29.5683 131.115 29.6795C131.004 29.7908 130.857 29.8464 130.675 29.8464H130.114C129.881 29.8464 129.725 29.7958 129.644 29.6947C129.563 29.5935 129.523 29.4267 129.523 29.194V18.3008Z" fill="white"/>
<path d="M135.427 5.02562C135.427 4.83344 135.452 4.67667 135.503 4.5553C135.563 4.43393 135.68 4.36312 135.852 4.3429H136.14H136.959C137.151 4.36312 137.272 4.43898 137.322 4.57047C137.373 4.69184 137.398 4.84356 137.398 5.02562V5.60214C137.398 5.89546 137.348 6.08258 137.247 6.16349C137.156 6.24441 136.974 6.28486 136.701 6.28486H136.155C135.892 6.28486 135.705 6.24946 135.594 6.17866C135.483 6.10786 135.427 5.98143 135.427 5.79937V5.02562ZM135.518 11.1094C135.518 10.7858 135.68 10.624 136.003 10.624H136.807C137.13 10.624 137.292 10.7858 137.292 11.1094V29.3154C137.292 29.6391 137.135 29.8009 136.822 29.8009H136.034C135.69 29.8009 135.518 29.6391 135.518 29.3154V11.1094Z" fill="white"/>
<path d="M142.876 11.1853C142.876 11.0032 142.927 10.8667 143.028 10.7757C143.139 10.6745 143.281 10.624 143.453 10.624H144.074C144.256 10.624 144.393 10.6796 144.484 10.7908C144.585 10.892 144.635 11.0235 144.635 11.1853V13.4155C145.07 12.7581 145.56 12.222 146.106 11.8073C146.652 11.3825 147.213 11.0538 147.79 10.8212C148.366 10.5784 148.932 10.4166 149.488 10.3357C150.054 10.2447 150.575 10.1991 151.05 10.1991C152.212 10.1991 153.274 10.4115 154.234 10.8364C155.194 11.2612 156.013 11.8427 156.691 12.5811C157.368 13.3194 157.894 14.1792 158.268 15.1603C158.642 16.1414 158.829 17.1882 158.829 18.3008V29.1333C158.829 29.3559 158.773 29.5227 158.662 29.634C158.551 29.7453 158.404 29.8009 158.222 29.8009H157.661C157.429 29.8009 157.272 29.7503 157.191 29.6492C157.11 29.548 157.07 29.3811 157.07 29.1485V18.2553C157.039 17.4664 156.883 16.6977 156.6 15.9492C156.317 15.1906 155.917 14.518 155.402 13.9314C154.886 13.3447 154.254 12.8744 153.506 12.5204C152.758 12.1563 151.904 11.9742 150.944 11.9742C150.165 11.9742 149.402 12.1209 148.654 12.4142C147.916 12.6974 147.254 13.102 146.667 13.6279C146.081 14.1438 145.601 14.7658 145.227 15.494C144.863 16.2223 144.666 17.0264 144.635 17.9063V29.3154C144.635 29.6391 144.484 29.8009 144.181 29.8009H143.377C143.053 29.8009 142.892 29.6391 142.892 29.3154V25.1129C142.882 25.0825 142.876 25.0269 142.876 24.946V11.1853Z" fill="white"/>
<path fill-rule="evenodd" clip-rule="evenodd" d="M38.756 25.4251L38.7549 25.4233C38.305 24.6591 37.9551 23.8382 37.7047 22.9616L37.7037 22.9579C37.4628 22.0779 37.3428 21.1674 37.3428 20.2276C37.3428 19.2877 37.4629 18.3773 37.7037 17.4972L37.7047 17.4935C37.955 16.6169 38.305 15.796 38.7549 15.0318C39.2043 14.2685 39.7427 13.5729 40.3697 12.9455C40.9967 12.3182 41.692 11.7795 42.4549 11.3299C43.2188 10.8797 44.0347 10.5344 44.9017 10.2939C45.782 10.0424 46.6928 9.91694 47.6331 9.91694C48.2937 9.91694 48.9398 9.98516 49.5708 10.122C50.1978 10.2579 50.8043 10.4513 51.39 10.7023C51.975 10.9428 52.5291 11.2358 53.0522 11.581C53.5835 11.9251 54.0741 12.3062 54.5236 12.7245L54.5304 12.7309L54.5368 12.7376C54.8207 13.0321 55.0699 13.334 55.2833 13.6433C55.3123 13.6839 55.342 13.7255 55.3725 13.768V5.07109C55.3725 4.90839 55.4346 4.76081 55.5487 4.64666C55.6714 4.52384 55.8276 4.47095 55.9855 4.47033L57.0649 4.45511C57.2543 4.45511 57.4593 4.50275 57.6145 4.65804C57.7697 4.81329 57.8172 5.01829 57.8172 5.20764V29.3154C57.8172 29.53 57.7634 29.754 57.5956 29.9219C57.4277 30.0898 57.2038 30.1437 56.9891 30.1437H56.2006C55.986 30.1437 55.762 30.0898 55.5942 29.9219C55.4264 29.754 55.3725 29.53 55.3725 29.3154V26.7758L55.37 26.7285C55.3424 26.7697 55.3147 26.811 55.2867 26.8524C55.0421 27.2142 54.7781 27.5279 54.4936 27.7909C53.5637 28.6687 52.5121 29.3441 51.3404 29.8152C50.1756 30.2876 48.9389 30.523 47.6331 30.523C46.6928 30.523 45.782 30.3976 44.9017 30.1461C44.0347 29.9056 43.2188 29.5603 42.4549 29.1101C41.692 28.6604 40.9967 28.1217 40.3697 27.4944C39.7434 26.8678 39.2053 26.1779 38.756 25.4251ZM51.2117 29.4974C50.0896 29.9526 48.8967 30.1801 47.6331 30.1801C46.7232 30.1801 45.8437 30.0588 44.9946 29.816C44.1555 29.5834 43.367 29.2496 42.629 28.8147C41.8911 28.3798 41.2188 27.8589 40.6122 27.252C40.0057 26.6452 39.4851 25.9776 39.0504 25.2494C38.6157 24.511 38.277 23.717 38.0344 22.8674C37.8019 22.0178 37.6856 21.1379 37.6856 20.2276C37.6856 19.3173 37.8019 18.4373 38.0344 17.5877C38.277 16.7381 38.6157 15.9441 39.0504 15.2057C39.4851 14.4674 40.0057 13.7948 40.6122 13.1879C41.2188 12.5811 41.8911 12.0602 42.629 11.6252C43.367 11.1903 44.1555 10.8565 44.9946 10.6239C45.8437 10.3812 46.7232 10.2598 47.6331 10.2598C48.2699 10.2598 48.8917 10.3255 49.4982 10.457C50.1048 10.5885 50.6911 10.7756 51.2572 11.0184C51.8233 11.251 52.3591 11.5342 52.8646 11.868C53.3801 12.2018 53.8553 12.5709 54.29 12.9755C54.5629 13.2587 54.8005 13.547 55.0027 13.8403C55.115 13.9977 55.2383 14.1691 55.3725 14.3546C55.4798 14.5029 55.5941 14.6602 55.7154 14.8265V5.07109C55.7154 5.00029 55.7406 4.93961 55.7912 4.88904C55.8417 4.83846 55.9074 4.81318 55.9883 4.81318L57.0649 4.79801C57.3379 4.79801 57.4744 4.93455 57.4744 5.20764V29.3154C57.4744 29.639 57.3126 29.8009 56.9891 29.8009H56.2006C55.8771 29.8009 55.7154 29.639 55.7154 29.3154V26.7665L55.6547 25.6438C55.5532 25.8114 55.4479 25.9803 55.3387 26.1504C55.2305 26.3191 55.1184 26.4891 55.0027 26.6603C54.7702 27.0042 54.5225 27.2975 54.2596 27.5403C53.3599 28.3899 52.3439 29.0423 51.2117 29.4974ZM54.8841 17.2209L54.8837 17.2197C54.4751 16.2464 53.9172 15.3978 53.2102 14.6711C52.5032 13.9443 51.6748 13.3671 50.7225 12.9393L50.7198 12.9381C49.7753 12.5042 48.7679 12.2867 47.6937 12.2867C46.6184 12.2867 45.61 12.4996 44.665 12.9241L44.6623 12.9253C43.7115 13.3427 42.8844 13.9141 42.1781 14.6398C41.4802 15.3674 40.9216 16.2122 40.5027 17.1767C40.0971 18.1339 39.8936 19.1498 39.8936 20.2276C39.8936 21.2956 40.0922 22.3073 40.4885 23.2654C40.897 24.2185 41.4501 25.0576 42.1478 25.7849C42.8451 26.5017 43.6586 27.0737 44.5907 27.5013C45.5252 27.9254 46.5229 28.1381 47.5876 28.1381C48.6647 28.1381 49.6801 27.9345 50.6369 27.5286C51.5997 27.11 52.438 26.5469 53.1544 25.8398C53.8807 25.1229 54.4524 24.2847 54.8701 23.3226C55.2854 22.366 55.4938 21.3456 55.4938 20.2579C55.4938 19.1902 55.2904 18.1789 54.8841 17.2209ZM50.772 27.8437C51.7728 27.4088 52.6472 26.8222 53.3953 26.0838C54.1535 25.3353 54.7499 24.4604 55.1846 23.4591C55.6193 22.4578 55.8367 21.3907 55.8367 20.2579C55.8367 19.1453 55.6244 18.0884 55.1998 17.087C54.7752 16.0756 54.1939 15.1906 53.456 14.432C52.718 13.6734 51.8537 13.0716 50.863 12.6266C49.8723 12.1714 48.8158 11.9438 47.6937 11.9438C46.5716 11.9438 45.5152 12.1664 44.5245 12.6114C43.5338 13.0463 42.6695 13.6431 41.9315 14.4016C41.2036 15.1602 40.6223 16.0402 40.1877 17.0415C39.7631 18.0428 39.5508 19.1049 39.5508 20.2276C39.5508 21.3401 39.758 22.3971 40.1725 23.3984C40.5971 24.3896 41.1733 25.2645 41.9012 26.0231C42.629 26.7716 43.4782 27.3683 44.4487 27.8134C45.4293 28.2584 46.4756 28.4809 47.5876 28.4809C48.7097 28.4809 49.7712 28.2685 50.772 27.8437ZM61.1379 17.4972L61.1389 17.4935C61.3893 16.6169 61.7392 15.796 62.1891 15.0318C62.6385 14.2685 63.1769 13.5729 63.8039 12.9455C64.4309 12.3182 65.1262 11.7795 65.8891 11.3299C66.653 10.8797 67.4689 10.5344 68.3359 10.2939C69.2162 10.0424 70.127 9.91694 71.0673 9.91694C72.0072 9.91694 72.913 10.0423 73.7836 10.2939C74.6603 10.5343 75.4813 10.8795 76.2454 11.3299C77.008 11.7793 77.7029 12.3177 78.3297 12.9446C78.967 13.572 79.5108 14.2679 79.9606 15.0318C80.4108 15.7965 80.7559 16.618 80.9961 17.4953C81.2474 18.3759 81.3727 19.287 81.3727 20.2276C81.3727 21.1681 81.2474 22.0792 80.9961 22.9598C80.7558 23.8371 80.4108 24.6586 79.9606 25.4233C79.5108 26.1873 78.9668 26.8833 78.3295 27.5107C77.7028 28.1375 77.0079 28.6759 76.2454 29.1252C75.4812 29.5756 74.6603 29.9208 73.7836 30.1612C72.913 30.4128 72.0072 30.5382 71.0673 30.5382C70.127 30.5382 69.2162 30.4128 68.3359 30.1613C67.4689 29.9207 66.653 29.5754 65.8891 29.1252C65.1262 28.6756 64.4309 28.1369 63.8039 27.5096C63.1769 26.8822 62.6385 26.1867 62.1891 25.4233C61.7392 24.6591 61.3893 23.8382 61.1389 22.9616L61.1379 22.9579C60.897 22.0779 60.777 21.1674 60.777 20.2276C60.777 19.2877 60.8971 18.3773 61.1379 17.4972ZM73.6906 29.8312C74.5398 29.5986 75.3333 29.2648 76.0713 28.8299C76.8093 28.395 77.4815 27.8741 78.0881 27.2672C78.7048 26.6603 79.2304 25.9877 79.6651 25.2494C80.0998 24.511 80.4334 23.717 80.6659 22.8674C80.9086 22.0178 81.0299 21.1379 81.0299 20.2276C81.0299 19.3173 80.9086 18.4373 80.6659 17.5877C80.4334 16.7381 80.0998 15.9441 79.6651 15.2057C79.2304 14.4674 78.7048 13.7948 78.0881 13.1879C77.4815 12.5811 76.8093 12.0602 76.0713 11.6252C75.3333 11.1903 74.5398 10.8565 73.6906 10.6239C72.8515 10.3812 71.9771 10.2598 71.0673 10.2598C70.1574 10.2598 69.2779 10.3812 68.4288 10.6239C67.5897 10.8565 66.8012 11.1903 66.0632 11.6252C65.3252 12.0602 64.653 12.5811 64.0464 13.1879C63.4399 13.7948 62.9193 14.4674 62.4846 15.2057C62.0499 15.9441 61.7112 16.7381 61.4686 17.5877C61.2361 18.4373 61.1198 19.3173 61.1198 20.2276C61.1198 21.1379 61.2361 22.0178 61.4686 22.8674C61.7112 23.717 62.0499 24.511 62.4846 25.2494C62.9193 25.9877 63.4399 26.6603 64.0464 27.2672C64.653 27.8741 65.3252 28.395 66.0632 28.8299C66.8012 29.2648 67.5897 29.5986 68.4288 29.8312C69.2779 30.0739 70.1574 30.1953 71.0673 30.1953C71.9771 30.1953 72.8515 30.0739 73.6906 29.8312ZM78.2729 17.2209L78.2724 17.2197C77.8638 16.2464 77.3059 15.3978 76.5989 14.6711L76.5973 14.6694C75.9009 13.9436 75.0782 13.3669 74.1263 12.9393L74.1225 12.9376C73.1888 12.5042 72.187 12.2867 71.1128 12.2867C70.0374 12.2867 69.0235 12.4996 68.0677 12.9247L68.0662 12.9253C67.115 13.3429 66.2876 13.9145 65.5811 14.6407C64.8733 15.3683 64.3101 16.2127 63.8915 17.1766C63.4858 18.1338 63.2823 19.1498 63.2823 20.2276C63.2823 20.9354 63.3743 21.6226 63.5579 22.2899C63.7425 22.9508 63.9995 23.5771 64.3291 24.1693C64.6688 24.7514 65.0714 25.2901 65.5372 25.7857C66.012 26.2701 66.5346 26.6861 67.1051 27.0346C67.6866 27.3835 68.3016 27.6548 68.9508 27.8488C69.6052 28.0413 70.2901 28.1381 71.0066 28.1381C72.0839 28.1381 73.0939 27.9345 74.0399 27.5289C75.0028 27.1104 75.841 26.5476 76.5575 25.8406C77.2742 25.1234 77.8412 24.2897 78.259 23.3373C78.674 22.3812 78.8825 21.3559 78.8825 20.2579C78.8825 19.1902 78.6791 18.1789 78.2729 17.2209ZM74.1758 27.8437C73.1851 28.2685 72.1287 28.4809 71.0066 28.4809C70.2585 28.4809 69.5408 28.3798 68.8534 28.1775C68.176 27.9752 67.5341 27.692 66.9276 27.3279C66.3311 26.9638 65.7852 26.5288 65.2899 26.0231C64.8046 25.5073 64.3851 24.9459 64.0313 24.3391C63.6876 23.7221 63.4197 23.0697 63.2276 22.3819C63.0355 21.684 62.9395 20.9659 62.9395 20.2276C62.9395 19.1049 63.1518 18.0428 63.5764 17.0415C64.0111 16.0402 64.5974 15.1602 65.3354 14.4016C66.0733 13.6431 66.9377 13.0463 67.9284 12.6114C68.9292 12.1664 69.9906 11.9438 71.1128 11.9438C72.2349 11.9438 73.2862 12.1714 74.2668 12.6266C75.2575 13.0716 76.1168 13.6734 76.8447 14.432C77.5826 15.1906 78.1639 16.0756 78.5885 17.087C79.0131 18.0884 79.2254 19.1453 79.2254 20.2579C79.2254 21.4008 79.008 22.473 78.5733 23.4743C78.1386 24.4655 77.5473 25.3353 76.7992 26.0838C76.0511 26.8222 75.1766 27.4088 74.1758 27.8437ZM91.8651 35.6571C91.5921 35.6571 91.4557 35.5206 91.4557 35.2475V11.1397C91.4557 10.8161 91.6174 10.6543 91.9409 10.6543H92.7901C93.1136 10.6543 93.2753 10.8161 93.2753 11.1397V14.8113C93.3851 14.63 93.4994 14.4472 93.6182 14.263C93.7181 14.108 93.8211 13.9519 93.9274 13.7948C94.1599 13.4509 94.4076 13.1576 94.6704 12.9148C95.5701 12.0652 96.581 11.4128 97.7031 10.9577C98.8354 10.5025 100.033 10.275 101.297 10.275C102.207 10.275 103.081 10.3963 103.92 10.6391C104.769 10.8717 105.563 11.2055 106.301 11.6404C107.039 12.0753 107.711 12.5962 108.318 13.2031C108.924 13.81 109.445 14.4826 109.88 15.2209C110.314 15.9492 110.648 16.7381 110.88 17.5877C111.123 18.4373 111.244 19.3173 111.244 20.2276C111.244 21.1379 111.123 22.0178 110.88 22.8674C110.648 23.717 110.314 24.511 109.88 25.2494C109.445 25.9877 108.924 26.6603 108.318 27.2672C107.711 27.8741 107.039 28.395 106.301 28.8299C105.563 29.2648 104.769 29.5986 103.92 29.8312C103.081 30.0739 102.207 30.1953 101.297 30.1953C100.66 30.1953 100.038 30.1296 99.4318 29.9981C98.8253 29.8666 98.2389 29.6845 97.6728 29.4519C97.1067 29.2092 96.5659 28.9209 96.0503 28.5871C95.5448 28.2534 95.0748 27.8842 94.6401 27.4796C94.3671 27.1964 94.1296 26.9132 93.9274 26.63C93.815 26.467 93.6917 26.2915 93.5575 26.1035C93.4502 25.9532 93.3359 25.7949 93.2147 25.6287V35.384C93.2147 35.4548 93.1894 35.5155 93.1389 35.5661C93.0883 35.6166 93.0226 35.6419 92.9417 35.6419L91.8651 35.6571ZM92.9445 35.9848C92.9436 35.9848 92.9426 35.9848 92.9417 35.9848L91.8651 36C91.6757 36 91.4707 35.9524 91.3155 35.7971C91.1604 35.6418 91.1128 35.4368 91.1128 35.2475V11.1397C91.1128 10.9251 91.1667 10.7012 91.3345 10.5333C91.5023 10.3653 91.7263 10.3114 91.9409 10.3114H92.7901C93.0047 10.3114 93.2287 10.3653 93.3965 10.5333C93.5643 10.7012 93.6182 10.9251 93.6182 11.1397V13.64C93.6265 13.6276 93.6349 13.6152 93.6433 13.6027C93.8879 13.2411 94.1518 12.9273 94.4362 12.6644C95.3659 11.7868 96.4123 11.1113 97.5743 10.64L97.5753 10.6396C98.7496 10.1675 99.9911 9.93211 101.297 9.93211C102.237 9.93211 103.143 10.0574 104.013 10.3091C104.89 10.5495 105.711 10.8947 106.475 11.345C107.238 11.7947 107.933 12.3334 108.56 12.9607C109.187 13.5878 109.725 14.2831 110.175 15.0462C110.625 15.8013 110.97 16.6182 111.211 17.4956C111.462 18.3761 111.587 19.2871 111.587 20.2276C111.587 21.168 111.462 22.0791 111.211 22.9596C110.97 23.837 110.625 24.6586 110.175 25.4233C109.726 26.1867 109.187 26.8822 108.56 27.5096C107.933 28.1369 107.238 28.6756 106.475 29.1252C105.711 29.5756 104.89 29.9208 104.013 30.1612C103.143 30.4128 102.237 30.5382 101.297 30.5382C100.636 30.5382 99.9902 30.47 99.3592 30.3332C98.7332 30.1975 98.1275 30.0094 97.5425 29.769L97.5401 29.768L97.5377 29.767C96.9538 29.5167 96.3959 29.2193 95.864 28.8749L95.8614 28.8732C95.3404 28.5292 94.8553 28.1483 94.4065 27.7306L94.3997 27.7242L94.3932 27.7175C94.1101 27.4238 93.8614 27.1277 93.6483 26.8292L93.6467 26.8269L93.6451 26.8246C93.6166 26.7833 93.5874 26.7412 93.5575 26.6982V35.384C93.5575 35.5467 93.4955 35.6943 93.3814 35.8085C93.2586 35.9313 93.1024 35.9842 92.9445 35.9848ZM108.427 17.2057L108.426 17.203C108.027 16.2402 107.479 15.4023 106.783 14.6862L106.781 14.6845C106.085 13.9582 105.266 13.3814 104.325 12.9539L104.323 12.9534C103.4 12.5298 102.407 12.317 101.342 12.317C100.266 12.317 99.2512 12.5254 98.2947 12.941L98.292 12.9422C97.3302 13.3504 96.4872 13.913 95.7604 14.6305L95.5196 14.3865C96.2778 13.638 97.1573 13.0514 98.1581 12.6266C99.1589 12.1916 100.22 11.9742 101.342 11.9742C102.454 11.9742 103.496 12.1967 104.466 12.6417C105.447 13.0868 106.301 13.6886 107.029 14.4472C107.757 15.1956 108.328 16.0705 108.742 17.0719C109.167 18.0732 109.379 19.1251 109.379 20.2276C109.379 21.3503 109.162 22.4123 108.727 23.4136C108.303 24.4149 107.721 25.2949 106.983 26.0535C106.256 26.812 105.396 27.4139 104.406 27.8589C103.415 28.2938 102.358 28.5113 101.236 28.5113C100.114 28.5113 99.0578 28.2887 98.0671 27.8437C97.0764 27.3886 96.212 26.7817 95.4741 26.0231C94.7361 25.2645 94.1548 24.3846 93.7302 23.3833C93.3057 22.3718 93.0934 21.3098 93.0934 20.1972C93.0934 19.0644 93.3107 17.9973 93.7454 16.996C94.1801 15.9947 94.7715 15.1248 95.5196 14.3865L95.7604 14.6305C95.0448 15.3368 94.4778 16.1698 94.0599 17.1325C93.6446 18.0891 93.4362 19.1096 93.4362 20.1972C93.4362 21.2646 93.6396 22.2812 94.046 23.2498C94.4545 24.2129 95.0124 25.0568 95.7198 25.784C96.4271 26.5111 97.2559 27.0935 98.2088 27.5315C99.1535 27.9557 100.161 28.1684 101.236 28.1684C102.312 28.1684 103.321 27.9603 104.266 27.5456C105.218 27.1181 106.04 26.5416 106.736 25.8161L106.738 25.8144C107.445 25.0871 108.003 24.2431 108.412 23.2798L108.413 23.2771C108.828 22.3201 109.036 21.3047 109.036 20.2276C109.036 19.1704 108.833 18.1641 108.427 17.2057ZM129.067 15.9947C129.34 16.7431 129.492 17.5118 129.522 18.3008V29.194C129.522 29.4266 129.563 29.5935 129.644 29.6947C129.724 29.7958 129.881 29.8464 130.114 29.8464H130.675C130.857 29.8464 131.003 29.7907 131.114 29.6795C131.226 29.5682 131.281 29.4013 131.281 29.1788V18.3614C131.281 17.2387 131.099 16.1868 130.735 15.2057C130.381 14.2246 129.876 13.3649 129.219 12.6266C128.562 11.8882 127.773 11.3066 126.853 10.8818C125.933 10.457 124.917 10.2446 123.805 10.2446C123.108 10.2446 122.436 10.3255 121.789 10.4874C121.152 10.6391 120.555 10.8667 119.999 11.1701C119.443 11.4634 118.933 11.8174 118.468 12.2321C118.141 12.5296 117.846 12.8531 117.582 13.2027C117.478 13.3404 117.379 13.4821 117.285 13.6279H117.24V5.04075C117.24 4.7272 117.083 4.57043 116.769 4.57043H115.966C115.652 4.57043 115.496 4.7272 115.496 5.04075V29.3609C115.496 29.6845 115.657 29.8464 115.981 29.8464H116.785C117.088 29.8464 117.24 29.6845 117.24 29.3609V17.876C117.27 16.996 117.477 16.197 117.861 15.4788C118.245 14.7506 118.736 14.1336 119.332 13.6279C119.939 13.1121 120.621 12.7176 121.379 12.4445C122.137 12.1613 122.911 12.0197 123.699 12.0197C124.599 12.0197 125.403 12.2018 126.11 12.5659C126.818 12.9199 127.419 13.3902 127.915 13.9768C128.41 14.5635 128.794 15.2361 129.067 15.9947ZM117.582 17.882C117.612 17.0524 117.807 16.3072 118.164 15.6406L118.165 15.6388C118.529 14.9472 118.993 14.3653 119.554 13.8894L119.554 13.8891C120.129 13.4002 120.775 13.0264 121.495 12.7671L121.499 12.7657C122.22 12.4964 122.953 12.3626 123.699 12.3626C124.552 12.3626 125.3 12.5347 125.953 12.8708L125.957 12.8725C126.624 13.2063 127.188 13.648 127.653 14.198C128.121 14.752 128.485 15.3886 128.745 16.1108L128.745 16.1121C129.005 16.8253 129.15 17.5567 129.179 18.3074V29.194C129.179 29.4495 129.22 29.7146 129.376 29.9088C129.559 30.1374 129.855 30.1892 130.114 30.1892H130.675C130.932 30.1892 131.171 30.1076 131.357 29.9219C131.555 29.7236 131.624 29.4541 131.624 29.1788V18.3614C131.624 17.2017 131.436 16.1098 131.057 15.0883C130.69 14.0689 130.163 13.1711 129.475 12.3986C128.786 11.6242 127.959 11.0146 126.997 10.5706C126.028 10.123 124.962 9.90177 123.805 9.90177C123.082 9.90177 122.382 9.98566 121.707 10.1543C121.043 10.3126 120.42 10.5503 119.837 10.8679C119.258 11.1739 118.725 11.5434 118.24 11.9762L118.237 11.9787C118.004 12.1914 117.785 12.4169 117.582 12.6551V5.04075C117.582 4.83117 117.53 4.61101 117.365 4.44564C117.199 4.28024 116.979 4.22757 116.769 4.22757H115.966C115.756 4.22757 115.536 4.28024 115.371 4.44564C115.205 4.61101 115.153 4.83117 115.153 5.04075V29.3609C115.153 29.5755 115.207 29.7995 115.375 29.9674C115.542 30.1353 115.766 30.1892 115.981 30.1892H116.785C116.995 30.1892 117.214 30.132 117.376 29.9594C117.534 29.791 117.582 29.5702 117.582 29.3609V17.882ZM135.19 4.41255L135.196 4.40199C135.322 4.1488 135.56 4.03189 135.811 4.00235L135.831 4H136.976L136.994 4.00189C137.258 4.0297 137.526 4.15046 137.64 4.44305C137.712 4.61787 137.741 4.81629 137.741 5.02558V5.6021C137.741 5.76519 137.727 5.9183 137.691 6.05184C137.656 6.18018 137.592 6.32229 137.468 6.42541C137.362 6.51616 137.234 6.56298 137.116 6.58917C136.992 6.6167 136.851 6.62768 136.7 6.62768H136.154C135.88 6.62768 135.608 6.59421 135.409 6.46784C135.164 6.31155 135.084 6.04932 135.084 5.79933V5.02558C135.084 4.80727 135.112 4.60121 135.186 4.42345L135.19 4.41255ZM137.246 6.16345C137.347 6.08254 137.398 5.89542 137.398 5.6021V5.02558C137.398 4.84352 137.373 4.6918 137.322 4.57043C137.272 4.43894 137.15 4.36309 136.958 4.34286H135.851C135.679 4.36309 135.563 4.43389 135.502 4.55526C135.452 4.67663 135.427 4.83341 135.427 5.02558V5.79933C135.427 5.98139 135.482 6.10782 135.593 6.17862C135.705 6.24943 135.892 6.28483 136.154 6.28483H136.7C136.973 6.28483 137.155 6.24437 137.246 6.16345ZM156.279 16.0704L156.278 16.069C156.009 15.348 155.631 14.7118 155.144 14.1577C154.661 13.6082 154.068 13.1655 153.359 12.8303L153.356 12.8287C152.661 12.4905 151.86 12.317 150.943 12.317C150.209 12.317 149.488 12.4552 148.779 12.7334L148.776 12.7343C148.077 13.0025 147.451 13.3852 146.896 13.8831L146.893 13.8853C146.341 14.371 145.888 14.9577 145.532 15.6489C145.193 16.3275 145.007 17.0803 144.978 17.912V29.3154C144.978 29.5247 144.929 29.7455 144.771 29.9139C144.61 30.0865 144.391 30.1437 144.18 30.1437H143.376C143.162 30.1437 142.938 30.0898 142.77 29.9219C142.602 29.754 142.548 29.53 142.548 29.3154V25.1521C142.535 25.0802 142.533 25.0048 142.533 24.9459V11.1853C142.533 10.9405 142.603 10.6969 142.798 10.5208C142.981 10.3549 143.209 10.2811 143.452 10.2811H144.074C144.324 10.2811 144.565 10.359 144.738 10.5604C144.903 10.7327 144.978 10.951 144.978 11.1853V12.3983C145.264 12.072 145.57 11.7841 145.897 11.5356C146.464 11.0947 147.051 10.7498 147.658 10.5043C148.257 10.2524 148.849 10.0823 149.436 9.99673C150.015 9.90365 150.553 9.85625 151.049 9.85625C152.255 9.85625 153.364 10.0767 154.372 10.5228C155.374 10.9657 156.232 11.5744 156.943 12.3493C157.651 13.1211 158.199 14.0185 158.588 15.0381C158.977 16.0605 159.171 17.1489 159.171 18.3008V29.1333C159.171 29.4086 159.102 29.6781 158.904 29.8763C158.718 30.0621 158.479 30.1437 158.222 30.1437H157.661C157.403 30.1437 157.106 30.0919 156.923 29.8633C156.768 29.6691 156.726 29.404 156.726 29.1485V18.2619C156.697 17.5127 156.548 16.7827 156.279 16.0704ZM157.069 18.2552V29.1485C157.069 29.3811 157.11 29.548 157.191 29.6491C157.272 29.7503 157.428 29.8009 157.661 29.8009H158.222C158.404 29.8009 158.55 29.7452 158.662 29.634C158.773 29.5227 158.828 29.3558 158.828 29.1333V18.3008C158.828 17.1882 158.641 16.1413 158.267 15.1602C157.893 14.1791 157.368 13.3194 156.69 12.5811C156.013 11.8427 155.194 11.2611 154.234 10.8363C153.273 10.4115 152.212 10.1991 151.049 10.1991C150.574 10.1991 150.054 10.2446 149.487 10.3357C148.931 10.4166 148.365 10.5784 147.789 10.8211C147.213 11.0538 146.652 11.3825 146.106 11.8073C145.699 12.1164 145.323 12.4929 144.978 12.9369C144.86 13.0886 144.746 13.2481 144.635 13.4155V11.1853C144.635 11.0234 144.584 10.8919 144.483 10.7908C144.392 10.6795 144.256 10.6239 144.074 10.6239H143.452C143.28 10.6239 143.139 10.6745 143.028 10.7756C142.927 10.8667 142.876 11.0032 142.876 11.1853V24.9459C142.876 25.0268 142.881 25.0825 142.891 25.1128V29.3154C142.891 29.639 143.053 29.8009 143.376 29.8009H144.18C144.483 29.8009 144.635 29.639 144.635 29.3154V17.9063C144.665 17.0263 144.863 16.2222 145.226 15.494C145.6 14.7658 146.081 14.1437 146.667 13.6279C147.253 13.1019 147.915 12.6974 148.653 12.4142C149.402 12.1208 150.165 11.9742 150.943 11.9742C151.904 11.9742 152.758 12.1562 153.506 12.5204C154.254 12.8744 154.886 13.3447 155.401 13.9313C155.917 14.518 156.316 15.1906 156.599 15.9492C156.882 16.6976 157.039 17.4663 157.069 18.2552ZM84.6284 4.66939C84.7966 4.5064 85.019 4.45515 85.2309 4.45515H86.0195C86.234 4.45515 86.4587 4.50515 86.6296 4.66576C86.8044 4.83012 86.8627 5.05308 86.8627 5.26833V29.3305C86.8627 29.5429 86.8073 29.7645 86.6372 29.9295C86.469 30.0925 86.2466 30.1437 86.0346 30.1437H85.2461C85.0316 30.1437 84.8069 30.0937 84.636 29.9331C84.4611 29.7687 84.4028 29.5458 84.4028 29.3305V5.26833C84.4028 5.05594 84.4582 4.83432 84.6284 4.66939ZM135.396 10.5029C135.564 10.335 135.788 10.2811 136.003 10.2811H136.807C137.021 10.2811 137.245 10.335 137.413 10.5029C137.581 10.6708 137.635 10.8948 137.635 11.1094V29.3154C137.635 29.5273 137.583 29.7498 137.421 29.918C137.256 30.0882 137.034 30.1437 136.822 30.1437H136.033C135.813 30.1437 135.585 30.0924 135.411 29.9291C135.234 29.7622 135.175 29.5355 135.175 29.3154V11.1094C135.175 10.8948 135.229 10.6708 135.396 10.5029ZM135.518 11.1094C135.518 10.7857 135.679 10.6239 136.003 10.6239H136.807C137.13 10.6239 137.292 10.7857 137.292 11.1094V29.3154C137.292 29.639 137.135 29.8009 136.822 29.8009H136.033C135.689 29.8009 135.518 29.639 135.518 29.3154V11.1094ZM85.2309 4.79801C84.9075 4.79801 84.7457 4.95478 84.7457 5.26833V29.3305C84.7457 29.6441 84.9125 29.8009 85.2461 29.8009H86.0346C86.3581 29.8009 86.5199 29.6441 86.5199 29.3305V5.26833C86.5199 4.95478 86.3531 4.79801 86.0195 4.79801H85.2309Z" fill="white"/>
<path fill-rule="evenodd" clip-rule="evenodd" d="M8.61956 21.5076C8.5343 21.4757 8.45037 21.4397 8.36809 21.3995C7.88696 21.1642 7.48174 20.7955 7.19955 20.3362C6.44298 20.2342 5.67376 20.291 4.93984 20.5031C4.76583 20.5723 4.55236 20.6712 4.31786 20.7798C3.4001 21.205 2.16022 21.7793 1.70297 21.3067C1.12888 20.7133 2.75343 19.0011 2.75343 19.0011C2.70821 18.0411 2.87999 17.0833 3.2557 16.2007C3.63141 15.3181 4.20114 14.5338 4.92152 13.9077C7.44384 11.5279 13.6916 10.5142 15.3772 11.5403C15.3772 11.5403 17.6289 9.20017 19.736 9.38156C20.1362 9.41601 20.5311 9.54137 20.9044 9.79094C20.5867 9.98064 20.3059 10.2238 20.073 10.5081C19.9064 10.7116 19.7643 10.9362 19.6509 11.1773C19.3788 11.7555 19.2837 12.4028 19.3775 13.0361C21.4755 14.1228 23.233 15.7795 24.4527 17.8205C26.6269 21.3314 26.4193 25.7943 26.4193 25.7943C26.4193 25.7943 29.3255 26.0323 30.5327 28.3877C30.7013 28.7166 30.8367 29.0866 30.9264 29.5031C30.5274 29.4687 30.1374 29.3654 29.7732 29.198C29.7401 29.1828 29.7072 29.1671 29.6745 29.1508C29.6745 29.1508 28.3094 29.5466 27.0536 28.8843C26.7402 28.719 26.4336 28.4877 26.1566 28.1679C26.1566 28.1679 26.1566 28.7215 25.7092 29.179C25.4532 29.4407 25.0507 29.671 24.418 29.7481C24.2905 29.7636 24.1537 29.773 24.0069 29.7751L23.5061 30.6714C23.5061 30.6714 23.3707 30.1516 23.3959 29.4299C23.4033 29.2192 23.4244 28.9914 23.4665 28.7542C23.6206 27.8868 24.0563 26.8948 25.1338 26.1649C25.1489 26.1546 25.1641 26.1444 25.1795 26.1343C25.1795 26.1343 25.165 26.1008 25.1338 26.0385C24.82 25.413 22.8148 21.8814 16.7898 20.1613C16.4537 20.0654 16.1052 19.975 15.7437 19.8912C15.7513 20.2702 15.8212 20.6447 15.9499 20.9995C15.9789 21.0796 16.011 21.1586 16.046 21.2365C16.07 21.2901 16.0954 21.343 16.1222 21.3951C16.3063 21.7545 16.5523 22.0784 16.8491 22.3513C16.8491 22.3513 16.3326 22.4846 15.5281 22.3896C14.45 22.2624 12.8547 21.7256 11.2914 19.9097L9.34932 20.1446C9.34932 20.1446 9.34959 20.1469 9.35013 20.1514C9.35494 20.1909 9.3814 20.3976 9.43639 20.6481C9.47174 20.8092 9.51889 20.9883 9.57965 21.1527C9.66419 21.3815 9.7751 21.5818 9.9173 21.6652C9.47724 21.7163 9.03279 21.6617 8.61956 21.5076ZM10.8182 21.0029L11.0075 21.114C10.9686 21.0747 10.9298 21.0347 10.891 20.9941L10.8182 21.0029ZM12.5861 22.3906C13.4085 22.9053 14.1987 23.1864 14.8905 23.3277C15.5141 23.455 16.0433 23.4659 16.4268 23.4424C16.6186 23.4307 16.7748 23.4103 16.8892 23.3913C16.9465 23.3817 16.9934 23.3725 17.0293 23.3649C17.0472 23.361 17.0624 23.3576 17.0748 23.3547L17.0912 23.3507L17.0978 23.3491L17.1007 23.3483L17.102 23.348C17.1026 23.3478 17.1033 23.3477 16.8491 22.3513H17.872V21.8982L17.5394 21.5923C17.4792 21.537 17.422 21.4786 17.3679 21.4174C19.8663 22.2606 21.5169 23.4203 22.5692 24.4139C23.1733 24.9843 23.5861 25.5056 23.8508 25.8907C22.8951 26.8253 22.5265 27.9542 22.4137 28.8804C22.3448 29.4455 22.3683 29.945 22.4084 30.3033C22.4285 30.4837 22.4533 30.6318 22.474 30.7388C22.4844 30.7925 22.4938 30.8361 22.5012 30.8685C22.5049 30.8848 22.5082 30.8983 22.5108 30.9089L22.5142 30.9227L22.5155 30.9279L22.5163 30.9311C22.5165 30.9316 22.5166 30.9321 23.5061 30.6714L22.5166 30.9321L23.1581 33.394L24.6315 30.7569C25.507 30.6309 26.1333 30.2629 26.5492 29.7798C27.1831 30.1203 27.8309 30.2514 28.3699 30.2862C28.8108 30.3146 29.1945 30.2807 29.4694 30.2398C29.5016 30.2351 29.5324 30.2301 29.5619 30.2252C29.9701 30.3878 30.4002 30.49 30.8389 30.5279L32.2197 30.6471L31.9261 29.2852C31.4724 27.1805 30.0608 26.0385 28.8425 25.4474C28.3256 25.1966 27.8324 25.0381 27.4378 24.9383C27.4204 24.4403 27.3747 23.7622 27.264 22.9792C27.0338 21.3513 26.5132 19.2051 25.3253 17.2836C24.1111 15.2547 22.4043 13.5771 20.3704 12.4081C20.3891 12.135 20.4582 11.8666 20.5755 11.6172C20.7608 11.2234 21.0575 10.8958 21.4267 10.6753L22.8253 9.84008L21.4707 8.93442C19.7785 7.80302 17.9033 8.51973 16.752 9.1885C16.1379 9.54522 15.6154 9.95107 15.2501 10.2627C15.2189 10.2894 15.1887 10.3154 15.1595 10.3408C14.6179 10.1823 14.0012 10.1225 13.4014 10.1142C12.453 10.1009 11.3616 10.2157 10.2613 10.4384C8.10997 10.8739 5.70484 11.7678 4.23698 13.1432C3.40616 13.8695 2.74928 14.7765 2.31534 15.796C1.93508 16.6893 1.73465 17.6486 1.72391 18.618C1.56656 18.8047 1.35723 19.0673 1.16293 19.3592C0.975682 19.6404 0.759075 20.0122 0.643819 20.4051C0.537891 20.7662 0.432731 21.4688 0.969783 22.0239C1.42744 22.497 2.02892 22.5351 2.41132 22.5047C2.81364 22.4727 3.2232 22.3479 3.56829 22.2206C3.92403 22.0894 4.27929 21.9293 4.58022 21.7906C4.64294 21.7617 4.70235 21.7342 4.75869 21.7081C4.96709 21.6117 5.13355 21.5346 5.27054 21.4781C5.71897 21.3539 6.18282 21.3005 6.6458 21.3192C6.99388 21.7399 7.42783 22.0834 7.92075 22.3244C8.57689 22.6453 9.31003 22.7712 10.0347 22.687L12.5861 22.3906ZM24.2441 26.5505C24.2445 26.5515 24.2446 26.5516 24.2441 26.5505V26.5505Z" fill="white"/>
<path d="M165.942 29.4311C165.871 29.6054 165.768 29.7437 165.635 29.8462C165.502 29.9487 165.333 30 165.128 30H163.498C163.026 30 162.791 29.8206 162.791 29.4619C162.791 29.3901 162.791 29.3337 162.791 29.2927C162.801 29.2415 162.811 29.1954 162.821 29.1544C162.832 29.1134 162.842 29.0775 162.852 29.0467L171.723 7.737C171.744 7.68575 171.77 7.62937 171.8 7.56787C171.831 7.49612 171.872 7.43462 171.923 7.38337C171.975 7.32187 172.046 7.27062 172.139 7.22962C172.241 7.18862 172.374 7.16812 172.538 7.16812H173.553C173.707 7.16812 173.83 7.18862 173.922 7.22962C174.025 7.27062 174.101 7.32187 174.153 7.38337C174.204 7.43462 174.245 7.49612 174.276 7.56787C174.306 7.62937 174.332 7.68575 174.353 7.737L183.147 29.0467C183.157 29.098 183.168 29.1492 183.178 29.2005C183.188 29.2517 183.198 29.303 183.209 29.3542C183.219 29.3952 183.224 29.4311 183.224 29.4619C183.224 29.8206 182.988 30 182.517 30H180.887C180.682 30 180.513 29.9487 180.38 29.8462C180.246 29.7437 180.144 29.6054 180.072 29.4311L178.381 25.203H167.588C167.229 26.1152 166.901 26.9404 166.604 27.6784C166.306 28.4164 166.086 29.0006 165.942 29.4311ZM168.818 22.2202H177.197L173.046 11.7037L168.818 22.2202ZM189.6 12.534C189.723 12.2982 189.897 12.042 190.123 11.7652C190.359 11.4885 190.64 11.2322 190.968 10.9965C191.296 10.7607 191.671 10.566 192.091 10.4122C192.511 10.2482 192.972 10.1662 193.475 10.1662C194.028 10.1662 194.525 10.1919 194.966 10.2431C195.417 10.2841 195.842 10.3661 196.242 10.4891C196.642 10.6019 197.026 10.7607 197.395 10.9657C197.774 11.1605 198.169 11.4116 198.579 11.7191C198.702 11.8114 198.835 11.9292 198.979 12.0727C199.133 12.2162 199.209 12.3854 199.209 12.5801C199.209 12.6929 199.184 12.7954 199.133 12.8876L198.225 14.2867C198.082 14.461 197.938 14.5481 197.795 14.5481C197.713 14.5481 197.636 14.5225 197.564 14.4713C197.493 14.4097 197.405 14.3431 197.303 14.2714C196.667 13.8409 196.047 13.5282 195.443 13.3335C194.848 13.1285 194.213 13.026 193.536 13.026C193.024 13.026 192.532 13.1234 192.06 13.3181C191.589 13.5129 191.168 13.7947 190.799 14.1637C190.441 14.5225 190.148 14.9684 189.923 15.5014C189.708 16.0241 189.6 16.6186 189.6 17.2849V29.3235C189.6 29.7745 189.375 30 188.924 30H187.325C186.853 30 186.617 29.7745 186.617 29.3235V11.1502C186.617 10.9452 186.684 10.7812 186.817 10.6582C186.95 10.5352 187.109 10.4737 187.294 10.4737H188.893C189.108 10.4737 189.277 10.5404 189.4 10.6736C189.533 10.8069 189.6 10.9657 189.6 11.1502V12.534ZM216.064 25.5566C216.135 25.4951 216.212 25.4336 216.294 25.3721C216.386 25.3004 216.479 25.2491 216.571 25.2184C216.673 25.1876 216.771 25.1876 216.863 25.2184C216.966 25.2491 217.068 25.3311 217.171 25.4644C217.376 25.7411 217.54 25.9666 217.663 26.1409C217.796 26.3151 217.903 26.4535 217.985 26.556C218.067 26.6687 218.129 26.7507 218.17 26.802C218.221 26.884 218.262 26.966 218.293 27.048C218.334 27.13 218.344 27.2222 218.324 27.3247C218.303 27.417 218.247 27.5246 218.155 27.6476C218.073 27.7604 217.939 27.8885 217.755 28.032C217.314 28.3805 216.853 28.6982 216.371 28.9853C215.9 29.262 215.402 29.5029 214.88 29.7079C214.357 29.9129 213.803 30.0718 213.219 30.1845C212.645 30.2973 212.035 30.3536 211.39 30.3536C210.477 30.3536 209.596 30.2358 208.745 30C207.894 29.754 207.09 29.4106 206.331 28.9699C205.583 28.5189 204.896 27.9859 204.271 27.3709C203.656 26.7559 203.123 26.0742 202.672 25.326C202.221 24.5777 201.872 23.7782 201.626 22.9275C201.38 22.0665 201.257 21.1747 201.257 20.2522C201.257 19.3297 201.38 18.4431 201.626 17.5924C201.872 16.7314 202.221 15.9267 202.672 15.1785C203.123 14.4302 203.656 13.7486 204.271 13.1336C204.896 12.5186 205.583 11.9907 206.331 11.55C207.09 11.099 207.894 10.7556 208.745 10.5199C209.596 10.2739 210.477 10.1509 211.39 10.1509C211.964 10.1509 212.532 10.2072 213.096 10.32C213.67 10.4225 214.219 10.5711 214.741 10.7659C215.274 10.9504 215.771 11.1707 216.233 11.427C216.704 11.6832 217.124 11.96 217.493 12.2572C217.565 12.3187 217.647 12.3905 217.739 12.4725C217.842 12.5442 217.924 12.6314 217.985 12.7339C218.057 12.8261 218.103 12.9337 218.124 13.0568C218.144 13.1695 218.119 13.2925 218.047 13.4257L216.925 14.9017C216.658 15.2502 216.351 15.2451 216.002 14.8864C215.725 14.5994 215.408 14.3431 215.049 14.1176C214.69 13.8819 214.306 13.682 213.896 13.518C213.486 13.3437 213.06 13.2105 212.62 13.1182C212.179 13.026 211.743 12.9799 211.313 12.9799C210.411 12.9799 209.539 13.1746 208.699 13.5641C207.858 13.9536 207.115 14.4815 206.47 15.1477C205.824 15.814 205.306 16.5879 204.917 17.4694C204.527 18.3509 204.332 19.2785 204.332 20.2522C204.332 21.2362 204.522 22.169 204.901 23.0505C205.291 23.9217 205.808 24.6854 206.454 25.3414C207.1 25.9974 207.843 26.5201 208.684 26.9096C209.534 27.2889 210.416 27.4785 211.328 27.4785C211.892 27.4785 212.399 27.4272 212.85 27.3247C213.311 27.212 213.727 27.0685 214.096 26.8942C214.475 26.7097 214.823 26.5047 215.141 26.2792C215.459 26.0435 215.766 25.8026 216.064 25.5566ZM231.649 7.84462C231.649 7.66012 231.706 7.50125 231.819 7.368C231.931 7.23475 232.1 7.16812 232.326 7.16812H237.354C237.497 7.16812 237.646 7.204 237.799 7.27575C237.953 7.3475 238.086 7.4705 238.199 7.64475C239.501 9.746 240.792 11.8165 242.074 13.8562C243.355 15.896 244.652 17.9665 245.964 20.0677V7.75237C246.005 7.56787 246.087 7.42437 246.21 7.32187C246.333 7.21937 246.476 7.16812 246.64 7.16812H251.022C251.237 7.16812 251.417 7.22962 251.56 7.35262C251.704 7.46537 251.775 7.62937 251.775 7.84462V29.4004C251.775 29.6054 251.714 29.7591 251.591 29.8616C251.468 29.9539 251.299 30 251.083 30H246.179C246.046 30 245.928 29.9539 245.825 29.8616C245.723 29.7694 245.615 29.6464 245.502 29.4926C244.139 27.2376 242.791 25.0082 241.459 22.8045C240.126 20.6007 238.773 18.3714 237.4 16.1164V29.3235C237.4 29.549 237.348 29.7181 237.246 29.8309C237.143 29.9436 236.959 30 236.692 30H232.326C232.09 30 231.916 29.9385 231.803 29.8155C231.701 29.6822 231.649 29.5234 231.649 29.3389V7.84462ZM256.906 7.87537C256.906 7.66012 256.962 7.491 257.075 7.368C257.198 7.245 257.341 7.17837 257.505 7.16812H272.219C272.455 7.16812 272.629 7.23475 272.742 7.368C272.865 7.50125 272.926 7.68062 272.926 7.90612V11.7191C272.926 11.8934 272.865 12.0625 272.742 12.2265C272.619 12.3802 272.439 12.4571 272.204 12.4571H262.856V17.208H269.759C269.954 17.208 270.118 17.2644 270.251 17.3771C270.384 17.4796 270.451 17.6487 270.451 17.8845V21.5591C270.451 21.7334 270.389 21.9025 270.266 22.0665C270.154 22.2202 269.995 22.2971 269.79 22.2971H262.856V29.3389C262.856 29.7796 262.62 30 262.148 30H257.459C257.09 29.9487 256.906 29.7335 256.906 29.3542V7.87537ZM275.477 7.84462C275.477 7.63962 275.543 7.47562 275.677 7.35262C275.82 7.22962 275.994 7.16812 276.199 7.16812H292.758C292.943 7.16812 293.107 7.2245 293.25 7.33725C293.394 7.45 293.476 7.61912 293.496 7.84462V11.673C293.496 11.8575 293.43 12.0369 293.296 12.2111C293.173 12.3751 292.994 12.4571 292.758 12.4571H287.454V29.2774C287.454 29.4619 287.387 29.631 287.254 29.7847C287.121 29.9282 286.946 30 286.731 30H282.211C282.037 30 281.873 29.9334 281.719 29.8001C281.565 29.6566 281.488 29.4824 281.488 29.2774V12.4571H276.199C275.994 12.4571 275.82 12.3905 275.677 12.2572C275.543 12.124 275.477 11.9292 275.477 11.673V7.84462Z" fill="white"/>
</svg>
