<svg width="197" height="293" viewBox="0 0 197 293" fill="none" xmlns="http://www.w3.org/2000/svg">
<circle r="12.3488" transform="matrix(1 0 0 -1 98.3488 280.253)" fill="#7598EC" fill-opacity="0.27"/>
<circle r="6.17442" transform="matrix(1 0 0 -1 98.3487 279.481)" fill="#8279E3"/>
<line y1="-0.5" x2="164.394" y2="-0.5" transform="matrix(0 1 1 0 98.3491 112)" stroke="#8279E3" stroke-dasharray="2 2"/>
<rect x="1" y="1" width="195" height="178" rx="9" fill="#F1F1F1"/>
<g opacity="0.2">
<g clip-path="url(#clip0_1_130)">
<g filter="url(#filter0_f_1_130)">
<path d="M101.695 234.589C101.695 260.263 76.1216 234.589 11.7146 234.589C-52.6925 234.589 -37.4194 168.47 -37.4194 142.797C-37.4194 117.123 -13.0301 155.817 51.377 155.817C115.784 155.817 101.695 208.916 101.695 234.589Z" fill="url(#paint0_linear_1_130)"/>
</g>
<g filter="url(#filter1_f_1_130)">
<path d="M204.674 157.186C180.48 165.798 182.419 114.051 164.176 62.8016C145.932 11.552 114.413 -19.7931 138.607 -28.4056C162.801 -37.0182 197.204 -2.45392 215.448 48.7958C233.692 100.045 228.868 148.573 204.674 157.186Z" fill="url(#paint1_linear_1_130)"/>
</g>
</g>
</g>
<path d="M104.979 66.2118C104.146 65.9145 103.299 65.6507 102.459 65.3684C97.0763 63.5614 93.0425 60.1627 90.4138 55.1106C89.472 53.3019 88.9603 51.3295 88.2752 49.4323C87.9585 48.5504 87.3217 48.0962 86.4532 48.1095C85.6281 48.1095 84.9747 48.5889 84.6763 49.4222C84.4474 50.0647 84.2341 50.7127 84.0363 51.3662C82.5361 56.2997 79.7024 60.2378 75.3834 63.0787C73.2265 64.4949 70.8195 65.3116 68.3825 66.0682C67.5674 66.322 66.9407 66.7362 66.564 67.5028V68.6285C66.7524 68.993 67.02 69.3105 67.3471 69.5576C67.6743 69.8048 68.0526 69.9752 68.4542 70.0564C69.0543 70.2017 69.631 70.4422 70.2194 70.6326C75.8652 72.4697 80.0541 75.9953 82.7078 81.3313C83.5295 82.988 84.0029 84.7734 84.618 86.5086C84.9697 87.5006 85.5665 87.9933 86.4516 88C87.3667 88 87.9968 87.514 88.3452 86.4969C88.5802 85.8105 88.8019 85.1207 89.0219 84.431C90.8338 78.7526 94.356 74.5139 99.7 71.8384C101.389 70.9933 103.215 70.5224 104.979 69.881C105.916 69.547 106.383 68.9257 106.381 68.0439C106.379 67.1621 105.929 66.5508 104.979 66.2118ZM86.4783 80.4394C83.8812 74.7611 79.789 70.656 74.1149 68.0523C79.7824 65.4502 83.8679 61.3618 86.4766 55.6634C89.0803 61.3418 93.1725 65.4436 98.8482 68.0506C93.1625 70.656 89.0703 74.7611 86.4783 80.4394Z" fill="url(#paint2_linear_1_130)"/>
<path d="M129.023 38.099C128.888 38.0456 128.756 37.9838 128.621 37.932C122.765 35.6924 118.738 31.6173 116.514 25.7619C116.221 24.9904 115.837 24.3707 115.094 24.0016H113.972C113.152 24.3975 112.777 25.1173 112.487 25.939C111.585 28.4453 110.176 30.7383 108.35 32.6745C106.053 35.1509 103.182 37.021 99.9904 38.119C99.0952 38.4347 98.6335 39.0827 98.6318 39.9228C98.6302 40.7628 99.1036 41.4075 99.977 41.7448C100.112 41.7966 100.25 41.8384 100.385 41.8885C104.074 43.2295 107.296 45.6125 109.662 48.7493C110.987 50.5076 112.024 52.4669 112.732 54.5529C113.025 55.3879 113.695 55.8689 114.501 55.8773C115.347 55.8873 115.992 55.423 116.334 54.5529C116.379 54.4376 116.418 54.3191 116.461 54.2022C118.202 49.4791 121.248 45.8566 125.599 43.3348C126.698 42.7188 127.847 42.1954 129.033 41.7699C129.981 41.4125 130.433 40.8096 130.431 39.9328C130.429 39.056 129.984 38.4731 129.023 38.099ZM114.537 49.3121C112.348 45.3766 109.109 42.1299 105.181 39.9361C109.109 37.739 112.348 34.4888 114.536 30.5501C116.725 34.4896 119.968 37.739 123.9 39.9328C119.969 42.1251 116.726 45.3734 114.537 49.3121Z" fill="url(#paint3_linear_1_130)"/>
<path d="M84.8216 32.0165C81.7995 30.8858 79.6725 28.8132 78.4674 25.8371C78.154 25.0622 77.8006 24.4092 77.0505 24H75.9287C75.0486 24.1453 74.6786 24.805 74.4035 25.5415C73.4801 28.0149 71.8232 29.8521 69.5695 31.1831C69.0311 31.5021 68.4377 31.6842 67.8693 31.9414C67.2259 32.2236 66.6675 32.5894 66.5708 33.3743V34.4983C66.9042 34.9893 67.2159 35.482 67.821 35.6941C71.2031 36.8882 73.4717 39.2013 74.6902 42.5716C74.8171 42.9386 75.0539 43.2574 75.3684 43.4845C75.6828 43.7117 76.0595 43.8361 76.4471 43.8409C76.834 43.8347 77.2103 43.7128 77.5275 43.4908C77.8447 43.2688 78.0884 42.9568 78.2274 42.595C78.404 42.1758 78.5507 41.7415 78.7491 41.334C79.3571 40.0425 80.2156 38.885 81.2744 37.929C82.3332 36.9731 83.5713 36.2378 84.9166 35.7659C85.5833 35.5221 86.0834 35.1446 86.2901 34.4482C86.5951 33.3743 86.0617 32.4791 84.8216 32.0165ZM76.6538 37.4727C76.4571 37.755 76.3788 37.6398 76.2354 37.4327C75.25 36.0649 74.0358 34.8783 72.6466 33.9254C74.125 32.8731 75.4151 31.5778 76.4621 30.0942C77.4915 31.586 78.7813 32.8794 80.2693 33.9121C78.8689 34.8803 77.6472 36.0852 76.6588 37.4727H76.6538Z" fill="url(#paint4_linear_1_130)"/>
<path d="M129.067 76.2541C125.797 75.0466 123.58 72.797 122.363 69.5336C122.03 68.6534 121.363 68.1557 120.566 68.1507C119.769 68.1457 119.054 68.6518 118.746 69.5102C117.537 72.8371 115.272 75.0884 111.95 76.2892C111.574 76.4165 111.246 76.6574 111.012 76.9789C110.778 77.3004 110.649 77.6867 110.643 78.0845C110.643 78.8678 111.143 79.5492 111.958 79.8732C112.578 80.1006 113.181 80.3712 113.763 80.6832C116.088 81.9783 117.856 84.0851 118.731 86.6021C119.064 87.5407 119.699 87.9949 120.574 87.9899C121.423 87.9899 122.011 87.534 122.373 86.6271C122.54 86.2046 122.706 85.777 122.906 85.3712C124.152 82.8275 126.345 80.8763 129.014 79.9383C129.971 79.586 130.429 78.978 130.436 78.1163C130.442 77.2545 129.994 76.5981 129.067 76.2541ZM120.566 81.9041C119.584 80.4771 118.361 79.2336 116.951 78.2298C116.692 78.0495 116.897 77.971 117.016 77.8858C118.39 76.8855 119.585 75.6596 120.551 74.26C121.582 75.7526 122.874 77.0456 124.365 78.0762C122.88 79.1199 121.589 80.4153 120.549 81.9041H120.566Z" fill="url(#paint5_linear_1_130)"/>
<path d="M62.5481 119.16C61.7695 119.16 61.0708 118.968 60.4521 118.584C59.8441 118.2 59.3588 117.677 58.9961 117.016C58.6441 116.355 58.4681 115.613 58.4681 114.792C58.4681 113.971 58.6441 113.229 58.9961 112.568C59.3588 111.907 59.8441 111.384 60.4521 111C61.0708 110.616 61.7695 110.424 62.5481 110.424C63.2948 110.424 63.9721 110.579 64.5801 110.888C65.1988 111.187 65.6681 111.597 65.9881 112.12L65.0761 113.24C64.9055 112.995 64.6868 112.771 64.4201 112.568C64.1535 112.365 63.8708 112.205 63.5721 112.088C63.2735 111.971 62.9855 111.912 62.7081 111.912C62.1961 111.912 61.7375 112.04 61.3321 112.296C60.9375 112.541 60.6228 112.883 60.3881 113.32C60.1535 113.757 60.0361 114.248 60.0361 114.792C60.0361 115.336 60.1588 115.827 60.4041 116.264C60.6495 116.691 60.9748 117.032 61.3801 117.288C61.7855 117.544 62.2335 117.672 62.7241 117.672C63.0121 117.672 63.2895 117.624 63.5561 117.528C63.8335 117.432 64.1001 117.288 64.3561 117.096C64.6121 116.904 64.8521 116.669 65.0761 116.392L65.9881 117.512C65.6468 117.992 65.1561 118.387 64.5161 118.696C63.8868 119.005 63.2308 119.16 62.5481 119.16ZM67.5746 119V107.16H69.2226V119H67.5746ZM74.634 119.16C73.9407 119.16 73.306 118.968 72.73 118.584C72.1647 118.2 71.7113 117.677 71.37 117.016C71.0287 116.355 70.858 115.608 70.858 114.776C70.858 113.933 71.0287 113.187 71.37 112.536C71.722 111.875 72.1913 111.357 72.778 110.984C73.3753 110.611 74.042 110.424 74.778 110.424C75.2153 110.424 75.6153 110.488 75.978 110.616C76.3407 110.744 76.6553 110.925 76.922 111.16C77.1993 111.384 77.4233 111.645 77.594 111.944C77.7753 112.243 77.8873 112.563 77.93 112.904L77.562 112.776V110.6H79.226V119H77.562V117L77.946 116.888C77.882 117.176 77.7487 117.459 77.546 117.736C77.354 118.003 77.1033 118.243 76.794 118.456C76.4953 118.669 76.1593 118.84 75.786 118.968C75.4233 119.096 75.0393 119.16 74.634 119.16ZM75.066 117.64C75.5673 117.64 76.01 117.517 76.394 117.272C76.778 117.027 77.0767 116.691 77.29 116.264C77.514 115.827 77.626 115.331 77.626 114.776C77.626 114.232 77.514 113.747 77.29 113.32C77.0767 112.893 76.778 112.557 76.394 112.312C76.01 112.067 75.5673 111.944 75.066 111.944C74.5753 111.944 74.138 112.067 73.754 112.312C73.3807 112.557 73.082 112.893 72.858 113.32C72.6447 113.747 72.538 114.232 72.538 114.776C72.538 115.331 72.6447 115.827 72.858 116.264C73.082 116.691 73.3807 117.027 73.754 117.272C74.138 117.517 74.5753 117.64 75.066 117.64ZM81.799 119V110.6H83.447V119H81.799ZM82.599 108.744C82.247 108.744 81.975 108.653 81.783 108.472C81.591 108.291 81.495 108.035 81.495 107.704C81.495 107.395 81.591 107.144 81.783 106.952C81.9857 106.76 82.2577 106.664 82.599 106.664C82.951 106.664 83.223 106.755 83.415 106.936C83.607 107.117 83.703 107.373 83.703 107.704C83.703 108.013 83.6017 108.264 83.399 108.456C83.207 108.648 82.9403 108.744 82.599 108.744ZM85.9481 119V110.6H87.6121V112.392L87.3081 112.584C87.3935 112.307 87.5268 112.04 87.7081 111.784C87.9001 111.528 88.1295 111.304 88.3961 111.112C88.6735 110.909 88.9668 110.749 89.2761 110.632C89.5961 110.515 89.9215 110.456 90.2521 110.456C90.7321 110.456 91.1535 110.536 91.5161 110.696C91.8788 110.856 92.1775 111.096 92.4121 111.416C92.6468 111.736 92.8175 112.136 92.9241 112.616L92.6681 112.552L92.7801 112.28C92.8975 112.035 93.0575 111.805 93.2601 111.592C93.4735 111.368 93.7135 111.171 93.9801 111C94.2468 110.829 94.5295 110.696 94.8281 110.6C95.1268 110.504 95.4201 110.456 95.7081 110.456C96.3375 110.456 96.8548 110.584 97.2601 110.84C97.6761 111.096 97.9855 111.485 98.1881 112.008C98.4015 112.531 98.5081 113.181 98.5081 113.96V119H96.8441V114.056C96.8441 113.576 96.7801 113.187 96.6521 112.888C96.5348 112.579 96.3535 112.349 96.1081 112.2C95.8628 112.051 95.5481 111.976 95.1641 111.976C94.8655 111.976 94.5828 112.029 94.3161 112.136C94.0601 112.232 93.8361 112.371 93.6441 112.552C93.4521 112.733 93.3028 112.947 93.1961 113.192C93.0895 113.427 93.0361 113.688 93.0361 113.976V119H91.3721V114.024C91.3721 113.587 91.3081 113.219 91.1801 112.92C91.0521 112.611 90.8655 112.376 90.6201 112.216C90.3748 112.056 90.0761 111.976 89.7241 111.976C89.4255 111.976 89.1481 112.029 88.8921 112.136C88.6361 112.232 88.4121 112.371 88.2201 112.552C88.0281 112.723 87.8788 112.931 87.7721 113.176C87.6655 113.411 87.6121 113.667 87.6121 113.944V119H85.9481ZM106.607 122.68L108.303 118.76L108.319 120.072L104.127 110.6H106.047L108.671 116.776C108.724 116.883 108.788 117.048 108.863 117.272C108.938 117.485 109.002 117.699 109.055 117.912L108.639 118.008C108.724 117.784 108.804 117.56 108.879 117.336C108.964 117.112 109.044 116.888 109.119 116.664L111.311 110.6H113.263L109.807 119L108.383 122.68H106.607ZM118.116 119.16C117.294 119.16 116.558 118.973 115.908 118.6C115.268 118.216 114.761 117.699 114.388 117.048C114.014 116.387 113.828 115.635 113.828 114.792C113.828 113.949 114.014 113.203 114.388 112.552C114.761 111.891 115.268 111.373 115.908 111C116.558 110.616 117.294 110.424 118.116 110.424C118.926 110.424 119.652 110.616 120.292 111C120.942 111.373 121.454 111.891 121.828 112.552C122.201 113.203 122.388 113.949 122.388 114.792C122.388 115.635 122.201 116.387 121.828 117.048C121.454 117.699 120.942 118.216 120.292 118.6C119.652 118.973 118.926 119.16 118.116 119.16ZM118.116 117.656C118.617 117.656 119.065 117.533 119.46 117.288C119.854 117.032 120.164 116.691 120.388 116.264C120.612 115.827 120.718 115.336 120.708 114.792C120.718 114.237 120.612 113.747 120.388 113.32C120.164 112.883 119.854 112.541 119.46 112.296C119.065 112.051 118.617 111.928 118.116 111.928C117.614 111.928 117.161 112.056 116.756 112.312C116.361 112.557 116.052 112.899 115.828 113.336C115.604 113.763 115.497 114.248 115.508 114.792C115.497 115.336 115.604 115.827 115.828 116.264C116.052 116.691 116.361 117.032 116.756 117.288C117.161 117.533 117.614 117.656 118.116 117.656ZM127.127 119.16C126.53 119.16 126.007 119.021 125.559 118.744C125.122 118.467 124.781 118.077 124.535 117.576C124.301 117.075 124.183 116.477 124.183 115.784V110.6H125.831V115.336C125.831 115.827 125.906 116.253 126.055 116.616C126.215 116.968 126.439 117.24 126.727 117.432C127.026 117.624 127.383 117.72 127.799 117.72C128.109 117.72 128.391 117.672 128.647 117.576C128.903 117.469 129.122 117.325 129.303 117.144C129.495 116.963 129.645 116.744 129.751 116.488C129.858 116.232 129.911 115.955 129.911 115.656V110.6H131.559V119H129.911V117.24L130.199 117.048C130.071 117.443 129.853 117.8 129.543 118.12C129.245 118.44 128.887 118.696 128.471 118.888C128.055 119.069 127.607 119.16 127.127 119.16ZM133.871 119V110.6H135.535V113.24L135.375 112.6C135.492 112.195 135.689 111.827 135.967 111.496C136.255 111.165 136.58 110.904 136.943 110.712C137.316 110.52 137.7 110.424 138.095 110.424C138.276 110.424 138.447 110.44 138.607 110.472C138.777 110.504 138.911 110.541 139.007 110.584L138.575 112.376C138.447 112.323 138.303 112.28 138.143 112.248C137.993 112.205 137.844 112.184 137.695 112.184C137.407 112.184 137.129 112.243 136.863 112.36C136.607 112.467 136.377 112.621 136.175 112.824C135.983 113.016 135.828 113.245 135.711 113.512C135.593 113.768 135.535 114.051 135.535 114.36V119H133.871ZM27.2256 137V128.6H28.8736V137H27.2256ZM28.0256 126.744C27.6736 126.744 27.4016 126.653 27.2096 126.472C27.0176 126.291 26.9216 126.035 26.9216 125.704C26.9216 125.395 27.0176 125.144 27.2096 124.952C27.4122 124.76 27.6842 124.664 28.0256 124.664C28.3776 124.664 28.6496 124.755 28.8416 124.936C29.0336 125.117 29.1296 125.373 29.1296 125.704C29.1296 126.013 29.0282 126.264 28.8256 126.456C28.6336 126.648 28.3669 126.744 28.0256 126.744ZM34.1107 137.16C33.3427 137.16 32.6547 136.973 32.0467 136.6C31.4494 136.216 30.9747 135.699 30.6227 135.048C30.2707 134.387 30.0947 133.635 30.0947 132.792C30.0947 131.949 30.2654 131.203 30.6067 130.552C30.9587 129.891 31.4334 129.373 32.0307 129C32.628 128.616 33.3054 128.424 34.0627 128.424C34.4787 128.424 34.8787 128.493 35.2627 128.632C35.6574 128.76 36.0094 128.941 36.3187 129.176C36.628 129.4 36.868 129.651 37.0387 129.928C37.22 130.195 37.3107 130.467 37.3107 130.744L36.8307 130.776V125.16H38.4787V137H36.8307V135H37.1507C37.1507 135.256 37.0654 135.512 36.8947 135.768C36.724 136.013 36.4947 136.243 36.2067 136.456C35.9294 136.669 35.604 136.84 35.2307 136.968C34.868 137.096 34.4947 137.16 34.1107 137.16ZM34.3347 135.736C34.836 135.736 35.2787 135.608 35.6627 135.352C36.0467 135.096 36.3454 134.749 36.5587 134.312C36.7827 133.864 36.8947 133.357 36.8947 132.792C36.8947 132.227 36.7827 131.725 36.5587 131.288C36.3454 130.84 36.0467 130.488 35.6627 130.232C35.2787 129.976 34.836 129.848 34.3347 129.848C33.8334 129.848 33.3907 129.976 33.0067 130.232C32.6227 130.488 32.3187 130.84 32.0947 131.288C31.8814 131.725 31.7747 132.227 31.7747 132.792C31.7747 133.357 31.8814 133.864 32.0947 134.312C32.3187 134.749 32.6227 135.096 33.0067 135.352C33.3907 135.608 33.8334 135.736 34.3347 135.736ZM43.8673 137.16C43.0033 137.16 42.2353 136.979 41.5633 136.616C40.902 136.243 40.3793 135.736 39.9953 135.096C39.622 134.456 39.4353 133.72 39.4353 132.888C39.4353 132.227 39.542 131.624 39.7553 131.08C39.9686 130.536 40.262 130.067 40.6353 129.672C41.0193 129.267 41.4726 128.957 41.9953 128.744C42.5286 128.52 43.1046 128.408 43.7233 128.408C44.2673 128.408 44.774 128.515 45.2433 128.728C45.7126 128.931 46.118 129.213 46.4593 129.576C46.8113 129.939 47.078 130.371 47.2593 130.872C47.4513 131.363 47.542 131.901 47.5313 132.488L47.5153 133.192H40.6513L40.2833 131.88H46.0913L45.8513 132.152V131.768C45.8193 131.416 45.702 131.101 45.4993 130.824C45.2966 130.547 45.0406 130.328 44.7313 130.168C44.422 130.008 44.086 129.928 43.7233 129.928C43.1473 129.928 42.662 130.04 42.2673 130.264C41.8726 130.477 41.574 130.797 41.3713 131.224C41.1686 131.64 41.0673 132.157 41.0673 132.776C41.0673 133.363 41.19 133.875 41.4353 134.312C41.6806 134.739 42.0273 135.069 42.4753 135.304C42.9233 135.539 43.4406 135.656 44.0273 135.656C44.4433 135.656 44.8273 135.587 45.1793 135.448C45.542 135.309 45.9313 135.059 46.3473 134.696L47.1793 135.864C46.9233 136.12 46.6086 136.344 46.2353 136.536C45.8726 136.728 45.4833 136.883 45.0673 137C44.662 137.107 44.262 137.16 43.8673 137.16ZM48.5223 137V128.6H50.1703V130.328L49.8823 130.52C49.989 130.147 50.197 129.805 50.5063 129.496C50.8156 129.176 51.1836 128.92 51.6103 128.728C52.037 128.525 52.4743 128.424 52.9223 128.424C53.5623 128.424 54.0956 128.552 54.5223 128.808C54.949 129.053 55.269 129.432 55.4823 129.944C55.6956 130.456 55.8023 131.101 55.8023 131.88V137H54.1543V131.992C54.1543 131.512 54.0903 131.117 53.9623 130.808C53.8343 130.488 53.637 130.259 53.3703 130.12C53.1036 129.971 52.773 129.907 52.3783 129.928C52.0583 129.928 51.765 129.981 51.4983 130.088C51.2316 130.184 50.997 130.323 50.7943 130.504C50.6023 130.685 50.4476 130.899 50.3303 131.144C50.2236 131.379 50.1703 131.635 50.1703 131.912V137H49.3543C49.2156 137 49.077 137 48.9383 137C48.7996 137 48.661 137 48.5223 137ZM58.2779 137V126.456H59.9259V137H58.2779ZM56.5339 130.2V128.6H61.8779V130.2H56.5339ZM62.8506 137V128.6H64.4986V137H62.8506ZM63.6506 126.744C63.2986 126.744 63.0266 126.653 62.8346 126.472C62.6426 126.291 62.5466 126.035 62.5466 125.704C62.5466 125.395 62.6426 125.144 62.8346 124.952C63.0372 124.76 63.3092 124.664 63.6506 124.664C64.0026 124.664 64.2746 124.755 64.4666 124.936C64.6586 125.117 64.7546 125.373 64.7546 125.704C64.7546 126.013 64.6532 126.264 64.4506 126.456C64.2586 126.648 63.9919 126.744 63.6506 126.744ZM69.7997 137.16C69.021 137.16 68.3224 136.968 67.7037 136.584C67.0957 136.2 66.6104 135.677 66.2477 135.016C65.8957 134.355 65.7197 133.613 65.7197 132.792C65.7197 131.971 65.8957 131.229 66.2477 130.568C66.6104 129.907 67.0957 129.384 67.7037 129C68.3224 128.616 69.021 128.424 69.7997 128.424C70.5464 128.424 71.2237 128.579 71.8317 128.888C72.4504 129.187 72.9197 129.597 73.2397 130.12L72.3277 131.24C72.157 130.995 71.9384 130.771 71.6717 130.568C71.405 130.365 71.1224 130.205 70.8237 130.088C70.525 129.971 70.237 129.912 69.9597 129.912C69.4477 129.912 68.989 130.04 68.5837 130.296C68.189 130.541 67.8744 130.883 67.6397 131.32C67.405 131.757 67.2877 132.248 67.2877 132.792C67.2877 133.336 67.4104 133.827 67.6557 134.264C67.901 134.691 68.2264 135.032 68.6317 135.288C69.037 135.544 69.485 135.672 69.9757 135.672C70.2637 135.672 70.541 135.624 70.8077 135.528C71.085 135.432 71.3517 135.288 71.6077 135.096C71.8637 134.904 72.1037 134.669 72.3277 134.392L73.2397 135.512C72.8984 135.992 72.4077 136.387 71.7677 136.696C71.1384 137.005 70.4824 137.16 69.7997 137.16ZM77.2262 137.16C76.5329 137.16 75.8982 136.968 75.3222 136.584C74.7569 136.2 74.3035 135.677 73.9622 135.016C73.6209 134.355 73.4502 133.608 73.4502 132.776C73.4502 131.933 73.6209 131.187 73.9622 130.536C74.3142 129.875 74.7835 129.357 75.3702 128.984C75.9675 128.611 76.6342 128.424 77.3702 128.424C77.8075 128.424 78.2075 128.488 78.5702 128.616C78.9329 128.744 79.2475 128.925 79.5142 129.16C79.7915 129.384 80.0155 129.645 80.1862 129.944C80.3675 130.243 80.4795 130.563 80.5222 130.904L80.1542 130.776V128.6H81.8182V137H80.1542V135L80.5382 134.888C80.4742 135.176 80.3409 135.459 80.1382 135.736C79.9462 136.003 79.6955 136.243 79.3862 136.456C79.0875 136.669 78.7515 136.84 78.3782 136.968C78.0155 137.096 77.6315 137.16 77.2262 137.16ZM77.6582 135.64C78.1595 135.64 78.6022 135.517 78.9862 135.272C79.3702 135.027 79.6689 134.691 79.8822 134.264C80.1062 133.827 80.2182 133.331 80.2182 132.776C80.2182 132.232 80.1062 131.747 79.8822 131.32C79.6689 130.893 79.3702 130.557 78.9862 130.312C78.6022 130.067 78.1595 129.944 77.6582 129.944C77.1675 129.944 76.7302 130.067 76.3462 130.312C75.9729 130.557 75.6742 130.893 75.4502 131.32C75.2369 131.747 75.1302 132.232 75.1302 132.776C75.1302 133.331 75.2369 133.827 75.4502 134.264C75.6742 134.691 75.9729 135.027 76.3462 135.272C76.7302 135.517 77.1675 135.64 77.6582 135.64ZM83.3512 137V125.16H84.9992V137H83.3512ZM94.5232 137.16C93.7552 137.16 93.0672 136.973 92.4592 136.6C91.8619 136.216 91.3872 135.699 91.0352 135.048C90.6832 134.387 90.5072 133.635 90.5072 132.792C90.5072 131.949 90.6779 131.203 91.0192 130.552C91.3712 129.891 91.8459 129.373 92.4432 129C93.0405 128.616 93.7179 128.424 94.4752 128.424C94.8912 128.424 95.2912 128.493 95.6752 128.632C96.0699 128.76 96.4219 128.941 96.7312 129.176C97.0405 129.4 97.2805 129.651 97.4512 129.928C97.6325 130.195 97.7232 130.467 97.7232 130.744L97.2432 130.776V125.16H98.8912V137H97.2432V135H97.5632C97.5632 135.256 97.4779 135.512 97.3072 135.768C97.1365 136.013 96.9072 136.243 96.6192 136.456C96.3419 136.669 96.0165 136.84 95.6432 136.968C95.2805 137.096 94.9072 137.16 94.5232 137.16ZM94.7472 135.736C95.2485 135.736 95.6912 135.608 96.0752 135.352C96.4592 135.096 96.7579 134.749 96.9712 134.312C97.1952 133.864 97.3072 133.357 97.3072 132.792C97.3072 132.227 97.1952 131.725 96.9712 131.288C96.7579 130.84 96.4592 130.488 96.0752 130.232C95.6912 129.976 95.2485 129.848 94.7472 129.848C94.2459 129.848 93.8032 129.976 93.4192 130.232C93.0352 130.488 92.7312 130.84 92.5072 131.288C92.2939 131.725 92.1872 132.227 92.1872 132.792C92.1872 133.357 92.2939 133.864 92.5072 134.312C92.7312 134.749 93.0352 135.096 93.4192 135.352C93.8032 135.608 94.2459 135.736 94.7472 135.736ZM105.08 137.16C104.216 137.16 103.448 136.979 102.776 136.616C102.114 136.243 101.592 135.736 101.208 135.096C100.834 134.456 100.648 133.72 100.648 132.888C100.648 132.227 100.754 131.624 100.968 131.08C101.181 130.536 101.474 130.067 101.848 129.672C102.232 129.267 102.685 128.957 103.208 128.744C103.741 128.52 104.317 128.408 104.936 128.408C105.48 128.408 105.986 128.515 106.456 128.728C106.925 128.931 107.33 129.213 107.672 129.576C108.024 129.939 108.29 130.371 108.472 130.872C108.664 131.363 108.754 131.901 108.744 132.488L108.728 133.192H101.864L101.496 131.88H107.304L107.064 132.152V131.768C107.032 131.416 106.914 131.101 106.712 130.824C106.509 130.547 106.253 130.328 105.944 130.168C105.634 130.008 105.298 129.928 104.936 129.928C104.36 129.928 103.874 130.04 103.48 130.264C103.085 130.477 102.786 130.797 102.584 131.224C102.381 131.64 102.28 132.157 102.28 132.776C102.28 133.363 102.402 133.875 102.648 134.312C102.893 134.739 103.24 135.069 103.688 135.304C104.136 135.539 104.653 135.656 105.24 135.656C105.656 135.656 106.04 135.587 106.392 135.448C106.754 135.309 107.144 135.059 107.56 134.696L108.392 135.864C108.136 136.12 107.821 136.344 107.448 136.536C107.085 136.728 106.696 136.883 106.28 137C105.874 137.107 105.474 137.16 105.08 137.16ZM113.303 137.16C112.524 137.16 111.825 136.968 111.207 136.584C110.599 136.2 110.113 135.677 109.751 135.016C109.399 134.355 109.223 133.613 109.223 132.792C109.223 131.971 109.399 131.229 109.751 130.568C110.113 129.907 110.599 129.384 111.207 129C111.825 128.616 112.524 128.424 113.303 128.424C114.049 128.424 114.727 128.579 115.335 128.888C115.953 129.187 116.423 129.597 116.743 130.12L115.831 131.24C115.66 130.995 115.441 130.771 115.175 130.568C114.908 130.365 114.625 130.205 114.327 130.088C114.028 129.971 113.74 129.912 113.463 129.912C112.951 129.912 112.492 130.04 112.087 130.296C111.692 130.541 111.377 130.883 111.143 131.32C110.908 131.757 110.791 132.248 110.791 132.792C110.791 133.336 110.913 133.827 111.159 134.264C111.404 134.691 111.729 135.032 112.135 135.288C112.54 135.544 112.988 135.672 113.479 135.672C113.767 135.672 114.044 135.624 114.311 135.528C114.588 135.432 114.855 135.288 115.111 135.096C115.367 134.904 115.607 134.669 115.831 134.392L116.743 135.512C116.401 135.992 115.911 136.387 115.271 136.696C114.641 137.005 113.985 137.16 113.303 137.16ZM121.273 137.16C120.452 137.16 119.716 136.973 119.065 136.6C118.425 136.216 117.919 135.699 117.545 135.048C117.172 134.387 116.985 133.635 116.985 132.792C116.985 131.949 117.172 131.203 117.545 130.552C117.919 129.891 118.425 129.373 119.065 129C119.716 128.616 120.452 128.424 121.273 128.424C122.084 128.424 122.809 128.616 123.449 129C124.1 129.373 124.612 129.891 124.985 130.552C125.359 131.203 125.545 131.949 125.545 132.792C125.545 133.635 125.359 134.387 124.985 135.048C124.612 135.699 124.1 136.216 123.449 136.6C122.809 136.973 122.084 137.16 121.273 137.16ZM121.273 135.656C121.775 135.656 122.223 135.533 122.617 135.288C123.012 135.032 123.321 134.691 123.545 134.264C123.769 133.827 123.876 133.336 123.865 132.792C123.876 132.237 123.769 131.747 123.545 131.32C123.321 130.883 123.012 130.541 122.617 130.296C122.223 130.051 121.775 129.928 121.273 129.928C120.772 129.928 120.319 130.056 119.913 130.312C119.519 130.557 119.209 130.899 118.985 131.336C118.761 131.763 118.655 132.248 118.665 132.792C118.655 133.336 118.761 133.827 118.985 134.264C119.209 134.691 119.519 135.032 119.913 135.288C120.319 135.533 120.772 135.656 121.273 135.656ZM126.541 137V128.6H128.205V131.24L128.045 130.6C128.162 130.195 128.36 129.827 128.637 129.496C128.925 129.165 129.25 128.904 129.613 128.712C129.986 128.52 130.37 128.424 130.765 128.424C130.946 128.424 131.117 128.44 131.277 128.472C131.448 128.504 131.581 128.541 131.677 128.584L131.245 130.376C131.117 130.323 130.973 130.28 130.813 130.248C130.664 130.205 130.514 130.184 130.365 130.184C130.077 130.184 129.8 130.243 129.533 130.36C129.277 130.467 129.048 130.621 128.845 130.824C128.653 131.016 128.498 131.245 128.381 131.512C128.264 131.768 128.205 132.051 128.205 132.36V137H126.541ZM135.067 137.16C134.373 137.16 133.739 136.968 133.163 136.584C132.597 136.2 132.144 135.677 131.803 135.016C131.461 134.355 131.291 133.608 131.291 132.776C131.291 131.933 131.461 131.187 131.803 130.536C132.155 129.875 132.624 129.357 133.211 128.984C133.808 128.611 134.475 128.424 135.211 128.424C135.648 128.424 136.048 128.488 136.411 128.616C136.773 128.744 137.088 128.925 137.355 129.16C137.632 129.384 137.856 129.645 138.027 129.944C138.208 130.243 138.32 130.563 138.363 130.904L137.995 130.776V128.6H139.659V137H137.995V135L138.379 134.888C138.315 135.176 138.181 135.459 137.979 135.736C137.787 136.003 137.536 136.243 137.227 136.456C136.928 136.669 136.592 136.84 136.219 136.968C135.856 137.096 135.472 137.16 135.067 137.16ZM135.499 135.64C136 135.64 136.443 135.517 136.827 135.272C137.211 135.027 137.509 134.691 137.723 134.264C137.947 133.827 138.059 133.331 138.059 132.776C138.059 132.232 137.947 131.747 137.723 131.32C137.509 130.893 137.211 130.557 136.827 130.312C136.443 130.067 136 129.944 135.499 129.944C135.008 129.944 134.571 130.067 134.187 130.312C133.813 130.557 133.515 130.893 133.291 131.32C133.077 131.747 132.971 132.232 132.971 132.776C132.971 133.331 133.077 133.827 133.291 134.264C133.515 134.691 133.813 135.027 134.187 135.272C134.571 135.517 135.008 135.64 135.499 135.64ZM142.2 137V126.456H143.848V137H142.2ZM140.456 130.2V128.6H145.8V130.2H140.456ZM146.772 137V128.6H148.42V137H146.772ZM147.572 126.744C147.22 126.744 146.948 126.653 146.756 126.472C146.564 126.291 146.468 126.035 146.468 125.704C146.468 125.395 146.564 125.144 146.756 124.952C146.959 124.76 147.231 124.664 147.572 124.664C147.924 124.664 148.196 124.755 148.388 124.936C148.58 125.117 148.676 125.373 148.676 125.704C148.676 126.013 148.575 126.264 148.372 126.456C148.18 126.648 147.914 126.744 147.572 126.744ZM153.93 137.16C153.108 137.16 152.372 136.973 151.722 136.6C151.082 136.216 150.575 135.699 150.202 135.048C149.828 134.387 149.642 133.635 149.642 132.792C149.642 131.949 149.828 131.203 150.202 130.552C150.575 129.891 151.082 129.373 151.722 129C152.372 128.616 153.108 128.424 153.93 128.424C154.74 128.424 155.466 128.616 156.106 129C156.756 129.373 157.268 129.891 157.642 130.552C158.015 131.203 158.202 131.949 158.202 132.792C158.202 133.635 158.015 134.387 157.642 135.048C157.268 135.699 156.756 136.216 156.106 136.6C155.466 136.973 154.74 137.16 153.93 137.16ZM153.93 135.656C154.431 135.656 154.879 135.533 155.274 135.288C155.668 135.032 155.978 134.691 156.202 134.264C156.426 133.827 156.532 133.336 156.522 132.792C156.532 132.237 156.426 131.747 156.202 131.32C155.978 130.883 155.668 130.541 155.274 130.296C154.879 130.051 154.431 129.928 153.93 129.928C153.428 129.928 152.975 130.056 152.57 130.312C152.175 130.557 151.866 130.899 151.642 131.336C151.418 131.763 151.311 132.248 151.322 132.792C151.311 133.336 151.418 133.827 151.642 134.264C151.866 134.691 152.175 135.032 152.57 135.288C152.975 135.533 153.428 135.656 153.93 135.656ZM159.197 137V128.6H160.845V130.328L160.557 130.52C160.664 130.147 160.872 129.805 161.181 129.496C161.491 129.176 161.859 128.92 162.285 128.728C162.712 128.525 163.149 128.424 163.597 128.424C164.237 128.424 164.771 128.552 165.197 128.808C165.624 129.053 165.944 129.432 166.157 129.944C166.371 130.456 166.477 131.101 166.477 131.88V137H164.829V131.992C164.829 131.512 164.765 131.117 164.637 130.808C164.509 130.488 164.312 130.259 164.045 130.12C163.779 129.971 163.448 129.907 163.053 129.928C162.733 129.928 162.44 129.981 162.173 130.088C161.907 130.184 161.672 130.323 161.469 130.504C161.277 130.685 161.123 130.899 161.005 131.144C160.899 131.379 160.845 131.635 160.845 131.912V137H160.029C159.891 137 159.752 137 159.613 137C159.475 137 159.336 137 159.197 137Z" fill="#444444"/>
<rect x="1" y="1" width="195" height="178" rx="9" stroke="url(#paint6_linear_1_130)" stroke-width="2"/>
<defs>
<filter id="filter0_f_1_130" x="-74.2851" y="98.7149" width="212.57" height="182.57" filterUnits="userSpaceOnUse" color-interpolation-filters="sRGB">
<feFlood flood-opacity="0" result="BackgroundImageFix"/>
<feBlend mode="normal" in="SourceGraphic" in2="BackgroundImageFix" result="shape"/>
<feGaussianBlur stdDeviation="17.6425" result="effect1_foregroundBlur_1_130"/>
</filter>
<filter id="filter1_f_1_130" x="94.5367" y="-65.0067" width="167.258" height="258.423" filterUnits="userSpaceOnUse" color-interpolation-filters="sRGB">
<feFlood flood-opacity="0" result="BackgroundImageFix"/>
<feBlend mode="normal" in="SourceGraphic" in2="BackgroundImageFix" result="shape"/>
<feGaussianBlur stdDeviation="17.6425" result="effect1_foregroundBlur_1_130"/>
</filter>
<linearGradient id="paint0_linear_1_130" x1="57.8896" y1="121.883" x2="57.8896" y2="214.856" gradientUnits="userSpaceOnUse">
<stop stop-color="#FCA9C7"/>
<stop offset="1" stop-color="#DFA1ED"/>
</linearGradient>
<linearGradient id="paint1_linear_1_130" x1="215.448" y1="48.7958" x2="127.834" y2="79.9845" gradientUnits="userSpaceOnUse">
<stop stop-color="#8279E3"/>
<stop offset="1" stop-color="#7061A3" stop-opacity="0.14"/>
</linearGradient>
<linearGradient id="paint2_linear_1_130" x1="73.5406" y1="52.6682" x2="101.463" y2="79.691" gradientUnits="userSpaceOnUse">
<stop stop-color="#FCA9C7"/>
<stop offset="1" stop-color="#8279E3"/>
</linearGradient>
<linearGradient id="paint3_linear_1_130" x1="104.204" y1="27.6446" x2="126.515" y2="49.2256" gradientUnits="userSpaceOnUse">
<stop stop-color="#FCA9C7"/>
<stop offset="1" stop-color="#8279E3"/>
</linearGradient>
<linearGradient id="paint4_linear_1_130" x1="70.0407" y1="26.2675" x2="83.9285" y2="39.7076" gradientUnits="userSpaceOnUse">
<stop stop-color="#FCA9C7"/>
<stop offset="1" stop-color="#8279E3"/>
</linearGradient>
<linearGradient id="paint5_linear_1_130" x1="114.111" y1="70.418" x2="127.998" y2="83.8507" gradientUnits="userSpaceOnUse">
<stop stop-color="#FCA9C7"/>
<stop offset="1" stop-color="#8279E3"/>
</linearGradient>
<linearGradient id="paint6_linear_1_130" x1="-4.27689e-06" y1="5.49899" x2="222.093" y2="137.913" gradientUnits="userSpaceOnUse">
<stop stop-color="#7598EC"/>
<stop offset="0.34375" stop-color="#8279E3"/>
<stop offset="0.682292" stop-color="#DFA1ED"/>
<stop offset="1" stop-color="#FFCDEA"/>
</linearGradient>
<clipPath id="clip0_1_130">
<rect width="197" height="180" rx="10" fill="white"/>
</clipPath>
</defs>
</svg>
