<svg width="197" height="293" viewBox="0 0 197 293" fill="none" xmlns="http://www.w3.org/2000/svg">
<circle r="12.3488" transform="matrix(1 0 0 -1 98.3488 280.253)" fill="#7598EC" fill-opacity="0.27"/>
<circle r="6.17442" transform="matrix(1 0 0 -1 98.3487 279.481)" fill="#8279E3"/>
<line y1="-0.5" x2="164.394" y2="-0.5" transform="matrix(0 1 1 0 98.3491 112)" stroke="#8279E3" stroke-dasharray="2 2"/>
<rect x="1" y="1" width="195" height="178" rx="9" fill="#F1F1F1"/>
<g opacity="0.2">
<g clip-path="url(#clip0_1_128)">
<g filter="url(#filter0_f_1_128)">
<path d="M101.695 234.589C101.695 260.263 76.1216 234.589 11.7146 234.589C-52.6925 234.589 -37.4194 168.47 -37.4194 142.797C-37.4194 117.123 -13.0301 155.817 51.377 155.817C115.784 155.817 101.695 208.916 101.695 234.589Z" fill="url(#paint0_linear_1_128)"/>
</g>
<g filter="url(#filter1_f_1_128)">
<path d="M204.674 157.186C180.48 165.798 182.419 114.051 164.176 62.8016C145.932 11.552 114.413 -19.7931 138.607 -28.4056C162.801 -37.0182 197.204 -2.45392 215.448 48.7958C233.692 100.045 228.868 148.573 204.674 157.186Z" fill="url(#paint1_linear_1_128)"/>
</g>
</g>
</g>
<path d="M66.5933 85.3261C66.9685 84.6919 67.5076 84.1881 68.0254 83.6705C72.6785 79.0101 77.3308 74.3489 81.9822 69.6869C83.0816 68.5865 84.6602 68.757 85.3169 70.0403C85.7046 70.7922 85.6208 71.5241 85.1205 72.1996C84.9626 72.3925 84.7913 72.5738 84.6076 72.7423C79.897 77.4636 75.1856 82.1842 70.4733 86.9039C68.9198 88.4604 67.8266 88.3664 66.5958 86.5755L66.5933 85.3261Z" fill="url(#paint2_linear_1_128)"/>
<path d="M66.5933 69.3384C66.9135 68.8784 67.1887 68.3859 67.7528 68.1503C68.7847 67.7205 69.973 68.1503 70.4233 69.1416C70.6334 69.6306 70.6447 70.1824 70.4547 70.6796C70.2648 71.1768 69.8886 71.58 69.4064 71.8035C68.9193 72.0205 68.3662 72.035 67.8685 71.8438C67.3709 71.6525 66.9693 71.2711 66.7521 70.7834C66.7021 70.6756 66.7233 70.5327 66.5933 70.4625V69.3384Z" fill="url(#paint3_linear_1_128)"/>
<path d="M96.3253 71.9539C97.3598 71.9627 97.9839 72.3725 98.3267 73.1295C98.6806 73.9115 98.5768 74.696 97.9689 75.3201C95.9609 77.3646 93.9371 79.3948 91.8974 81.4109C91.5579 81.7536 91.0973 81.9486 90.6153 81.9535C89.731 81.9798 89.1018 81.5775 88.7091 80.8118C88.5261 80.4461 88.4639 80.0317 88.5314 79.6282C88.5988 79.2248 88.7924 78.8533 89.0843 78.5673C89.9799 77.6411 90.9005 76.74 91.8099 75.8277C92.8806 74.7532 93.9517 73.6792 95.0232 72.6056C95.4285 72.192 95.9026 71.9326 96.3253 71.9539Z" fill="url(#paint4_linear_1_128)"/>
<path d="M82.5464 57.9942C82.5562 58.2543 82.51 58.5136 82.4109 58.7542C82.3118 58.9949 82.1622 59.2114 81.9723 59.389C79.9797 61.3942 77.9922 63.3994 75.9821 65.3858C75.6025 65.7248 75.1084 65.9064 74.6 65.8936C74.0917 65.8808 73.6073 65.6747 73.2452 65.317C72.8831 64.9593 72.6704 64.4769 72.6505 63.9678C72.6305 63.4587 72.8047 62.9611 73.1377 62.576C75.1299 60.5441 77.1387 58.5285 79.1642 56.5291C79.7896 55.9113 80.5488 55.8123 81.3469 56.1269C82.0999 56.4239 82.5502 57.162 82.5464 57.9942Z" fill="url(#paint5_linear_1_128)"/>
<path d="M90.5225 65.9961C90.5218 66.2603 90.4681 66.5218 90.3644 66.7648C90.2608 67.0078 90.1094 67.2274 89.9193 67.4105C89.7291 67.5936 89.5041 67.7366 89.2577 67.8307C89.0113 67.9249 88.7484 67.9684 88.4849 67.9586C87.3691 67.9449 86.5211 67.0551 86.5348 65.9109C86.5461 65.3811 86.767 64.8774 87.1489 64.5108C87.5308 64.1442 88.0424 63.9445 88.5712 63.9558C89.1 63.9671 89.6026 64.1884 89.9686 64.5711C90.3345 64.9537 90.5337 65.4663 90.5225 65.9961Z" fill="url(#paint6_linear_1_128)"/>
<path d="M82.5465 85.9325C82.55 85.5378 82.6701 85.153 82.8917 84.8266C83.1132 84.5002 83.4263 84.2469 83.7915 84.0986C84.1566 83.9504 84.5573 83.9138 84.9432 83.9936C85.329 84.0734 85.6826 84.2659 85.9593 84.5468C86.2361 84.8278 86.4236 85.1845 86.4981 85.5721C86.5726 85.9597 86.5309 86.3608 86.3781 86.7246C86.2254 87.0885 85.9685 87.3988 85.6398 87.6165C85.3112 87.8342 84.9256 87.9495 84.5316 87.9477C84.2678 87.951 84.006 87.901 83.762 87.8005C83.5179 87.7001 83.2966 87.5513 83.1113 87.3632C82.9259 87.175 82.7804 86.9513 82.6833 86.7055C82.5863 86.4597 82.5398 86.1968 82.5465 85.9325Z" fill="url(#paint7_linear_1_128)"/>
<path d="M128.909 24H127.908C125.881 24.6905 123.856 25.3911 121.823 26.0704C107.928 30.714 94.0307 35.3548 80.1307 39.9926C78.4196 40.5641 78.0043 42.2685 79.2876 43.5568C89.8171 54.1116 100.347 64.6643 110.877 75.2149C112.164 76.5032 113.863 76.1022 114.437 74.379C119.676 58.6316 124.912 42.8826 130.147 27.1319C130.695 25.4876 130.414 24.792 128.909 24ZM96.1375 54.7758C92.2749 50.8757 88.4007 46.9874 84.5148 43.1107C84.4573 43.053 84.4047 42.9853 84.2859 42.86L120.66 30.7199C120.651 31.0395 120.461 31.1272 120.336 31.2525C112.524 39.0844 104.713 46.9155 96.9018 54.7457C96.6178 55.029 96.4715 55.1129 96.1375 54.7758ZM111.581 70.2183C111.406 70.0503 111.285 69.9388 111.169 69.8222C107.365 66.0107 103.56 62.2004 99.7524 58.3914C99.4572 58.0969 99.3496 57.9453 99.7161 57.5806C107.541 49.7629 115.357 41.9355 123.164 34.0986C123.289 33.9733 123.385 33.7928 123.714 33.7364C119.663 45.9217 115.63 58.0455 111.581 70.2183Z" fill="url(#paint8_linear_1_128)"/>
<path d="M71.8236 122.216V113.128L72.4156 113.576L70.2076 114.744L69.7436 113.24L72.7356 111.64H73.5676V122.216H71.8236ZM70.0476 123V121.336H75.3916V123H70.0476ZM78.1756 123.16C77.8236 123.16 77.5516 123.059 77.3596 122.856C77.1676 122.643 77.0716 122.344 77.0716 121.96C77.0716 121.608 77.1729 121.32 77.3756 121.096C77.5782 120.872 77.8449 120.76 78.1756 120.76C78.5276 120.76 78.7996 120.867 78.9916 121.08C79.1836 121.283 79.2796 121.576 79.2796 121.96C79.2796 122.312 79.1782 122.6 78.9756 122.824C78.7729 123.048 78.5062 123.16 78.1756 123.16ZM78.1756 116.84C77.8236 116.84 77.5516 116.739 77.3596 116.536C77.1676 116.323 77.0716 116.024 77.0716 115.64C77.0716 115.288 77.1729 115 77.3756 114.776C77.5782 114.552 77.8449 114.44 78.1756 114.44C78.5276 114.44 78.7996 114.547 78.9916 114.76C79.1836 114.963 79.2796 115.256 79.2796 115.64C79.2796 115.992 79.1782 116.28 78.9756 116.504C78.7729 116.728 78.5062 116.84 78.1756 116.84ZM83.4642 122.216V113.128L84.0562 113.576L81.8482 114.744L81.3842 113.24L84.3762 111.64H85.2082V122.216H83.4642ZM81.6882 123V121.336H87.0322V123H81.6882ZM97.1326 123.16C96.3646 123.16 95.6766 122.973 95.0686 122.6C94.4712 122.216 93.9966 121.699 93.6446 121.048C93.2926 120.387 93.1166 119.635 93.1166 118.792C93.1166 117.949 93.2872 117.203 93.6286 116.552C93.9806 115.891 94.4552 115.373 95.0526 115C95.6499 114.616 96.3272 114.424 97.0846 114.424C97.5006 114.424 97.9006 114.493 98.2846 114.632C98.6792 114.76 99.0312 114.941 99.3406 115.176C99.6499 115.4 99.8899 115.651 100.061 115.928C100.242 116.195 100.333 116.467 100.333 116.744L99.8526 116.776V111.16H101.501V123H99.8526V121H100.173C100.173 121.256 100.087 121.512 99.9166 121.768C99.7459 122.013 99.5166 122.243 99.2286 122.456C98.9512 122.669 98.6259 122.84 98.2526 122.968C97.8899 123.096 97.5166 123.16 97.1326 123.16ZM97.3566 121.736C97.8579 121.736 98.3006 121.608 98.6846 121.352C99.0686 121.096 99.3672 120.749 99.5806 120.312C99.8046 119.864 99.9166 119.357 99.9166 118.792C99.9166 118.227 99.8046 117.725 99.5806 117.288C99.3672 116.84 99.0686 116.488 98.6846 116.232C98.3006 115.976 97.8579 115.848 97.3566 115.848C96.8552 115.848 96.4126 115.976 96.0286 116.232C95.6446 116.488 95.3406 116.84 95.1166 117.288C94.9032 117.725 94.7966 118.227 94.7966 118.792C94.7966 119.357 94.9032 119.864 95.1166 120.312C95.3406 120.749 95.6446 121.096 96.0286 121.352C96.4126 121.608 96.8552 121.736 97.3566 121.736ZM103.769 123V114.6H105.433V117.24L105.273 116.6C105.391 116.195 105.588 115.827 105.865 115.496C106.153 115.165 106.479 114.904 106.841 114.712C107.215 114.52 107.599 114.424 107.993 114.424C108.175 114.424 108.345 114.44 108.505 114.472C108.676 114.504 108.809 114.541 108.905 114.584L108.473 116.376C108.345 116.323 108.201 116.28 108.041 116.248C107.892 116.205 107.743 116.184 107.593 116.184C107.305 116.184 107.028 116.243 106.761 116.36C106.505 116.467 106.276 116.621 106.073 116.824C105.881 117.016 105.727 117.245 105.609 117.512C105.492 117.768 105.433 118.051 105.433 118.36V123H103.769ZM113.639 123.16C112.818 123.16 112.082 122.973 111.431 122.6C110.791 122.216 110.284 121.699 109.911 121.048C109.538 120.387 109.351 119.635 109.351 118.792C109.351 117.949 109.538 117.203 109.911 116.552C110.284 115.891 110.791 115.373 111.431 115C112.082 114.616 112.818 114.424 113.639 114.424C114.45 114.424 115.175 114.616 115.815 115C116.466 115.373 116.978 115.891 117.351 116.552C117.724 117.203 117.911 117.949 117.911 118.792C117.911 119.635 117.724 120.387 117.351 121.048C116.978 121.699 116.466 122.216 115.815 122.6C115.175 122.973 114.45 123.16 113.639 123.16ZM113.639 121.656C114.14 121.656 114.588 121.533 114.983 121.288C115.378 121.032 115.687 120.691 115.911 120.264C116.135 119.827 116.242 119.336 116.231 118.792C116.242 118.237 116.135 117.747 115.911 117.32C115.687 116.883 115.378 116.541 114.983 116.296C114.588 116.051 114.14 115.928 113.639 115.928C113.138 115.928 112.684 116.056 112.279 116.312C111.884 116.557 111.575 116.899 111.351 117.336C111.127 117.763 111.02 118.248 111.031 118.792C111.02 119.336 111.127 119.827 111.351 120.264C111.575 120.691 111.884 121.032 112.279 121.288C112.684 121.533 113.138 121.656 113.639 121.656ZM119.707 126.52V114.6H121.371V116.52L121.115 116.376C121.179 116.056 121.36 115.752 121.659 115.464C121.957 115.165 122.32 114.925 122.747 114.744C123.184 114.552 123.632 114.456 124.091 114.456C124.848 114.456 125.52 114.643 126.107 115.016C126.693 115.389 127.157 115.901 127.499 116.552C127.84 117.203 128.011 117.949 128.011 118.792C128.011 119.624 127.84 120.371 127.499 121.032C127.168 121.683 126.709 122.2 126.123 122.584C125.536 122.957 124.875 123.144 124.139 123.144C123.648 123.144 123.173 123.048 122.715 122.856C122.256 122.653 121.867 122.397 121.547 122.088C121.227 121.779 121.029 121.459 120.955 121.128L121.371 120.904V126.52H119.707ZM123.867 121.624C124.357 121.624 124.795 121.501 125.179 121.256C125.563 121.011 125.867 120.675 126.091 120.248C126.315 119.821 126.427 119.336 126.427 118.792C126.427 118.248 126.315 117.768 126.091 117.352C125.877 116.925 125.579 116.589 125.195 116.344C124.811 116.099 124.368 115.976 123.867 115.976C123.365 115.976 122.923 116.099 122.539 116.344C122.155 116.579 121.851 116.909 121.627 117.336C121.403 117.763 121.291 118.248 121.291 118.792C121.291 119.336 121.403 119.821 121.627 120.248C121.851 120.675 122.155 121.011 122.539 121.256C122.923 121.501 123.365 121.624 123.867 121.624ZM57.3883 149V137.8H59.0843L63.1643 144.44L62.3483 144.424L66.4763 137.8H68.0763V149H66.3483V144.408C66.3483 143.448 66.3696 142.584 66.4123 141.816C66.4656 141.048 66.551 140.285 66.6683 139.528L66.8923 140.12L63.2283 145.784H62.1723L58.6203 140.184L58.7963 139.528C58.9136 140.243 58.9936 140.979 59.0363 141.736C59.0896 142.483 59.1163 143.373 59.1163 144.408V149H57.3883ZM74.0324 149.16C73.3391 149.16 72.7044 148.968 72.1284 148.584C71.5631 148.2 71.1098 147.677 70.7684 147.016C70.4271 146.355 70.2564 145.608 70.2564 144.776C70.2564 143.933 70.4271 143.187 70.7684 142.536C71.1204 141.875 71.5898 141.357 72.1764 140.984C72.7738 140.611 73.4404 140.424 74.1764 140.424C74.6138 140.424 75.0138 140.488 75.3764 140.616C75.7391 140.744 76.0538 140.925 76.3204 141.16C76.5978 141.384 76.8218 141.645 76.9924 141.944C77.1738 142.243 77.2858 142.563 77.3284 142.904L76.9604 142.776V140.6H78.6244V149H76.9604V147L77.3444 146.888C77.2804 147.176 77.1471 147.459 76.9444 147.736C76.7524 148.003 76.5018 148.243 76.1924 148.456C75.8938 148.669 75.5578 148.84 75.1844 148.968C74.8218 149.096 74.4378 149.16 74.0324 149.16ZM74.4644 147.64C74.9658 147.64 75.4084 147.517 75.7924 147.272C76.1764 147.027 76.4751 146.691 76.6884 146.264C76.9124 145.827 77.0244 145.331 77.0244 144.776C77.0244 144.232 76.9124 143.747 76.6884 143.32C76.4751 142.893 76.1764 142.557 75.7924 142.312C75.4084 142.067 74.9658 141.944 74.4644 141.944C73.9738 141.944 73.5364 142.067 73.1524 142.312C72.7791 142.557 72.4804 142.893 72.2564 143.32C72.0431 143.747 71.9364 144.232 71.9364 144.776C71.9364 145.331 72.0431 145.827 72.2564 146.264C72.4804 146.691 72.7791 147.027 73.1524 147.272C73.5364 147.517 73.9738 147.64 74.4644 147.64ZM80.9254 149V140.6H82.5894V143.24L82.4294 142.6C82.5468 142.195 82.7441 141.827 83.0214 141.496C83.3094 141.165 83.6348 140.904 83.9974 140.712C84.3708 140.52 84.7548 140.424 85.1494 140.424C85.3308 140.424 85.5014 140.44 85.6614 140.472C85.8321 140.504 85.9654 140.541 86.0614 140.584L85.6294 142.376C85.5014 142.323 85.3574 142.28 85.1974 142.248C85.0481 142.205 84.8988 142.184 84.7494 142.184C84.4614 142.184 84.1841 142.243 83.9174 142.36C83.6614 142.467 83.4321 142.621 83.2294 142.824C83.0374 143.016 82.8828 143.245 82.7654 143.512C82.6481 143.768 82.5894 144.051 82.5894 144.36V149H80.9254ZM90.5872 149.16C89.8085 149.16 89.1099 148.968 88.4912 148.584C87.8832 148.2 87.3979 147.677 87.0352 147.016C86.6832 146.355 86.5072 145.613 86.5072 144.792C86.5072 143.971 86.6832 143.229 87.0352 142.568C87.3979 141.907 87.8832 141.384 88.4912 141C89.1099 140.616 89.8085 140.424 90.5872 140.424C91.3339 140.424 92.0112 140.579 92.6192 140.888C93.2379 141.187 93.7072 141.597 94.0272 142.12L93.1152 143.24C92.9445 142.995 92.7259 142.771 92.4592 142.568C92.1925 142.365 91.9099 142.205 91.6112 142.088C91.3125 141.971 91.0245 141.912 90.7472 141.912C90.2352 141.912 89.7765 142.04 89.3712 142.296C88.9765 142.541 88.6619 142.883 88.4272 143.32C88.1925 143.757 88.0752 144.248 88.0752 144.792C88.0752 145.336 88.1979 145.827 88.4432 146.264C88.6885 146.691 89.0139 147.032 89.4192 147.288C89.8245 147.544 90.2725 147.672 90.7632 147.672C91.0512 147.672 91.3285 147.624 91.5952 147.528C91.8725 147.432 92.1392 147.288 92.3952 147.096C92.6512 146.904 92.8912 146.669 93.1152 146.392L94.0272 147.512C93.6859 147.992 93.1952 148.387 92.5552 148.696C91.9259 149.005 91.2699 149.16 90.5872 149.16ZM95.5817 149V137.16H97.2297V142.328L96.9417 142.52C97.0484 142.147 97.2564 141.805 97.5657 141.496C97.875 141.176 98.243 140.92 98.6697 140.728C99.0964 140.525 99.5337 140.424 99.9817 140.424C100.622 140.424 101.155 140.552 101.582 140.808C102.008 141.053 102.328 141.432 102.542 141.944C102.755 142.456 102.862 143.101 102.862 143.88V149H101.214V143.992C101.214 143.512 101.15 143.117 101.022 142.808C100.894 142.488 100.696 142.259 100.43 142.12C100.163 141.971 99.8324 141.907 99.4377 141.928C99.1177 141.928 98.8244 141.981 98.5577 142.088C98.291 142.184 98.0564 142.323 97.8537 142.504C97.6617 142.685 97.507 142.899 97.3897 143.144C97.283 143.379 97.2297 143.635 97.2297 143.912V149H96.4137C96.275 149 96.1364 149 95.9977 149C95.859 149 95.7204 149 95.5817 149ZM111.902 148.216V139.128L112.494 139.576L110.286 140.744L109.822 139.24L112.814 137.64H113.646V148.216H111.902ZM110.126 149V147.336H115.47V149H110.126ZM120.542 149.112C119.806 149.112 119.139 148.947 118.542 148.616C117.944 148.275 117.448 147.789 117.054 147.16L118.014 146.088C118.515 146.643 118.952 147.021 119.326 147.224C119.699 147.427 120.104 147.528 120.542 147.528C120.979 147.528 121.374 147.432 121.726 147.24C122.078 147.048 122.355 146.787 122.558 146.456C122.771 146.125 122.878 145.757 122.878 145.352C122.878 144.925 122.776 144.547 122.574 144.216C122.382 143.875 122.12 143.608 121.79 143.416C121.459 143.213 121.086 143.112 120.67 143.112C120.467 143.112 120.275 143.128 120.094 143.16C119.912 143.181 119.694 143.24 119.438 143.336C119.182 143.432 118.846 143.581 118.43 143.784L117.518 142.552L118.174 137.8H124.222V139.4H119.262L119.598 139.096L119.07 142.648L118.67 142.184C118.776 142.077 118.958 141.976 119.214 141.88C119.47 141.773 119.752 141.688 120.062 141.624C120.382 141.549 120.686 141.512 120.974 141.512C121.656 141.512 122.264 141.672 122.798 141.992C123.342 142.301 123.768 142.733 124.078 143.288C124.398 143.843 124.558 144.477 124.558 145.192C124.558 145.928 124.382 146.595 124.03 147.192C123.678 147.779 123.198 148.248 122.59 148.6C121.982 148.941 121.299 149.112 120.542 149.112ZM127.715 149V138.456H129.363V149H127.715ZM125.971 142.2V140.6H131.315V142.2H125.971ZM132.816 149V137.16H134.464V142.328L134.176 142.52C134.283 142.147 134.491 141.805 134.8 141.496C135.109 141.176 135.477 140.92 135.904 140.728C136.331 140.525 136.768 140.424 137.216 140.424C137.856 140.424 138.389 140.552 138.816 140.808C139.243 141.053 139.563 141.432 139.776 141.944C139.989 142.456 140.096 143.101 140.096 143.88V149H138.448V143.992C138.448 143.512 138.384 143.117 138.256 142.808C138.128 142.488 137.931 142.259 137.664 142.12C137.397 141.971 137.067 141.907 136.672 141.928C136.352 141.928 136.059 141.981 135.792 142.088C135.525 142.184 135.291 142.323 135.088 142.504C134.896 142.685 134.741 142.899 134.624 143.144C134.517 143.379 134.464 143.635 134.464 143.912V149H133.648C133.509 149 133.371 149 133.232 149C133.093 149 132.955 149 132.816 149Z" fill="#444444"/>
<rect x="1" y="1" width="195" height="178" rx="9" stroke="url(#paint9_linear_1_128)" stroke-width="2"/>
<defs>
<filter id="filter0_f_1_128" x="-74.2851" y="98.7149" width="212.57" height="182.57" filterUnits="userSpaceOnUse" color-interpolation-filters="sRGB">
<feFlood flood-opacity="0" result="BackgroundImageFix"/>
<feBlend mode="normal" in="SourceGraphic" in2="BackgroundImageFix" result="shape"/>
<feGaussianBlur stdDeviation="17.6425" result="effect1_foregroundBlur_1_128"/>
</filter>
<filter id="filter1_f_1_128" x="94.5367" y="-65.0067" width="167.258" height="258.423" filterUnits="userSpaceOnUse" color-interpolation-filters="sRGB">
<feFlood flood-opacity="0" result="BackgroundImageFix"/>
<feBlend mode="normal" in="SourceGraphic" in2="BackgroundImageFix" result="shape"/>
<feGaussianBlur stdDeviation="17.6425" result="effect1_foregroundBlur_1_128"/>
</filter>
<linearGradient id="paint0_linear_1_128" x1="57.8896" y1="121.883" x2="57.8896" y2="214.856" gradientUnits="userSpaceOnUse">
<stop stop-color="#FCA9C7"/>
<stop offset="1" stop-color="#DFA1ED"/>
</linearGradient>
<linearGradient id="paint1_linear_1_128" x1="215.448" y1="48.7958" x2="127.834" y2="79.9845" gradientUnits="userSpaceOnUse">
<stop stop-color="#8279E3"/>
<stop offset="1" stop-color="#7061A3" stop-opacity="0.14"/>
</linearGradient>
<linearGradient id="paint2_linear_1_128" x1="69.9166" y1="71.135" x2="83.2436" y2="84.0064" gradientUnits="userSpaceOnUse">
<stop stop-color="#FCA9C7"/>
<stop offset="1" stop-color="#8279E3"/>
</linearGradient>
<linearGradient id="paint3_linear_1_128" x1="67.2935" y1="68.4405" x2="70.0888" y2="71.1528" gradientUnits="userSpaceOnUse">
<stop stop-color="#FCA9C7"/>
<stop offset="1" stop-color="#8279E3"/>
</linearGradient>
<linearGradient id="paint4_linear_1_128" x1="90.2614" y1="73.0958" x2="97.2632" y2="79.9" gradientUnits="userSpaceOnUse">
<stop stop-color="#FCA9C7"/>
<stop offset="1" stop-color="#8279E3"/>
</linearGradient>
<linearGradient id="paint5_linear_1_128" x1="74.3834" y1="57.089" x2="81.3414" y2="63.8065" gradientUnits="userSpaceOnUse">
<stop stop-color="#FCA9C7"/>
<stop offset="1" stop-color="#8279E3"/>
</linearGradient>
<linearGradient id="paint6_linear_1_128" x1="87.2335" y1="64.4131" x2="90.0363" y2="67.1196" gradientUnits="userSpaceOnUse">
<stop stop-color="#FCA9C7"/>
<stop offset="1" stop-color="#8279E3"/>
</linearGradient>
<linearGradient id="paint7_linear_1_128" x1="83.2447" y1="84.409" x2="86.0414" y2="87.1157" gradientUnits="userSpaceOnUse">
<stop stop-color="#FCA9C7"/>
<stop offset="1" stop-color="#8279E3"/>
</linearGradient>
<linearGradient id="paint8_linear_1_128" x1="87.6255" y1="29.9398" x2="124.005" y2="65.142" gradientUnits="userSpaceOnUse">
<stop stop-color="#FCA9C7"/>
<stop offset="1" stop-color="#8279E3"/>
</linearGradient>
<linearGradient id="paint9_linear_1_128" x1="-4.27689e-06" y1="5.49899" x2="222.093" y2="137.913" gradientUnits="userSpaceOnUse">
<stop stop-color="#7598EC"/>
<stop offset="0.34375" stop-color="#8279E3"/>
<stop offset="0.682292" stop-color="#DFA1ED"/>
<stop offset="1" stop-color="#FFCDEA"/>
</linearGradient>
<clipPath id="clip0_1_128">
<rect width="197" height="180" rx="10" fill="white"/>
</clipPath>
</defs>
</svg>
