<svg width="32" height="27" viewBox="0 0 32 27" fill="none" xmlns="http://www.w3.org/2000/svg">
<path d="M32.0255 3.96843C30.8477 4.4903 29.5826 4.84291 28.2525 5.00229C29.6249 4.18112 30.6516 2.88869 31.1411 1.36617C29.8517 2.13203 28.4406 2.6711 26.969 2.95997C25.9794 1.90336 24.6687 1.20302 23.2403 0.967686C21.8119 0.732351 20.3457 0.975186 19.0695 1.65849C17.7932 2.34179 16.7783 3.42734 16.1822 4.74658C15.5861 6.06582 15.4423 7.54496 15.773 8.95434C13.1604 8.82316 10.6046 8.14411 8.27142 6.96125C5.93826 5.7784 3.8799 4.11817 2.22991 2.08832C1.66573 3.06152 1.34133 4.18987 1.34133 5.39157C1.3407 6.47337 1.6071 7.5386 2.1169 8.49275C2.6267 9.4469 3.36413 10.2605 4.26376 10.8613C3.22042 10.8281 2.20011 10.5461 1.28773 10.039V10.1236C1.28763 11.6409 1.81246 13.1114 2.77318 14.2858C3.73391 15.4602 5.07134 16.266 6.55855 16.5665C5.59068 16.8284 4.57594 16.867 3.59098 16.6793C4.01058 17.9848 4.82793 19.1265 5.9286 19.9444C7.02927 20.7623 8.35815 21.2155 9.72922 21.2407C7.40176 23.0678 4.52735 24.0589 1.56841 24.0545C1.04426 24.0547 0.52056 24.024 0 23.9628C3.0035 25.894 6.49979 26.9189 10.0705 26.9149C22.158 26.9149 28.7659 16.9036 28.7659 8.22091C28.7659 7.93882 28.7589 7.65391 28.7462 7.37183C30.0315 6.44231 31.141 5.29128 32.0226 3.97267L32.0255 3.96843Z" fill="white"/>
</svg>
